G04 DipTrace 2.4.0.2*
%INBottomMask.gbr*%
%MOIN*%
%ADD15R,0.063X0.063*%
%ADD18R,0.0551X0.0551*%
%ADD19C,0.0551*%
%ADD20C,0.0591*%
%ADD30C,0.0394*%
%ADD42C,0.1143*%
%ADD44C,0.1025*%
%ADD46R,0.0671X0.0671*%
%ADD50C,0.0671*%
%ADD52C,0.0631*%
%ADD53C,0.128*%
%ADD55C,0.071*%
%ADD57R,0.071X0.071*%
%ADD58C,0.073*%
%FSLAX44Y44*%
G04*
G70*
G90*
G75*
G01*
%LNBotMask*%
%LPD*%
D58*
X15190Y43690D3*
X13190D3*
X15190Y42190D3*
X13190D3*
X14440Y28690D3*
Y30690D3*
X15440Y17440D3*
X17440D3*
D57*
X18440Y14690D3*
D55*
X19440D3*
D58*
X15440Y19190D3*
X17440D3*
D57*
X21690Y14690D3*
D55*
X22690D3*
D57*
X5190Y41440D3*
D55*
X6190D3*
D58*
X14690Y36190D3*
X16690D3*
X15440Y20940D3*
X17440D3*
D57*
X8440Y38690D3*
D55*
X9440D3*
D57*
X5190Y37940D3*
D55*
X6190D3*
D58*
X7440Y18190D3*
Y20190D3*
D57*
X5190Y34440D3*
D55*
X6190D3*
D58*
X9190Y18190D3*
Y20190D3*
D57*
X8190Y7190D3*
D55*
X9190D3*
D58*
X10190Y10190D3*
X8190D3*
D57*
X18940Y7190D3*
D55*
X19940D3*
D58*
Y10190D3*
X17940D3*
X5940Y7440D3*
Y11515D3*
X21940Y7440D3*
Y11515D3*
D53*
X12010Y5940D3*
X13570D3*
X15130D3*
X16690D3*
D15*
X5690Y49190D3*
D52*
Y48403D3*
Y47615D3*
D20*
X21940Y37940D3*
D30*
X22727D3*
D20*
X21940Y36690D3*
D30*
X22727D3*
D15*
X9440Y52440D3*
D52*
X8653D3*
X7865D3*
D15*
X5690Y31477D3*
D52*
Y30690D3*
D15*
Y45477D3*
D52*
Y44690D3*
D20*
X21940Y35440D3*
D30*
X22727D3*
D15*
X12690Y52440D3*
D52*
X11903D3*
D15*
X19440D3*
D52*
X18653D3*
D18*
X14190Y38690D3*
D19*
X14690Y38190D3*
X15190Y38690D3*
D18*
X15815Y14190D3*
D19*
X15315Y14690D3*
X14815Y14190D3*
D18*
X11190Y38690D3*
D19*
X11690Y38190D3*
X12190Y38690D3*
D58*
X16440Y44690D3*
X20653D3*
X20690Y43190D3*
X16477D3*
X20690Y41690D3*
X16477D3*
X7440Y41190D3*
X11653D3*
X13440Y32440D3*
X17653D3*
X22440Y16940D3*
Y21153D3*
X20690Y12190D3*
X16477D3*
X20690Y16940D3*
Y21153D3*
X18940Y16940D3*
Y21153D3*
X7440Y42690D3*
X11653D3*
X7440Y45690D3*
X11653D3*
X20690Y40190D3*
X16477D3*
X11690Y44190D3*
X7477D3*
X13440Y34190D3*
X17653D3*
X14190Y22690D3*
Y26903D3*
X15940Y22690D3*
Y26903D3*
X16440Y38690D3*
X20653D3*
X8190Y32190D3*
X12403D3*
X8190Y35690D3*
X12403D3*
X8190Y33940D3*
X12403D3*
X7940Y26190D3*
Y21977D3*
X5690Y20940D3*
Y16727D3*
X6190Y26190D3*
Y21977D3*
X11190Y21440D3*
Y17227D3*
X8940Y12440D3*
Y16653D3*
X7440Y12440D3*
Y16653D3*
X13190Y21440D3*
Y17227D3*
X7440Y47190D3*
X11653D3*
X15940Y50190D3*
X11727D3*
D46*
X12440Y23440D3*
D50*
Y24440D3*
Y25440D3*
Y26440D3*
Y27440D3*
Y28440D3*
Y29440D3*
X9440D3*
Y28440D3*
Y27440D3*
Y26440D3*
Y25440D3*
Y24440D3*
Y23440D3*
D46*
X10190Y15690D3*
D50*
Y14690D3*
Y13690D3*
Y12690D3*
X13190D3*
Y13690D3*
Y14690D3*
Y15690D3*
D46*
X12940Y48440D3*
D50*
Y47440D3*
Y46440D3*
Y45440D3*
X15940D3*
Y46440D3*
Y47440D3*
Y48440D3*
D58*
X11690Y48690D3*
X7477D3*
X17190Y46690D3*
Y50903D3*
X18440Y49940D3*
X22653D3*
X18440Y48190D3*
X22653D3*
X22690Y46440D3*
X18477D3*
X16440Y10940D3*
X12227D3*
X16440Y9440D3*
X12227D3*
D15*
X7690Y30190D3*
D52*
Y29403D3*
Y28615D3*
D15*
X16690Y52440D3*
D52*
X15903D3*
X15115D3*
D15*
X5690Y28477D3*
D52*
Y27690D3*
D44*
X20940Y31690D3*
D42*
X18912Y31060D3*
X22968D3*
D44*
X20940Y25440D3*
D42*
X18912Y24810D3*
X22968D3*
M02*
