G04 DipTrace 2.4.0.2*
%INBottom.gbr*%
%MOIN*%
%ADD13C,0.013*%
%ADD14C,0.065*%
%ADD15R,0.063X0.063*%
%ADD16C,0.063*%
%ADD17R,0.0638X0.0638*%
%ADD18C,0.0638*%
%ADD19C,0.0945*%
%ADD20C,0.1063*%
%ADD21C,0.12*%
%ADD22C,0.0591*%
%ADD23R,0.0472X0.0472*%
%ADD24C,0.0472*%
%ADD25R,0.0591X0.0591*%
%ADD26O,0.0394X0.0787*%
%ADD27C,0.18*%
%ADD29C,0.04*%
%FSLAX44Y44*%
G04*
G70*
G90*
G75*
G01*
%LNBottom*%
%LPD*%
X13000Y6190D2*
D13*
Y8667D1*
X12227Y9440D1*
X7940Y27940D2*
X6940Y26940D1*
Y26160D1*
X6190Y25410D1*
X5450Y26151D1*
Y26590D1*
X5690Y26830D1*
Y27584D1*
X22440Y16940D2*
X22968Y17468D1*
Y24810D1*
X14690Y52440D2*
X14220Y52910D1*
X12178D1*
X11796Y52529D1*
Y52440D1*
X14440Y28690D2*
X13690Y29440D1*
X12440D1*
X7653Y52440D2*
Y49642D1*
X7477Y49467D1*
Y48690D1*
X11653Y45690D2*
X9960D1*
X9700Y45430D1*
Y43930D1*
X9440Y43670D1*
X6960D1*
X6700Y43930D1*
X6344D1*
X5690Y44584D1*
X6190Y25410D2*
Y21977D1*
X12227Y9440D2*
Y10940D1*
X5690Y27584D2*
X5779D1*
X6160Y27966D1*
Y29435D1*
X5690Y29906D1*
Y30690D1*
X22968Y24810D2*
Y31060D1*
X19440Y14690D2*
Y15842D1*
X6960Y43670D2*
X6700Y43410D1*
Y38700D1*
X6190Y38190D1*
X11796Y52440D2*
Y51988D1*
X12247Y51537D1*
Y49470D1*
X11987Y49210D1*
X11393D1*
X11133Y48950D1*
Y46210D1*
X11653Y45690D1*
X6190Y38190D2*
X6700Y37680D1*
Y32190D1*
X14560Y6190D2*
X15899Y4851D1*
X18690D1*
Y5440D1*
X19440Y14690D2*
Y11460D1*
X19940Y10960D1*
Y10440D1*
X8690Y12190D2*
Y11210D1*
X8190Y10710D1*
Y10190D1*
X19940Y10440D2*
Y9095D1*
X19690Y8845D1*
Y7940D1*
X7940D2*
X8690Y7190D1*
Y5440D1*
X8190Y10190D2*
Y9481D1*
X7940Y9231D1*
Y7940D1*
X15190Y41940D2*
X14785Y41535D1*
X13781D1*
Y41190D1*
X12940D1*
X12605Y40855D1*
Y39726D1*
X12345Y39466D1*
X10490D1*
X10230Y39206D1*
Y36186D1*
X9440Y35396D1*
Y29440D1*
X20690Y43190D2*
Y41690D1*
X14190Y41140D2*
Y38190D1*
X9835Y37105D2*
X8710Y35979D1*
Y29170D1*
X9440Y28440D1*
X15210Y31729D2*
Y36963D1*
X15190Y36983D1*
Y38190D1*
X12403Y35690D2*
X13700D1*
X13960Y35430D1*
Y31950D1*
X14960Y30950D1*
Y27942D1*
X14700Y27682D1*
X13682D1*
X12930Y26930D1*
X14960Y30950D2*
X15710D1*
X15970Y31210D1*
Y33670D1*
X15710Y33930D1*
Y44320D1*
X15450Y44580D1*
Y47950D1*
X15940Y48440D1*
X17653Y32440D2*
Y33940D1*
X13190Y15690D2*
X11710Y17170D1*
Y22580D1*
X11300Y22990D1*
Y23440D1*
X13190Y15690D2*
X13680Y15200D1*
Y12450D1*
X13940Y12190D1*
X14460D1*
X16477D1*
X17653Y33940D2*
X17383Y33670D1*
X15970D1*
X16477Y12190D2*
X15660Y11373D1*
Y8827D1*
X16915Y7573D1*
Y7054D1*
X18190Y5779D1*
Y5440D1*
X14460Y12190D2*
Y11460D1*
X11460D1*
X10190Y10190D1*
X6190Y41440D2*
Y40286D1*
X4680Y38777D1*
Y11255D1*
X4940Y10995D1*
X7700D1*
X7960Y11255D1*
Y12920D1*
X8220Y13180D1*
X9700D1*
X10190Y12690D1*
X7440Y41190D2*
X9700D1*
X9960Y41450D1*
Y44450D1*
X10220Y44710D1*
X12210D1*
X12940Y45440D1*
X10190Y12690D2*
X9440Y11940D1*
Y9221D1*
X9690Y8971D1*
Y5440D1*
X22440Y21153D2*
X21607Y21985D1*
Y24773D1*
X20940Y25440D1*
X17440Y17440D2*
X15190Y15190D1*
X12440Y24440D2*
X12930Y23950D1*
Y22465D1*
X13940Y21455D1*
Y15440D1*
X14690Y14690D1*
X15440Y19190D2*
X14710Y19920D1*
Y24170D1*
X12440Y26440D1*
X20690Y16940D2*
Y14950D1*
X20950Y14690D1*
X21690D1*
X20653Y38690D2*
Y37440D1*
X20133Y36920D1*
Y24622D1*
X21210Y23545D1*
Y16170D1*
X22690Y14690D1*
X20653Y37440D2*
X20912Y37180D1*
X21680D1*
X21940Y37440D1*
Y37940D1*
X22690Y14690D2*
Y12636D1*
X23440D1*
Y7690D1*
X22440Y6690D1*
X17940D1*
X17690Y6940D1*
Y8190D1*
X16440Y9440D1*
X5190Y41440D2*
Y47903D1*
X5690Y48403D1*
X5495D1*
X5220Y48678D1*
Y49940D1*
X6420D1*
Y46710D1*
X7440Y45690D1*
X17095Y45045D2*
Y39345D1*
X16440Y38690D1*
X7477Y44190D2*
X6160Y45507D1*
Y48932D1*
X5690Y49403D1*
X12999Y40710D2*
Y37381D1*
X14690Y35690D1*
X12210Y40710D2*
Y43670D1*
X11690Y44190D1*
X13440Y33940D2*
X11694Y32194D1*
Y24186D1*
X12440Y23440D1*
X15940Y26903D2*
X16460Y26383D1*
Y21960D1*
X15440Y20940D1*
X14190Y26903D2*
X14710Y27422D1*
X17180D1*
X17440Y27162D1*
Y20940D1*
X7095Y30796D2*
Y36845D1*
X8440Y38190D1*
X14190Y22690D2*
X13535D1*
X18172Y36690D2*
Y16240D1*
X17700Y15767D1*
Y12200D1*
X16440Y10940D1*
X9440Y38190D2*
Y39517D1*
X11035Y41112D1*
Y43727D1*
X11653Y46345D2*
Y47190D1*
X21940Y36690D2*
Y35440D1*
X10585Y32190D2*
X10884Y32490D1*
Y36884D1*
X11690Y37690D1*
X10490Y33940D2*
Y37490D1*
X11190Y38190D1*
X11240Y25930D2*
Y36586D1*
X12190Y37537D1*
Y38190D1*
X8998Y25930D2*
X9240D1*
X9440Y25730D1*
Y25440D1*
X7440Y18190D2*
X7960Y18710D1*
Y20928D1*
X7940Y20948D1*
Y21977D1*
X8460Y22497D1*
Y26180D1*
X8720Y26440D1*
X9440D1*
X5690Y16727D2*
Y19930D1*
X5950Y20190D1*
X7440D1*
Y19502D1*
X6660Y18723D1*
Y17827D1*
X6920Y17567D1*
X7960D1*
X8220Y17827D1*
Y20710D1*
X9930Y22420D1*
Y26950D1*
X9440Y27440D1*
X5190Y34440D2*
Y25536D1*
X4940Y25286D1*
Y21690D1*
X5690Y20940D1*
X6960D1*
X7220Y21200D1*
Y25470D1*
X7940Y26190D1*
X6190D2*
Y26710D1*
X6690Y27210D1*
Y29940D1*
X6680Y29930D1*
X6190Y30420D1*
Y34440D1*
X6680Y29930D2*
X7940D1*
Y29940D1*
X10190Y13690D2*
X10940Y14440D1*
Y15935D1*
X10450Y16425D1*
Y20700D1*
X11190Y21440D1*
X10450Y22180D1*
Y27670D1*
X10190Y27930D1*
X8950D1*
X7940Y28940D1*
X10190Y14690D2*
X9265D1*
X8940Y15015D1*
X6690Y12765D1*
Y12190D1*
X8940Y15015D2*
Y16403D1*
X8690D1*
Y16922D1*
X9190Y17422D1*
Y18190D1*
Y20190D2*
X10190Y19190D1*
Y15690D1*
X6977Y17172D2*
X6690D1*
Y16403D1*
X11440Y6190D2*
X10101Y4851D1*
X8279D1*
X5190Y7940D1*
X9653Y52440D2*
Y49403D1*
X7440Y47190D1*
X22653Y49940D2*
X21440D1*
X20440Y50940D1*
Y52940D1*
X16190D1*
X15690Y52440D1*
X11727Y50190D2*
X10873Y51044D1*
Y52651D1*
X10613Y52910D1*
X8928D1*
X8653Y52635D1*
Y52440D1*
X12940Y48440D2*
Y47440D1*
X11690Y48690D2*
X12210Y48170D1*
Y47170D1*
X12940Y46440D1*
X17190Y46690D2*
Y48046D1*
X12796Y52440D1*
X15940Y47440D2*
Y46440D1*
X18440Y49940D2*
Y48190D1*
X17710Y47460D1*
Y45700D1*
X17450Y45440D1*
X15940D1*
X22690Y46440D2*
X19546Y49584D1*
Y52440D1*
X20690Y7940D2*
X22690Y9940D1*
Y12015D1*
D27*
X5440Y5440D3*
X22440D3*
X5440Y52440D3*
D29*
X19440Y15842D3*
X6700Y32190D3*
X14190Y41140D3*
X9835Y37105D3*
X15210Y31729D3*
X12930Y26930D3*
X11300Y23440D3*
X17095Y45045D3*
X12999Y40710D3*
X12210D3*
X7095Y30796D3*
X13535Y22690D3*
X18172Y36690D3*
X11035Y43727D3*
X11653Y46345D3*
X10585Y32190D3*
X10490Y33940D3*
X11240Y25930D3*
X8998D3*
X6977Y17172D3*
D27*
X22440Y52440D3*
D14*
X15190Y43690D3*
X13190D3*
X15190Y41940D3*
X13190D3*
X14440Y28690D3*
Y30690D3*
X15440Y17440D3*
X17440D3*
D15*
X18440Y14690D3*
D16*
X19440D3*
D14*
X15440Y19190D3*
X17440D3*
D15*
X21690Y14690D3*
D16*
X22690D3*
D15*
X5190Y41440D3*
D16*
X6190D3*
D14*
X14690Y35690D3*
X16690D3*
X15440Y20940D3*
X17440D3*
D15*
X8440Y38190D3*
D16*
X9440D3*
D15*
X5190D3*
D16*
X6190D3*
D14*
X7440Y18190D3*
Y20190D3*
D15*
X5190Y34440D3*
D16*
X6190D3*
D14*
X9190Y18190D3*
Y20190D3*
D15*
X6940Y7940D3*
D16*
X7940D3*
D14*
X10190Y10190D3*
X8190D3*
D15*
X19690Y7940D3*
D16*
X20690D3*
D14*
X19940Y10440D3*
X17940D3*
D17*
X9653Y52440D3*
D18*
X8653D3*
X7653D3*
D17*
X5690Y49403D3*
D18*
Y48403D3*
Y47403D3*
D17*
X7940Y29940D3*
D18*
Y28940D3*
Y27940D3*
D17*
X5690Y31690D3*
D18*
Y30690D3*
D17*
X16690Y52440D3*
D18*
X15690D3*
X14690D3*
D17*
X12796D3*
D18*
X11796D3*
D17*
X19546D3*
D18*
X18546D3*
D17*
X5690Y28584D3*
D18*
Y27584D3*
D17*
Y45584D3*
D18*
Y44584D3*
D19*
X20940Y31690D3*
D20*
X18912Y31060D3*
X22968D3*
D19*
X20940Y25440D3*
D20*
X18912Y24810D3*
X22968D3*
D14*
X5190Y7940D3*
Y12015D3*
X22690Y7940D3*
Y12015D3*
D21*
X11440Y6190D3*
X13000D3*
X14560D3*
X16120D3*
D22*
X21940Y37940D3*
Y36690D3*
Y35440D3*
D23*
X14190Y38190D3*
D24*
X14690Y37690D3*
X15190Y38190D3*
D23*
X15690Y14690D3*
D24*
X15190Y15190D3*
X14690Y14690D3*
D23*
X11190Y38190D3*
D24*
X11690Y37690D3*
X12190Y38190D3*
D14*
X16440Y44690D3*
X20653D3*
X20690Y43190D3*
X16477D3*
X20690Y41690D3*
X16477D3*
X7440Y41190D3*
X11653D3*
X13440Y32440D3*
X17653D3*
X22440Y16940D3*
Y21153D3*
X20690Y12190D3*
X16477D3*
X20690Y16940D3*
Y21153D3*
X18940Y16940D3*
Y21153D3*
X7440Y42690D3*
X11653D3*
X7440Y45690D3*
X11653D3*
X20690Y40190D3*
X16477D3*
X11690Y44190D3*
X7477D3*
X13440Y33940D3*
X17653D3*
X14190Y22690D3*
Y26903D3*
X15940Y22690D3*
Y26903D3*
X16440Y38690D3*
X20653D3*
X8190Y32190D3*
X12403D3*
X8190Y35690D3*
X12403D3*
X8190Y33940D3*
X12403D3*
X7940Y26190D3*
Y21977D3*
X5690Y20940D3*
Y16727D3*
X6190Y26190D3*
Y21977D3*
X11190Y21440D3*
Y17227D3*
X8690Y12190D3*
Y16403D3*
X6690Y12190D3*
Y16403D3*
X13190Y21440D3*
Y17227D3*
X7440Y47190D3*
X11653D3*
X15940Y50190D3*
X11727D3*
X11690Y48690D3*
X7477D3*
X17190Y46690D3*
Y50903D3*
X18440Y49940D3*
X22653D3*
X18440Y48190D3*
X22653D3*
X22690Y46440D3*
X18477D3*
X16440Y10940D3*
X12227D3*
X16440Y9440D3*
X12227D3*
D25*
X12440Y23440D3*
D22*
Y24440D3*
Y25440D3*
Y26440D3*
Y27440D3*
Y28440D3*
Y29440D3*
X9440D3*
Y28440D3*
Y27440D3*
Y26440D3*
Y25440D3*
Y24440D3*
Y23440D3*
D25*
X10190Y15690D3*
D22*
Y14690D3*
Y13690D3*
Y12690D3*
X13190D3*
Y13690D3*
Y14690D3*
Y15690D3*
D25*
X12940Y48440D3*
D22*
Y47440D3*
Y46440D3*
Y45440D3*
X15940D3*
Y46440D3*
Y47440D3*
Y48440D3*
G36*
X17993Y5145D2*
X18092Y5046D1*
X18288D1*
X18387Y5145D1*
Y5735D1*
X18288Y5834D1*
X18092D1*
X17993Y5735D1*
Y5145D1*
G37*
D26*
X18690Y5440D3*
X19190D3*
G36*
X8493Y5145D2*
X8592Y5046D1*
X8788D1*
X8887Y5145D1*
Y5735D1*
X8788Y5834D1*
X8592D1*
X8493Y5735D1*
Y5145D1*
G37*
D26*
X9190Y5440D3*
X9690D3*
M02*
