G04 DipTrace 2.4.0.2*
%INBottomMask.gbr*%
%MOIN*%
%ADD22C,0.0591*%
%ADD31C,0.0394*%
%ADD44O,0.0474X0.0867*%
%ADD46R,0.0671X0.0671*%
%ADD48C,0.0552*%
%ADD50R,0.0552X0.0552*%
%ADD52C,0.0671*%
%ADD54C,0.128*%
%ADD56C,0.1143*%
%ADD58C,0.1025*%
%ADD60C,0.0718*%
%ADD62R,0.0718X0.0718*%
%ADD64C,0.071*%
%ADD66R,0.071X0.071*%
%ADD68C,0.073*%
%FSLAX44Y44*%
G04*
G70*
G90*
G75*
G01*
%LNBotMask*%
%LPD*%
D68*
X15190Y43690D3*
X13190D3*
X15190Y41940D3*
X13190D3*
X14440Y28690D3*
Y30690D3*
X15440Y17440D3*
X17440D3*
D66*
X18440Y14690D3*
D64*
X19440D3*
D68*
X15440Y19190D3*
X17440D3*
D66*
X21690Y14690D3*
D64*
X22690D3*
D66*
X5190Y41440D3*
D64*
X6190D3*
D68*
X14690Y35690D3*
X16690D3*
X15440Y20940D3*
X17440D3*
D66*
X8440Y38190D3*
D64*
X9440D3*
D66*
X5190D3*
D64*
X6190D3*
D68*
X7440Y18190D3*
Y20190D3*
D66*
X5190Y34440D3*
D64*
X6190D3*
D68*
X9190Y18190D3*
Y20190D3*
D66*
X6940Y7940D3*
D64*
X7940D3*
D68*
X10190Y10190D3*
X8190D3*
D66*
X19690Y7940D3*
D64*
X20690D3*
D68*
X19940Y10440D3*
X17940D3*
D62*
X9653Y52440D3*
D60*
X8653D3*
X7653D3*
D62*
X5690Y49403D3*
D60*
Y48403D3*
Y47403D3*
D62*
X7940Y29940D3*
D60*
Y28940D3*
Y27940D3*
D62*
X5690Y31690D3*
D60*
Y30690D3*
D62*
X16690Y52440D3*
D60*
X15690D3*
X14690D3*
D62*
X12796D3*
D60*
X11796D3*
D62*
X19546D3*
D60*
X18546D3*
D62*
X5690Y28584D3*
D60*
Y27584D3*
D62*
Y45584D3*
D60*
Y44584D3*
D58*
X20940Y31690D3*
D56*
X18912Y31060D3*
X22968D3*
D58*
X20940Y25440D3*
D56*
X18912Y24810D3*
X22968D3*
D68*
X5190Y7940D3*
Y12015D3*
X22690Y7940D3*
Y12015D3*
D54*
X11440Y6190D3*
X13000D3*
X14560D3*
X16120D3*
D22*
X21940Y37940D3*
D31*
X22727D3*
D22*
X21940Y36690D3*
D31*
X22727D3*
D22*
X21940Y35440D3*
D31*
X22727D3*
D50*
X14190Y38190D3*
D48*
X14690Y37690D3*
X15190Y38190D3*
D50*
X15690Y14690D3*
D48*
X15190Y15190D3*
X14690Y14690D3*
D50*
X11190Y38190D3*
D48*
X11690Y37690D3*
X12190Y38190D3*
D68*
X16440Y44690D3*
X20653D3*
X20690Y43190D3*
X16477D3*
X20690Y41690D3*
X16477D3*
X7440Y41190D3*
X11653D3*
X13440Y32440D3*
X17653D3*
X22440Y16940D3*
Y21153D3*
X20690Y12190D3*
X16477D3*
X20690Y16940D3*
Y21153D3*
X18940Y16940D3*
Y21153D3*
X7440Y42690D3*
X11653D3*
X7440Y45690D3*
X11653D3*
X20690Y40190D3*
X16477D3*
X11690Y44190D3*
X7477D3*
X13440Y33940D3*
X17653D3*
X14190Y22690D3*
Y26903D3*
X15940Y22690D3*
Y26903D3*
X16440Y38690D3*
X20653D3*
X8190Y32190D3*
X12403D3*
X8190Y35690D3*
X12403D3*
X8190Y33940D3*
X12403D3*
X7940Y26190D3*
Y21977D3*
X5690Y20940D3*
Y16727D3*
X6190Y26190D3*
Y21977D3*
X11190Y21440D3*
Y17227D3*
X8690Y12190D3*
Y16403D3*
X6690Y12190D3*
Y16403D3*
X13190Y21440D3*
Y17227D3*
X7440Y47190D3*
X11653D3*
X15940Y50190D3*
X11727D3*
X11690Y48690D3*
X7477D3*
X17190Y46690D3*
Y50903D3*
X18440Y49940D3*
X22653D3*
X18440Y48190D3*
X22653D3*
X22690Y46440D3*
X18477D3*
X16440Y10940D3*
X12227D3*
X16440Y9440D3*
X12227D3*
D46*
X12440Y23440D3*
D52*
Y24440D3*
Y25440D3*
Y26440D3*
Y27440D3*
Y28440D3*
Y29440D3*
X9440D3*
Y28440D3*
Y27440D3*
Y26440D3*
Y25440D3*
Y24440D3*
Y23440D3*
D46*
X10190Y15690D3*
D52*
Y14690D3*
Y13690D3*
Y12690D3*
X13190D3*
Y13690D3*
Y14690D3*
Y15690D3*
D46*
X12940Y48440D3*
D52*
Y47440D3*
Y46440D3*
Y45440D3*
X15940D3*
Y46440D3*
Y47440D3*
Y48440D3*
G36*
X17953Y5128D2*
X18075Y5006D1*
X18305D1*
X18427Y5128D1*
Y5752D1*
X18305Y5874D1*
X18075D1*
X17953Y5752D1*
Y5128D1*
G37*
D44*
X18690Y5440D3*
X19190D3*
G36*
X8453Y5128D2*
X8575Y5006D1*
X8805D1*
X8927Y5128D1*
Y5752D1*
X8805Y5874D1*
X8575D1*
X8453Y5752D1*
Y5128D1*
G37*
D44*
X9190Y5440D3*
X9690D3*
M02*
