M48
INCH
T01C0.0191
T02C0.0236
T03C0.0315
T04C0.0354
T05C0.0394
T06C0.0669
T07C0.07
T08C0.0787
T09C0.12
%
T01
X+019440Y+015842
X+013535Y+022690
X+011300Y+023440
X+011240Y+025930
X+012930Y+026930
X+008998Y+025930
X+007095Y+030796
X+006700Y+032190
X+010585Y+032190
X+010490Y+033940
X+009835Y+037105
X+012210Y+040710
X+012999Y+040710
X+014190Y+041140
X+011035Y+043727
X+011653Y+046345
X+017095Y+045045
X+018172Y+036690
X+015210Y+031729
X+006977Y+017172
T02
X+014190Y+038690
X+014690Y+038190
X+015190Y+038690
X+012190Y+038690
X+011690Y+038190
X+011190Y+038690
X+015315Y+014690
X+014815Y+014190
X+015815Y+014190
T03
X+005690Y+049190
X+005690Y+048403
X+005690Y+047615
X+005690Y+045477
X+005690Y+044690
X+007865Y+052440
X+008653Y+052440
X+009440Y+052440
X+011903Y+052440
X+012690Y+052440
X+015115Y+052440
X+015903Y+052440
X+016690Y+052440
X+018653Y+052440
X+019440Y+052440
X+005690Y+031477
X+005690Y+030690
X+007690Y+030190
X+007690Y+029403
X+007690Y+028615
X+005690Y+028477
X+005690Y+027690
T04
X+018440Y+014690
X+019440Y+014690
X+021690Y+014690
X+022690Y+014690
X+019940Y+007190
X+018940Y+007190
X+013190Y+012690
X+013190Y+013690
X+013190Y+014690
X+013190Y+015690
X+010190Y+015690
X+010190Y+014690
X+010190Y+013690
X+010190Y+012690
X+009190Y+007190
X+008190Y+007190
X+009440Y+023440
X+009440Y+024440
X+009440Y+025440
X+009440Y+026440
X+009440Y+027440
X+009440Y+028440
X+009440Y+029440
X+012440Y+029440
X+012440Y+028440
X+012440Y+027440
X+012440Y+026440
X+012440Y+025440
X+012440Y+024440
X+012440Y+023440
X+006190Y+034440
X+005190Y+034440
X+005190Y+037940
X+006190Y+037940
X+008440Y+038690
X+009440Y+038690
X+006190Y+041440
X+005190Y+041440
X+012940Y+045440
X+012940Y+046440
X+012940Y+047440
X+012940Y+048440
X+015940Y+048440
X+015940Y+047440
X+015940Y+046440
X+015940Y+045440
X+021940Y+037940
X+021940Y+036690
X+021940Y+035440
T05
X+015190Y+043690
X+016477Y+043190
X+016477Y+041690
X+015190Y+042190
X+013190Y+042190
X+013190Y+043690
X+011690Y+044190
X+011653Y+042690
X+011653Y+041190
X+007440Y+041190
X+007440Y+042690
X+007477Y+044190
X+007440Y+045690
X+007440Y+047190
X+007477Y+048690
X+011690Y+048690
X+011653Y+047190
X+011653Y+045690
X+011727Y+050190
X+015940Y+050190
X+017190Y+050903
X+018440Y+049940
X+018440Y+048190
X+018477Y+046440
X+017190Y+046690
X+016440Y+044690
X+020653Y+044690
X+020690Y+043190
X+020690Y+041690
X+020690Y+040190
X+020653Y+038690
X+022727Y+037940
X+022727Y+036690
X+022727Y+035440
X+017653Y+034190
X+017653Y+032440
X+014440Y+030690
X+014440Y+028690
X+014190Y+026903
X+015940Y+026903
X+015940Y+022690
X+014190Y+022690
X+013190Y+021440
X+011190Y+021440
X+009190Y+020190
X+007440Y+020190
X+007940Y+021977
X+006190Y+021977
X+005690Y+020940
X+007440Y+018190
X+007440Y+016653
X+008940Y+016653
X+009190Y+018190
X+011190Y+017227
X+013190Y+017227
X+015440Y+017440
X+015440Y+019190
X+015440Y+020940
X+017440Y+020940
X+018940Y+021153
X+020690Y+021153
X+022440Y+021153
X+022440Y+016940
X+020690Y+016940
X+018940Y+016940
X+017440Y+017440
X+017440Y+019190
X+016477Y+012190
X+016440Y+010940
X+016440Y+009440
X+017940Y+010190
X+019940Y+010190
X+020690Y+012190
X+021940Y+011515
X+021940Y+007440
X+012227Y+009440
X+012227Y+010940
X+010190Y+010190
X+008190Y+010190
X+007440Y+012440
X+008940Y+012440
X+005940Y+011515
X+005940Y+007440
X+005690Y+016727
X+006190Y+026190
X+007940Y+026190
X+008190Y+032190
X+008190Y+033940
X+008190Y+035690
X+012403Y+035690
X+012403Y+033940
X+013440Y+034190
X+013440Y+032440
X+012403Y+032190
X+014690Y+036190
X+016690Y+036190
X+016440Y+038690
X+016477Y+040190
X+022690Y+046440
X+022653Y+048190
X+022653Y+049940
T06
X+020940Y+031690
X+020940Y+025440
T07
X+012010Y+005940
X+013570Y+005940
X+015130Y+005940
X+016690Y+005940
T08
X+018912Y+031060
X+022968Y+031060
X+022968Y+024810
X+018912Y+024810
T09
X+005440Y+005440
X+022440Y+005440
X+022440Y+052440
X+005440Y+052440
T00
M30
