G04 DipTrace 2.4.0.2*
%INTop.gbr*%
%MOIN*%
%ADD13C,0.013*%
%ADD14C,0.065*%
%ADD15R,0.063X0.063*%
%ADD16C,0.063*%
%ADD17R,0.0638X0.0638*%
%ADD18C,0.0638*%
%ADD19C,0.0945*%
%ADD20C,0.1063*%
%ADD21C,0.12*%
%ADD22C,0.0591*%
%ADD23R,0.0472X0.0472*%
%ADD24C,0.0472*%
%ADD25R,0.0591X0.0591*%
%ADD26O,0.0394X0.0787*%
%ADD27C,0.18*%
%ADD29C,0.04*%
%FSLAX44Y44*%
G04*
G70*
G90*
G75*
G01*
%LNTop*%
%LPD*%
X5690Y45584D2*
D13*
X6160Y45113D1*
Y43970D1*
X7440Y42690D1*
X15190Y43690D2*
X16220D1*
X16239Y43710D1*
X19672D1*
X20653Y44690D1*
X7440Y42690D2*
X7940Y43190D1*
X11440D1*
X12710Y44460D1*
X14420D1*
X15190Y43690D1*
X14690Y52440D2*
X15160Y51970D1*
X18076D1*
X18546Y52440D1*
X14440Y28690D2*
X16542D1*
X18912Y31060D1*
X11190Y17227D2*
X11922Y17960D1*
X14920D1*
X15440Y17440D1*
X8690Y12190D2*
X9940Y10940D1*
X12227D1*
X11653Y45690D2*
X12633Y44710D1*
X13160D1*
X13180Y44690D1*
X16440D1*
X12440Y29440D2*
X11930Y28930D1*
X8847D1*
X7940Y28023D1*
Y27940D1*
X5690Y30690D2*
X5220D1*
X4960Y30950D1*
Y32460D1*
X5190Y32690D1*
X6700D1*
Y32190D1*
X22968Y24810D2*
X22241Y24084D1*
X19639D1*
X18912Y24810D1*
X7653Y52440D2*
X8383Y51710D1*
X11066D1*
X11796Y52440D1*
X18546D2*
Y52351D1*
X21579Y49319D1*
Y49264D1*
X22653Y48190D1*
X18912Y31060D2*
X19639D1*
X19676Y31023D1*
X21703D1*
X21740Y31060D1*
X22968D1*
X19440Y15842D2*
X21342D1*
X22440Y16940D1*
X15440Y17440D2*
X17038Y15842D1*
X19440D1*
X14560Y6190D2*
X13000D1*
X6700Y32690D2*
X8190D1*
Y32190D1*
X19690Y7940D2*
X16310D1*
X14560Y6190D1*
X16477Y43190D2*
X13690D1*
X13190Y43690D1*
X15190Y41940D2*
X15460Y42210D1*
X19710D1*
X20690Y43190D1*
X11653Y41190D2*
X12440D1*
X13190Y41940D1*
X14190Y41140D2*
X15928D1*
X16477Y41690D1*
X13190Y41940D2*
Y41400D1*
X13450Y41140D1*
X14190D1*
X9835Y37105D2*
X14105D1*
X14690Y37690D1*
X14440Y30690D2*
Y31470D1*
X14700Y31729D1*
X15210D1*
X18144D1*
X18201Y31786D1*
X19591D1*
X19687Y31690D1*
X20940D1*
X15210Y31729D2*
X14499Y32440D1*
X13440D1*
X9440Y23440D2*
X11300D1*
X11694Y23835D1*
Y26670D1*
X11954Y26930D1*
X12930D1*
X6190Y41440D2*
X6700D1*
Y41190D1*
X7440D1*
X10190Y12690D2*
X11420Y11460D1*
X16920D1*
X17940Y10440D1*
X17440Y17440D2*
X17960Y17960D1*
X19247D1*
X22440Y21153D1*
X15690Y14690D2*
X18440D1*
Y12450D1*
X18700Y12190D1*
X20690D1*
X17440Y19190D2*
X18727D1*
X20690Y21153D1*
X18633Y23210D1*
X15825D1*
X13595Y25440D1*
X12440D1*
X15440Y19190D2*
X15960Y19710D1*
X17497D1*
X18940Y21153D1*
X20690Y16940D2*
X18940D1*
X11653Y42690D2*
X11133D1*
X10873Y42430D1*
Y41950D1*
Y40450D1*
X11133Y40190D1*
X16477D1*
X10873Y41950D2*
X5479D1*
X5220Y42210D1*
Y46932D1*
X5690Y47403D1*
X7477Y44190D2*
X10997Y47710D1*
X11912D1*
X12172Y47450D1*
Y46190D1*
X12432Y45930D1*
X16210D1*
X17095Y45045D1*
X20690Y40190D2*
X20170Y40710D1*
X12999D1*
X12210D1*
X13440Y33940D2*
X14940D1*
X16690Y35690D1*
X15940Y26903D2*
X14912Y27930D1*
X12950D1*
X12440Y28440D1*
X14190Y26903D2*
X13653Y27440D1*
X12440D1*
X13535Y22690D2*
X7355D1*
X7095Y22950D1*
Y30796D1*
X14190Y22690D2*
X15940D1*
X21940Y36690D2*
X18172D1*
X11653Y46345D2*
X11035D1*
Y43727D1*
X18172Y36690D2*
X17277D1*
X17257Y36710D1*
X9440D1*
Y38190D1*
X10585Y32190D2*
X12403D1*
X5690Y31690D2*
X10585D1*
Y32190D1*
X5190Y38190D2*
X7690Y35690D1*
X8190D1*
X10653D1*
X12403Y33940D1*
X10490D2*
X8190D1*
X8998Y25930D2*
X11240D1*
X9190Y20190D2*
X11940D1*
X13190Y21440D1*
Y17227D2*
X12670Y16708D1*
X9692D1*
X9227Y17172D1*
X6977D1*
X6920Y17229D1*
Y20604D1*
X6710Y20815D1*
Y27564D1*
X5690Y28584D1*
X16120Y6190D2*
X20940D1*
X22690Y7940D1*
X9653Y52440D2*
X10123Y52910D1*
X16220D1*
X16690Y52440D1*
X12940Y48440D2*
X13920Y49420D1*
X16930D1*
X17190Y49680D1*
Y50903D1*
X11690Y48690D2*
X13190Y50190D1*
X15940D1*
Y47440D2*
X17477D1*
X18477Y46440D1*
X5190Y12015D2*
X6940Y10265D1*
Y7940D1*
Y5111D1*
X7200Y4851D1*
X19190D1*
Y5440D1*
X20690Y7940D2*
X20180Y8450D1*
X9450D1*
X9190Y8190D1*
Y5440D1*
D27*
X5440D3*
X22440D3*
X5440Y52440D3*
D29*
X19440Y15842D3*
X6700Y32190D3*
X14190Y41140D3*
X9835Y37105D3*
X15210Y31729D3*
X12930Y26930D3*
X11300Y23440D3*
X17095Y45045D3*
X12999Y40710D3*
X12210D3*
X7095Y30796D3*
X13535Y22690D3*
X18172Y36690D3*
X11035Y43727D3*
X11653Y46345D3*
X10585Y32190D3*
X10490Y33940D3*
X11240Y25930D3*
X8998D3*
X6977Y17172D3*
D27*
X22440Y52440D3*
D14*
X15190Y43690D3*
X13190D3*
X15190Y41940D3*
X13190D3*
X14440Y28690D3*
Y30690D3*
X15440Y17440D3*
X17440D3*
D15*
X18440Y14690D3*
D16*
X19440D3*
D14*
X15440Y19190D3*
X17440D3*
D15*
X21690Y14690D3*
D16*
X22690D3*
D15*
X5190Y41440D3*
D16*
X6190D3*
D14*
X14690Y35690D3*
X16690D3*
X15440Y20940D3*
X17440D3*
D15*
X8440Y38190D3*
D16*
X9440D3*
D15*
X5190D3*
D16*
X6190D3*
D14*
X7440Y18190D3*
Y20190D3*
D15*
X5190Y34440D3*
D16*
X6190D3*
D14*
X9190Y18190D3*
Y20190D3*
D15*
X6940Y7940D3*
D16*
X7940D3*
D14*
X10190Y10190D3*
X8190D3*
D15*
X19690Y7940D3*
D16*
X20690D3*
D14*
X19940Y10440D3*
X17940D3*
D17*
X9653Y52440D3*
D18*
X8653D3*
X7653D3*
D17*
X5690Y49403D3*
D18*
Y48403D3*
Y47403D3*
D17*
X7940Y29940D3*
D18*
Y28940D3*
Y27940D3*
D17*
X5690Y31690D3*
D18*
Y30690D3*
D17*
X16690Y52440D3*
D18*
X15690D3*
X14690D3*
D17*
X12796D3*
D18*
X11796D3*
D17*
X19546D3*
D18*
X18546D3*
D17*
X5690Y28584D3*
D18*
Y27584D3*
D17*
Y45584D3*
D18*
Y44584D3*
D19*
X20940Y31690D3*
D20*
X18912Y31060D3*
X22968D3*
D19*
X20940Y25440D3*
D20*
X18912Y24810D3*
X22968D3*
D14*
X5190Y7940D3*
Y12015D3*
X22690Y7940D3*
Y12015D3*
D21*
X11440Y6190D3*
X13000D3*
X14560D3*
X16120D3*
D22*
X21940Y37940D3*
Y36690D3*
Y35440D3*
D23*
X14190Y38190D3*
D24*
X14690Y37690D3*
X15190Y38190D3*
D23*
X15690Y14690D3*
D24*
X15190Y15190D3*
X14690Y14690D3*
D23*
X11190Y38190D3*
D24*
X11690Y37690D3*
X12190Y38190D3*
D14*
X16440Y44690D3*
X20653D3*
X20690Y43190D3*
X16477D3*
X20690Y41690D3*
X16477D3*
X7440Y41190D3*
X11653D3*
X13440Y32440D3*
X17653D3*
X22440Y16940D3*
Y21153D3*
X20690Y12190D3*
X16477D3*
X20690Y16940D3*
Y21153D3*
X18940Y16940D3*
Y21153D3*
X7440Y42690D3*
X11653D3*
X7440Y45690D3*
X11653D3*
X20690Y40190D3*
X16477D3*
X11690Y44190D3*
X7477D3*
X13440Y33940D3*
X17653D3*
X14190Y22690D3*
Y26903D3*
X15940Y22690D3*
Y26903D3*
X16440Y38690D3*
X20653D3*
X8190Y32190D3*
X12403D3*
X8190Y35690D3*
X12403D3*
X8190Y33940D3*
X12403D3*
X7940Y26190D3*
Y21977D3*
X5690Y20940D3*
Y16727D3*
X6190Y26190D3*
Y21977D3*
X11190Y21440D3*
Y17227D3*
X8690Y12190D3*
Y16403D3*
X6690Y12190D3*
Y16403D3*
X13190Y21440D3*
Y17227D3*
X7440Y47190D3*
X11653D3*
X15940Y50190D3*
X11727D3*
X11690Y48690D3*
X7477D3*
X17190Y46690D3*
Y50903D3*
X18440Y49940D3*
X22653D3*
X18440Y48190D3*
X22653D3*
X22690Y46440D3*
X18477D3*
X16440Y10940D3*
X12227D3*
X16440Y9440D3*
X12227D3*
D25*
X12440Y23440D3*
D22*
Y24440D3*
Y25440D3*
Y26440D3*
Y27440D3*
Y28440D3*
Y29440D3*
X9440D3*
Y28440D3*
Y27440D3*
Y26440D3*
Y25440D3*
Y24440D3*
Y23440D3*
D25*
X10190Y15690D3*
D22*
Y14690D3*
Y13690D3*
Y12690D3*
X13190D3*
Y13690D3*
Y14690D3*
Y15690D3*
D25*
X12940Y48440D3*
D22*
Y47440D3*
Y46440D3*
Y45440D3*
X15940D3*
Y46440D3*
Y47440D3*
Y48440D3*
G36*
X17993Y5145D2*
X18092Y5046D1*
X18288D1*
X18387Y5145D1*
Y5735D1*
X18288Y5834D1*
X18092D1*
X17993Y5735D1*
Y5145D1*
G37*
D26*
X18690Y5440D3*
X19190D3*
G36*
X8493Y5145D2*
X8592Y5046D1*
X8788D1*
X8887Y5145D1*
Y5735D1*
X8788Y5834D1*
X8592D1*
X8493Y5735D1*
Y5145D1*
G37*
D26*
X9190Y5440D3*
X9690D3*
M02*
