G04 DipTrace 2.4.0.2*
%INTopSilk.gbr*%
%MOIN*%
%ADD10C,0.0098*%
%ADD70C,0.0062*%
%FSLAX44Y44*%
G04*
G70*
G90*
G75*
G01*
%LNTopSilk*%
%LPD*%
X15725Y44320D2*
D10*
X12655D1*
X15725Y43060D2*
X12655D1*
X15725Y44320D2*
Y43060D1*
X12655Y44320D2*
Y43060D1*
X15725Y42570D2*
X12655D1*
X15725Y41310D2*
X12655D1*
X15725Y42570D2*
Y41310D1*
X12655Y42570D2*
Y41310D1*
X15070Y28155D2*
Y31225D1*
X13810Y28155D2*
Y31225D1*
X15070Y28155D2*
X13810D1*
X15070Y31225D2*
X13810D1*
X14905Y16810D2*
X17975D1*
X14905Y18070D2*
X17975D1*
X14905Y16810D2*
Y18070D1*
X17975Y16810D2*
Y18070D1*
X17641Y14572D2*
Y14808D1*
X17523Y14690D2*
X17759D1*
X17941D2*
G02X17941Y14690I1000J0D01*
G01*
X14905Y18560D2*
X17975D1*
X14905Y19820D2*
X17975D1*
X14905Y18560D2*
Y19820D1*
X17975Y18560D2*
Y19820D1*
X20891Y14572D2*
Y14808D1*
X20773Y14690D2*
X21009D1*
X21191D2*
G02X21191Y14690I1000J0D01*
G01*
X4391Y41322D2*
Y41558D1*
X4273Y41440D2*
X4509D1*
X4691D2*
G02X4691Y41440I1000J0D01*
G01*
X14155Y35060D2*
X17225D1*
X14155Y36320D2*
X17225D1*
X14155Y35060D2*
Y36320D1*
X17225Y35060D2*
Y36320D1*
X14905Y20310D2*
X17975D1*
X14905Y21570D2*
X17975D1*
X14905Y20310D2*
Y21570D1*
X17975Y20310D2*
Y21570D1*
X7641Y38072D2*
Y38308D1*
X7523Y38190D2*
X7759D1*
X7941D2*
G02X7941Y38190I1000J0D01*
G01*
X4391Y38072D2*
Y38308D1*
X4273Y38190D2*
X4509D1*
X4691D2*
G02X4691Y38190I1000J0D01*
G01*
X8070Y17655D2*
Y20725D1*
X6810Y17655D2*
Y20725D1*
X8070Y17655D2*
X6810D1*
X8070Y20725D2*
X6810D1*
X4391Y34322D2*
Y34558D1*
X4273Y34440D2*
X4509D1*
X4691D2*
G02X4691Y34440I1000J0D01*
G01*
X9820Y17655D2*
Y20725D1*
X8560Y17655D2*
Y20725D1*
X9820Y17655D2*
X8560D1*
X9820Y20725D2*
X8560D1*
X6141Y7822D2*
Y8058D1*
X6023Y7940D2*
X6259D1*
X6441D2*
G02X6441Y7940I1000J0D01*
G01*
X10725Y10820D2*
X7655D1*
X10725Y9560D2*
X7655D1*
X10725Y10820D2*
Y9560D1*
X7655Y10820D2*
Y9560D1*
X18891Y7822D2*
Y8058D1*
X18773Y7940D2*
X19009D1*
X19191D2*
G02X19191Y7940I1000J0D01*
G01*
X20475Y11070D2*
X17405D1*
X20475Y9810D2*
X17405D1*
X20475Y11070D2*
Y9810D1*
X17405Y11070D2*
Y9810D1*
X10251Y51948D2*
X7054D1*
Y52932D1*
X10251D1*
Y51948D1*
X6182Y50001D2*
X5198D1*
Y46804D1*
X6182D1*
Y50001D1*
X8432Y30538D2*
X7448D1*
Y27342D1*
X8432D1*
Y30538D1*
X6182Y32288D2*
X5198D1*
Y30092D1*
X6182D1*
Y32288D1*
X17288Y51948D2*
X14092D1*
Y52932D1*
X17288D1*
Y51948D1*
X13395D2*
X11198D1*
Y52932D1*
X13395D1*
Y51948D1*
X20145D2*
X17948D1*
Y52932D1*
X20145D1*
Y51948D1*
X6182Y29182D2*
X5198D1*
Y26985D1*
X6182D1*
Y29182D1*
Y46182D2*
X5198D1*
Y43985D1*
X6182D1*
Y46182D1*
X18775Y31779D2*
Y32332D1*
X19168D1*
X23105Y31779D2*
Y32332D1*
X22712D1*
X19208D2*
G02X22731Y32332I1762J-1703D01*
G01*
X18775Y30322D2*
Y29788D1*
X19168D1*
X23105Y30322D2*
Y29788D1*
X22712D1*
X19208D2*
G03X22731Y29788I1762J1636D01*
G01*
X18775Y25529D2*
Y26082D1*
X19168D1*
X23105Y25529D2*
Y26082D1*
X22712D1*
X19208D2*
G02X22731Y26082I1762J-1703D01*
G01*
X18775Y24072D2*
Y23538D1*
X19168D1*
X23105Y24072D2*
Y23538D1*
X22712D1*
X19208D2*
G03X22731Y23538I1762J1636D01*
G01*
X4639Y8640D2*
Y11314D1*
X5741Y8640D2*
Y11314D1*
Y8640D2*
X4639D1*
X5741Y11314D2*
X4639D1*
X22139Y8640D2*
Y11314D1*
X23241Y8640D2*
Y11314D1*
Y8640D2*
X22139D1*
X23241Y11314D2*
X22139D1*
X16900Y7390D2*
X10660D1*
Y4390D1*
X16900D1*
Y7390D1*
X16120Y5290D2*
X11440D1*
Y4390D1*
X16120D1*
Y5290D1*
X22531Y37940D2*
X22137D1*
X22531Y36690D2*
X22137D1*
X22531Y35440D2*
X22137D1*
X13627Y38190D2*
G02X13627Y38190I1063J0D01*
G01*
X14218Y39135D2*
X15162D1*
X14375Y39174D2*
X14926D1*
X14127Y14690D2*
G02X14127Y14690I1063J0D01*
G01*
X15662Y13745D2*
X14718D1*
X15505Y13706D2*
X14954D1*
X10627Y38190D2*
G02X10627Y38190I1063J0D01*
G01*
X11218Y39135D2*
X12162D1*
X11375Y39174D2*
X11926D1*
X17170Y45241D2*
X19922D1*
X17170Y44139D2*
X19922D1*
X17170D2*
Y45241D1*
X19922Y44139D2*
Y45241D1*
X19960Y42639D2*
X17208D1*
X19960Y43741D2*
X17208D1*
X19960D2*
Y42639D1*
X17208Y43741D2*
Y42639D1*
X19960Y41139D2*
X17208D1*
X19960Y42241D2*
X17208D1*
X19960D2*
Y41139D1*
X17208Y42241D2*
Y41139D1*
X8170Y41741D2*
X10922D1*
X8170Y40639D2*
X10922D1*
X8170D2*
Y41741D1*
X10922Y40639D2*
Y41741D1*
X14170Y32991D2*
X16922D1*
X14170Y31889D2*
X16922D1*
X14170D2*
Y32991D1*
X16922Y31889D2*
Y32991D1*
X21889Y17670D2*
Y20422D1*
X22991Y17670D2*
Y20422D1*
Y17670D2*
X21889D1*
X22991Y20422D2*
X21889D1*
X19960Y11639D2*
X17208D1*
X19960Y12741D2*
X17208D1*
X19960D2*
Y11639D1*
X17208Y12741D2*
Y11639D1*
X20139Y17670D2*
Y20422D1*
X21241Y17670D2*
Y20422D1*
Y17670D2*
X20139D1*
X21241Y20422D2*
X20139D1*
X18389Y17670D2*
Y20422D1*
X19491Y17670D2*
Y20422D1*
Y17670D2*
X18389D1*
X19491Y20422D2*
X18389D1*
X8170Y43241D2*
X10922D1*
X8170Y42139D2*
X10922D1*
X8170D2*
Y43241D1*
X10922Y42139D2*
Y43241D1*
X8170Y46241D2*
X10922D1*
X8170Y45139D2*
X10922D1*
X8170D2*
Y46241D1*
X10922Y45139D2*
Y46241D1*
X19960Y39639D2*
X17208D1*
X19960Y40741D2*
X17208D1*
X19960D2*
Y39639D1*
X17208Y40741D2*
Y39639D1*
X10960Y43639D2*
X8208D1*
X10960Y44741D2*
X8208D1*
X10960D2*
Y43639D1*
X8208Y44741D2*
Y43639D1*
X14170Y34491D2*
X16922D1*
X14170Y33389D2*
X16922D1*
X14170D2*
Y34491D1*
X16922Y33389D2*
Y34491D1*
X13639Y23420D2*
Y26172D1*
X14741Y23420D2*
Y26172D1*
Y23420D2*
X13639D1*
X14741Y26172D2*
X13639D1*
X15389Y23420D2*
Y26172D1*
X16491Y23420D2*
Y26172D1*
Y23420D2*
X15389D1*
X16491Y26172D2*
X15389D1*
X17170Y39241D2*
X19922D1*
X17170Y38139D2*
X19922D1*
X17170D2*
Y39241D1*
X19922Y38139D2*
Y39241D1*
X8920Y32741D2*
X11672D1*
X8920Y31639D2*
X11672D1*
X8920D2*
Y32741D1*
X11672Y31639D2*
Y32741D1*
X8920Y36241D2*
X11672D1*
X8920Y35139D2*
X11672D1*
X8920D2*
Y36241D1*
X11672Y35139D2*
Y36241D1*
X8920Y34491D2*
X11672D1*
X8920Y33389D2*
X11672D1*
X8920D2*
Y34491D1*
X11672Y33389D2*
Y34491D1*
X8491Y25460D2*
Y22708D1*
X7389Y25460D2*
Y22708D1*
Y25460D2*
X8491D1*
X7389Y22708D2*
X8491D1*
X6241Y20210D2*
Y17458D1*
X5139Y20210D2*
Y17458D1*
Y20210D2*
X6241D1*
X5139Y17458D2*
X6241D1*
X6741Y25460D2*
Y22708D1*
X5639Y25460D2*
Y22708D1*
Y25460D2*
X6741D1*
X5639Y22708D2*
X6741D1*
X11741Y20710D2*
Y17958D1*
X10639Y20710D2*
Y17958D1*
Y20710D2*
X11741D1*
X10639Y17958D2*
X11741D1*
X8139Y12920D2*
Y15672D1*
X9241Y12920D2*
Y15672D1*
Y12920D2*
X8139D1*
X9241Y15672D2*
X8139D1*
X6139Y12920D2*
Y15672D1*
X7241Y12920D2*
Y15672D1*
Y12920D2*
X6139D1*
X7241Y15672D2*
X6139D1*
X13741Y20710D2*
Y17958D1*
X12639Y20710D2*
Y17958D1*
Y20710D2*
X13741D1*
X12639Y17958D2*
X13741D1*
X8170Y47741D2*
X10922D1*
X8170Y46639D2*
X10922D1*
X8170D2*
Y47741D1*
X10922Y46639D2*
Y47741D1*
X15210Y49639D2*
X12458D1*
X15210Y50741D2*
X12458D1*
X15210D2*
Y49639D1*
X12458Y50741D2*
Y49639D1*
X10960Y48139D2*
X8208D1*
X10960Y49241D2*
X8208D1*
X10960D2*
Y48139D1*
X8208Y49241D2*
Y48139D1*
X16639Y47420D2*
Y50172D1*
X17741Y47420D2*
Y50172D1*
Y47420D2*
X16639D1*
X17741Y50172D2*
X16639D1*
X19170Y50491D2*
X21922D1*
X19170Y49389D2*
X21922D1*
X19170D2*
Y50491D1*
X21922Y49389D2*
Y50491D1*
X19170Y48741D2*
X21922D1*
X19170Y47639D2*
X21922D1*
X19170D2*
Y48741D1*
X21922Y47639D2*
Y48741D1*
X21960Y45889D2*
X19208D1*
X21960Y46991D2*
X19208D1*
X21960D2*
Y45889D1*
X19208Y46991D2*
Y45889D1*
X15710Y10389D2*
X12958D1*
X15710Y11491D2*
X12958D1*
X15710D2*
Y10389D1*
X12958Y11491D2*
Y10389D1*
X15710Y8889D2*
X12958D1*
X15710Y9991D2*
X12958D1*
X15710D2*
Y8889D1*
X12958Y9991D2*
Y8889D1*
X9916Y22582D2*
Y30298D1*
X11964D2*
X9916D1*
X11964Y22582D2*
Y30298D1*
Y22582D2*
X11176D1*
X9916D2*
X10704D1*
X11176D2*
G03X10704Y22582I-236J0D01*
G01*
X12714Y16159D2*
Y12221D1*
X10666D2*
X12714D1*
X10666Y16159D2*
Y12221D1*
Y16159D2*
X11454D1*
X12714D2*
X11926D1*
X11454D2*
G03X11926Y16159I236J0D01*
G01*
X15464Y48909D2*
Y44971D1*
X13416D2*
X15464D1*
X13416Y48909D2*
Y44971D1*
Y48909D2*
X14204D1*
X15464D2*
X14676D1*
X14204D2*
G03X14676Y48909I236J0D01*
G01*
X17934Y4909D2*
G02X19446Y4909I756J666D01*
G01*
X17934D1*
X8434D2*
G02X9946Y4909I756J666D01*
G01*
X8434D1*
X13779Y43838D2*
D70*
X13818Y43858D1*
X13875Y43915D1*
Y43513D1*
X14114Y43915D2*
X14056Y43896D1*
X14018Y43838D1*
X13999Y43743D1*
Y43685D1*
X14018Y43590D1*
X14056Y43532D1*
X14114Y43513D1*
X14152D1*
X14209Y43532D1*
X14247Y43590D1*
X14267Y43685D1*
Y43743D1*
X14247Y43838D1*
X14209Y43896D1*
X14152Y43915D1*
X14114D1*
X14247Y43838D2*
X14018Y43590D1*
X14390Y43781D2*
Y43513D1*
Y43705D2*
X14448Y43762D1*
X14486Y43781D1*
X14543D1*
X14582Y43762D1*
X14601Y43705D1*
Y43513D1*
X13770Y42088D2*
X13808Y42108D1*
X13866Y42165D1*
Y41763D1*
X14104Y42165D2*
X14047Y42146D1*
X14008Y42088D1*
X13989Y41993D1*
Y41935D1*
X14008Y41840D1*
X14047Y41782D1*
X14104Y41763D1*
X14142D1*
X14200Y41782D1*
X14238Y41840D1*
X14257Y41935D1*
Y41993D1*
X14238Y42088D1*
X14200Y42146D1*
X14142Y42165D1*
X14104D1*
X14238Y42088D2*
X14008Y41840D1*
X14381Y42031D2*
Y41629D1*
Y41974D2*
X14419Y42012D1*
X14457Y42031D1*
X14514D1*
X14553Y42012D1*
X14591Y41974D1*
X14610Y41916D1*
Y41878D1*
X14591Y41821D1*
X14553Y41782D1*
X14514Y41763D1*
X14457D1*
X14419Y41782D1*
X14381Y41821D1*
X14292Y29279D2*
X14272Y29318D1*
X14215Y29375D1*
X14617D1*
X14215Y29614D2*
X14234Y29556D1*
X14292Y29518D1*
X14387Y29499D1*
X14445D1*
X14540Y29518D1*
X14598Y29556D1*
X14617Y29614D1*
Y29652D1*
X14598Y29709D1*
X14540Y29747D1*
X14445Y29767D1*
X14387D1*
X14292Y29747D1*
X14234Y29709D1*
X14215Y29652D1*
Y29614D1*
X14292Y29747D2*
X14540Y29518D1*
X14349Y29890D2*
X14617D1*
X14425D2*
X14368Y29948D1*
X14349Y29986D1*
Y30043D1*
X14368Y30082D1*
X14425Y30101D1*
X14617D1*
X15882Y17569D2*
Y17588D1*
X15901Y17627D1*
X15920Y17646D1*
X15958Y17665D1*
X16035D1*
X16073Y17646D1*
X16092Y17627D1*
X16111Y17588D1*
Y17550D1*
X16092Y17512D1*
X16054Y17455D1*
X15862Y17263D1*
X16130D1*
X16273Y17302D2*
X16254Y17282D1*
X16273Y17263D1*
X16292Y17282D1*
X16273Y17302D1*
X16435Y17569D2*
Y17588D1*
X16454Y17627D1*
X16473Y17646D1*
X16512Y17665D1*
X16588D1*
X16626Y17646D1*
X16645Y17627D1*
X16665Y17588D1*
Y17550D1*
X16645Y17512D1*
X16607Y17455D1*
X16416Y17263D1*
X16684D1*
X16807Y17531D2*
Y17263D1*
Y17455D2*
X16865Y17512D1*
X16903Y17531D1*
X16960D1*
X16999Y17512D1*
X17018Y17455D1*
Y17263D1*
X18254Y16180D2*
Y16199D1*
X18273Y16237D1*
X18292Y16256D1*
X18331Y16275D1*
X18407D1*
X18445Y16256D1*
X18464Y16237D1*
X18484Y16199D1*
Y16161D1*
X18464Y16122D1*
X18426Y16065D1*
X18235Y15874D1*
X18503D1*
X18646Y16180D2*
Y16199D1*
X18665Y16237D1*
X18684Y16256D1*
X18722Y16275D1*
X18799D1*
X18837Y16256D1*
X18856Y16237D1*
X18875Y16199D1*
Y16161D1*
X18856Y16122D1*
X18818Y16065D1*
X18626Y15874D1*
X18894D1*
X19018Y16142D2*
Y15950D1*
X19037Y15893D1*
X19075Y15874D1*
X19133D1*
X19171Y15893D1*
X19228Y15950D1*
Y16142D2*
Y15874D1*
X16116Y19013D2*
Y19415D1*
X15924Y19147D1*
X16211D1*
X16411Y19013D2*
X16602Y19415D1*
X16335D1*
X16726Y19281D2*
Y18879D1*
Y19224D2*
X16764Y19262D1*
X16802Y19281D1*
X16860D1*
X16898Y19262D1*
X16936Y19224D1*
X16956Y19166D1*
Y19128D1*
X16936Y19071D1*
X16898Y19032D1*
X16860Y19013D1*
X16802D1*
X16764Y19032D1*
X16726Y19071D1*
X21504Y16180D2*
Y16199D1*
X21523Y16237D1*
X21542Y16256D1*
X21581Y16275D1*
X21657D1*
X21695Y16256D1*
X21714Y16237D1*
X21734Y16199D1*
Y16161D1*
X21714Y16122D1*
X21676Y16065D1*
X21485Y15874D1*
X21753D1*
X21896Y16180D2*
Y16199D1*
X21915Y16237D1*
X21934Y16256D1*
X21972Y16275D1*
X22049D1*
X22087Y16256D1*
X22106Y16237D1*
X22125Y16199D1*
Y16161D1*
X22106Y16122D1*
X22068Y16065D1*
X21876Y15874D1*
X22144D1*
X22268Y16142D2*
Y15950D1*
X22287Y15893D1*
X22325Y15874D1*
X22383D1*
X22421Y15893D1*
X22478Y15950D1*
Y16142D2*
Y15874D1*
X5004Y42930D2*
Y42949D1*
X5023Y42987D1*
X5042Y43006D1*
X5081Y43025D1*
X5157D1*
X5195Y43006D1*
X5214Y42987D1*
X5234Y42949D1*
Y42911D1*
X5214Y42872D1*
X5176Y42815D1*
X4985Y42624D1*
X5253D1*
X5396Y42930D2*
Y42949D1*
X5415Y42987D1*
X5434Y43006D1*
X5472Y43025D1*
X5549D1*
X5587Y43006D1*
X5606Y42987D1*
X5625Y42949D1*
Y42911D1*
X5606Y42872D1*
X5568Y42815D1*
X5376Y42624D1*
X5644D1*
X5768Y42892D2*
Y42700D1*
X5787Y42643D1*
X5825Y42624D1*
X5883D1*
X5921Y42643D1*
X5978Y42700D1*
Y42892D2*
Y42624D1*
X15017Y35819D2*
Y35838D1*
X15036Y35877D1*
X15055Y35896D1*
X15094Y35915D1*
X15170D1*
X15208Y35896D1*
X15227Y35877D1*
X15247Y35838D1*
Y35800D1*
X15227Y35762D1*
X15189Y35705D1*
X14998Y35513D1*
X15266D1*
X15408Y35819D2*
Y35838D1*
X15428Y35877D1*
X15447Y35896D1*
X15485Y35915D1*
X15561D1*
X15600Y35896D1*
X15619Y35877D1*
X15638Y35838D1*
Y35800D1*
X15619Y35762D1*
X15580Y35705D1*
X15389Y35513D1*
X15657D1*
X15895Y35915D2*
X15838Y35896D1*
X15800Y35838D1*
X15780Y35743D1*
Y35685D1*
X15800Y35590D1*
X15838Y35532D1*
X15895Y35513D1*
X15933D1*
X15991Y35532D1*
X16029Y35590D1*
X16048Y35685D1*
Y35743D1*
X16029Y35838D1*
X15991Y35896D1*
X15933Y35915D1*
X15895D1*
X16029Y35838D2*
X15800Y35590D1*
X16172Y35781D2*
Y35513D1*
Y35705D2*
X16229Y35762D1*
X16268Y35781D1*
X16325D1*
X16363Y35762D1*
X16382Y35705D1*
Y35513D1*
X16116Y20763D2*
Y21165D1*
X15924Y20897D1*
X16211D1*
X16411Y20763D2*
X16602Y21165D1*
X16335D1*
X16726Y21031D2*
Y20629D1*
Y20974D2*
X16764Y21012D1*
X16802Y21031D1*
X16860D1*
X16898Y21012D1*
X16936Y20974D1*
X16956Y20916D1*
Y20878D1*
X16936Y20821D1*
X16898Y20782D1*
X16860Y20763D1*
X16802D1*
X16764Y20782D1*
X16726Y20821D1*
X8254Y39680D2*
Y39699D1*
X8273Y39737D1*
X8292Y39756D1*
X8331Y39775D1*
X8407D1*
X8445Y39756D1*
X8464Y39737D1*
X8484Y39699D1*
Y39661D1*
X8464Y39622D1*
X8426Y39565D1*
X8235Y39374D1*
X8503D1*
X8646Y39680D2*
Y39699D1*
X8665Y39737D1*
X8684Y39756D1*
X8722Y39775D1*
X8799D1*
X8837Y39756D1*
X8856Y39737D1*
X8875Y39699D1*
Y39661D1*
X8856Y39622D1*
X8818Y39565D1*
X8626Y39374D1*
X8894D1*
X9018Y39642D2*
Y39450D1*
X9037Y39393D1*
X9075Y39374D1*
X9133D1*
X9171Y39393D1*
X9228Y39450D1*
Y39642D2*
Y39374D1*
X5004Y39680D2*
Y39699D1*
X5023Y39737D1*
X5042Y39756D1*
X5081Y39775D1*
X5157D1*
X5195Y39756D1*
X5214Y39737D1*
X5234Y39699D1*
Y39661D1*
X5214Y39622D1*
X5176Y39565D1*
X4985Y39374D1*
X5253D1*
X5396Y39680D2*
Y39699D1*
X5415Y39737D1*
X5434Y39756D1*
X5472Y39775D1*
X5549D1*
X5587Y39756D1*
X5606Y39737D1*
X5625Y39699D1*
Y39661D1*
X5606Y39622D1*
X5568Y39565D1*
X5376Y39374D1*
X5644D1*
X5768Y39642D2*
Y39450D1*
X5787Y39393D1*
X5825Y39374D1*
X5883D1*
X5921Y39393D1*
X5978Y39450D1*
Y39642D2*
Y39374D1*
X7617Y18866D2*
X7215D1*
X7483Y18674D1*
Y18961D1*
X7617Y19161D2*
X7215Y19352D1*
Y19085D1*
X7349Y19476D2*
X7751D1*
X7406D2*
X7368Y19514D1*
X7349Y19552D1*
Y19610D1*
X7368Y19648D1*
X7406Y19686D1*
X7464Y19706D1*
X7502D1*
X7559Y19686D1*
X7598Y19648D1*
X7617Y19610D1*
Y19552D1*
X7598Y19514D1*
X7559Y19476D1*
X5004Y35930D2*
Y35949D1*
X5023Y35987D1*
X5042Y36006D1*
X5081Y36025D1*
X5157D1*
X5195Y36006D1*
X5214Y35987D1*
X5234Y35949D1*
Y35911D1*
X5214Y35872D1*
X5176Y35815D1*
X4985Y35624D1*
X5253D1*
X5396Y35930D2*
Y35949D1*
X5415Y35987D1*
X5434Y36006D1*
X5472Y36025D1*
X5549D1*
X5587Y36006D1*
X5606Y35987D1*
X5625Y35949D1*
Y35911D1*
X5606Y35872D1*
X5568Y35815D1*
X5376Y35624D1*
X5644D1*
X5768Y35892D2*
Y35700D1*
X5787Y35643D1*
X5825Y35624D1*
X5883D1*
X5921Y35643D1*
X5978Y35700D1*
Y35892D2*
Y35624D1*
X9042Y18574D2*
X9022Y18612D1*
X8965Y18670D1*
X9367D1*
X8965Y18908D2*
X8984Y18851D1*
X9042Y18812D1*
X9137Y18793D1*
X9195D1*
X9290Y18812D1*
X9348Y18851D1*
X9367Y18908D1*
Y18946D1*
X9348Y19004D1*
X9290Y19042D1*
X9195Y19061D1*
X9137D1*
X9042Y19042D1*
X8984Y19004D1*
X8965Y18946D1*
Y18908D1*
X9042Y19042D2*
X9290Y18812D1*
X8965Y19300D2*
X8984Y19242D1*
X9042Y19204D1*
X9137Y19185D1*
X9195D1*
X9290Y19204D1*
X9348Y19242D1*
X9367Y19300D1*
Y19338D1*
X9348Y19395D1*
X9290Y19433D1*
X9195Y19453D1*
X9137D1*
X9042Y19433D1*
X8984Y19395D1*
X8965Y19338D1*
Y19300D1*
X9042Y19433D2*
X9290Y19204D1*
X9099Y19576D2*
X9501D1*
X9156D2*
X9118Y19615D1*
X9099Y19653D1*
Y19710D1*
X9118Y19749D1*
X9156Y19787D1*
X9214Y19806D1*
X9252D1*
X9309Y19787D1*
X9348Y19749D1*
X9367Y19710D1*
Y19653D1*
X9348Y19615D1*
X9309Y19576D1*
X6821Y9449D2*
X6859Y9468D1*
X6917Y9525D1*
Y9124D1*
X7155Y9525D2*
X7098Y9506D1*
X7059Y9449D1*
X7040Y9353D1*
Y9296D1*
X7059Y9200D1*
X7098Y9143D1*
X7155Y9124D1*
X7193D1*
X7251Y9143D1*
X7289Y9200D1*
X7308Y9296D1*
Y9353D1*
X7289Y9449D1*
X7251Y9506D1*
X7193Y9525D1*
X7155D1*
X7289Y9449D2*
X7059Y9200D1*
X7432Y9392D2*
Y9200D1*
X7451Y9143D1*
X7489Y9124D1*
X7547D1*
X7585Y9143D1*
X7642Y9200D1*
Y9392D2*
Y9124D1*
X8584Y10338D2*
X8622Y10358D1*
X8680Y10415D1*
Y10013D1*
X8918Y10415D2*
X8861Y10396D1*
X8822Y10338D1*
X8803Y10243D1*
Y10185D1*
X8822Y10090D1*
X8861Y10032D1*
X8918Y10013D1*
X8956D1*
X9014Y10032D1*
X9052Y10090D1*
X9071Y10185D1*
Y10243D1*
X9052Y10338D1*
X9014Y10396D1*
X8956Y10415D1*
X8918D1*
X9052Y10338D2*
X8822Y10090D1*
X9309Y10415D2*
X9252Y10396D1*
X9214Y10338D1*
X9194Y10243D1*
Y10185D1*
X9214Y10090D1*
X9252Y10032D1*
X9309Y10013D1*
X9347D1*
X9405Y10032D1*
X9443Y10090D1*
X9462Y10185D1*
Y10243D1*
X9443Y10338D1*
X9405Y10396D1*
X9347Y10415D1*
X9309D1*
X9443Y10338D2*
X9214Y10090D1*
X9586Y10281D2*
Y10013D1*
Y10205D2*
X9643Y10262D1*
X9682Y10281D1*
X9739D1*
X9777Y10262D1*
X9796Y10205D1*
Y10013D1*
X19571Y9449D2*
X19609Y9468D1*
X19667Y9525D1*
Y9124D1*
X19905Y9525D2*
X19848Y9506D1*
X19809Y9449D1*
X19790Y9353D1*
Y9296D1*
X19809Y9200D1*
X19848Y9143D1*
X19905Y9124D1*
X19943D1*
X20001Y9143D1*
X20039Y9200D1*
X20058Y9296D1*
Y9353D1*
X20039Y9449D1*
X20001Y9506D1*
X19943Y9525D1*
X19905D1*
X20039Y9449D2*
X19809Y9200D1*
X20182Y9392D2*
Y9200D1*
X20201Y9143D1*
X20239Y9124D1*
X20297D1*
X20335Y9143D1*
X20392Y9200D1*
Y9392D2*
Y9124D1*
X18334Y10588D2*
X18372Y10608D1*
X18430Y10665D1*
Y10263D1*
X18668Y10665D2*
X18611Y10646D1*
X18572Y10588D1*
X18553Y10493D1*
Y10435D1*
X18572Y10340D1*
X18611Y10282D1*
X18668Y10263D1*
X18706D1*
X18764Y10282D1*
X18802Y10340D1*
X18821Y10435D1*
Y10493D1*
X18802Y10588D1*
X18764Y10646D1*
X18706Y10665D1*
X18668D1*
X18802Y10588D2*
X18572Y10340D1*
X19059Y10665D2*
X19002Y10646D1*
X18964Y10588D1*
X18944Y10493D1*
Y10435D1*
X18964Y10340D1*
X19002Y10282D1*
X19059Y10263D1*
X19097D1*
X19155Y10282D1*
X19193Y10340D1*
X19212Y10435D1*
Y10493D1*
X19193Y10588D1*
X19155Y10646D1*
X19097Y10665D1*
X19059D1*
X19193Y10588D2*
X18964Y10340D1*
X19336Y10531D2*
Y10263D1*
Y10455D2*
X19393Y10512D1*
X19432Y10531D1*
X19489D1*
X19527Y10512D1*
X19546Y10455D1*
Y10263D1*
X7523Y53307D2*
X7695D1*
X7752Y53326D1*
X7771Y53346D1*
X7790Y53384D1*
Y53441D1*
X7771Y53479D1*
X7752Y53499D1*
X7695Y53518D1*
X7523D1*
Y53116D1*
X7914Y53518D2*
Y53116D1*
X8182Y53518D2*
Y53116D1*
X7914Y53326D2*
X8182D1*
X8694Y53518D2*
X8847Y53116D1*
X9000Y53518D1*
X9239D2*
X9200Y53499D1*
X9162Y53460D1*
X9143Y53422D1*
X9124Y53365D1*
Y53269D1*
X9143Y53212D1*
X9162Y53173D1*
X9200Y53135D1*
X9239Y53116D1*
X9315D1*
X9353Y53135D1*
X9392Y53173D1*
X9411Y53212D1*
X9430Y53269D1*
Y53365D1*
X9411Y53422D1*
X9392Y53460D1*
X9353Y53499D1*
X9315Y53518D1*
X9239D1*
X9553D2*
Y53116D1*
X9783D1*
X4804Y47201D2*
Y47373D1*
X4784Y47431D1*
X4765Y47450D1*
X4727Y47469D1*
X4689D1*
X4651Y47450D1*
X4631Y47431D1*
X4612Y47373D1*
Y47201D1*
X5014D1*
X4804Y47335D2*
X5014Y47469D1*
X4612Y47841D2*
Y47593D1*
X5014D1*
Y47841D1*
X4804Y47593D2*
Y47746D1*
X4612Y47965D2*
X5014Y48118D1*
X4612Y48271D1*
X5014Y49089D2*
X4612D1*
X5014Y48936D1*
X4612Y48783D1*
X5014D1*
X4612Y49212D2*
X5014D1*
X4612Y49336D2*
X5014Y49604D1*
X4612D2*
X5014Y49336D1*
X7073Y27552D2*
Y27725D1*
X7054Y27782D1*
X7034Y27801D1*
X6996Y27820D1*
X6939D1*
X6901Y27801D1*
X6881Y27782D1*
X6862Y27725D1*
Y27552D1*
X7264D1*
X7054Y27944D2*
Y28116D1*
X7034Y28173D1*
X7015Y28193D1*
X6977Y28212D1*
X6939D1*
X6901Y28193D1*
X6881Y28173D1*
X6862Y28116D1*
Y27944D1*
X7264D1*
X7054Y28078D2*
X7264Y28212D1*
X6862Y28584D2*
Y28335D1*
X7264D1*
Y28584D1*
X7054Y28335D2*
Y28488D1*
X6958Y29383D2*
X6920Y29364D1*
X6881Y29325D1*
X6862Y29287D1*
Y29211D1*
X6881Y29172D1*
X6920Y29134D1*
X6958Y29115D1*
X7015Y29096D1*
X7111D1*
X7168Y29115D1*
X7207Y29134D1*
X7245Y29172D1*
X7264Y29211D1*
Y29287D1*
X7245Y29325D1*
X7207Y29364D1*
X7168Y29383D1*
X7111D1*
Y29287D1*
X7264Y29813D2*
X6862Y29659D1*
X7264Y29506D1*
X7130Y29564D2*
Y29755D1*
X6862Y29936D2*
X7264D1*
X6862Y30328D2*
X7264D1*
X6862Y30060D1*
X7264D1*
X4823Y30222D2*
Y30395D1*
X4804Y30452D1*
X4784Y30471D1*
X4746Y30490D1*
X4689D1*
X4651Y30471D1*
X4631Y30452D1*
X4612Y30395D1*
Y30222D1*
X5014D1*
X4804Y30614D2*
Y30786D1*
X4784Y30843D1*
X4765Y30863D1*
X4727Y30882D1*
X4689D1*
X4651Y30863D1*
X4631Y30843D1*
X4612Y30786D1*
Y30614D1*
X5014D1*
X4804Y30748D2*
X5014Y30882D1*
X4612Y31254D2*
Y31005D1*
X5014D1*
Y31254D1*
X4804Y31005D2*
Y31158D1*
X4612Y31766D2*
X5014D1*
X4612Y32158D2*
X5014D1*
X4612Y31890D1*
X5014D1*
X14331Y53518D2*
Y53116D1*
X14561D1*
X14684Y53518D2*
Y53116D1*
X15076Y53518D2*
Y53116D1*
X14808Y53518D1*
Y53116D1*
X15448Y53518D2*
X15199D1*
Y53116D1*
X15448D1*
X15199Y53326D2*
X15352D1*
X15960Y53518D2*
X16113Y53116D1*
X16266Y53518D1*
X16505D2*
X16466Y53499D1*
X16428Y53460D1*
X16409Y53422D1*
X16390Y53365D1*
Y53269D1*
X16409Y53212D1*
X16428Y53173D1*
X16466Y53135D1*
X16505Y53116D1*
X16581D1*
X16619Y53135D1*
X16658Y53173D1*
X16677Y53212D1*
X16696Y53269D1*
Y53365D1*
X16677Y53422D1*
X16658Y53460D1*
X16619Y53499D1*
X16581Y53518D1*
X16505D1*
X16819D2*
Y53116D1*
X17049D1*
X11166Y53307D2*
X11338D1*
X11395Y53326D1*
X11415Y53346D1*
X11434Y53384D1*
Y53441D1*
X11415Y53479D1*
X11395Y53499D1*
X11338Y53518D1*
X11166D1*
Y53116D1*
X11557Y53518D2*
Y53116D1*
X11825Y53518D2*
Y53116D1*
X11557Y53326D2*
X11825D1*
X12453Y53518D2*
X12414Y53499D1*
X12376Y53460D1*
X12357Y53422D1*
X12338Y53365D1*
Y53269D1*
X12357Y53212D1*
X12376Y53173D1*
X12414Y53135D1*
X12453Y53116D1*
X12529D1*
X12567Y53135D1*
X12606Y53173D1*
X12625Y53212D1*
X12644Y53269D1*
Y53365D1*
X12625Y53422D1*
X12606Y53460D1*
X12567Y53499D1*
X12529Y53518D1*
X12453D1*
X12767D2*
Y53231D1*
X12786Y53173D1*
X12825Y53135D1*
X12882Y53116D1*
X12920D1*
X12978Y53135D1*
X13016Y53173D1*
X13035Y53231D1*
Y53518D1*
X13293D2*
Y53116D1*
X13159Y53518D2*
X13427D1*
X17687D2*
Y53116D1*
X17917D1*
X18040Y53518D2*
Y53116D1*
X18432Y53518D2*
Y53116D1*
X18164Y53518D1*
Y53116D1*
X18804Y53518D2*
X18555D1*
Y53116D1*
X18804D1*
X18555Y53326D2*
X18708D1*
X19431Y53518D2*
X19393Y53499D1*
X19355Y53460D1*
X19335Y53422D1*
X19316Y53365D1*
Y53269D1*
X19335Y53212D1*
X19355Y53173D1*
X19393Y53135D1*
X19431Y53116D1*
X19508D1*
X19546Y53135D1*
X19584Y53173D1*
X19603Y53212D1*
X19622Y53269D1*
Y53365D1*
X19603Y53422D1*
X19584Y53460D1*
X19546Y53499D1*
X19508Y53518D1*
X19431D1*
X19746D2*
Y53231D1*
X19765Y53173D1*
X19803Y53135D1*
X19861Y53116D1*
X19899D1*
X19956Y53135D1*
X19995Y53173D1*
X20014Y53231D1*
Y53518D1*
X20271D2*
Y53116D1*
X20137Y53518D2*
X20405D1*
X4823Y26767D2*
Y26940D1*
X4804Y26997D1*
X4784Y27016D1*
X4746Y27035D1*
X4689D1*
X4651Y27016D1*
X4631Y26997D1*
X4612Y26940D1*
Y26767D1*
X5014D1*
X4804Y27159D2*
Y27331D1*
X4784Y27388D1*
X4765Y27408D1*
X4727Y27427D1*
X4689D1*
X4651Y27408D1*
X4631Y27388D1*
X4612Y27331D1*
Y27159D1*
X5014D1*
X4804Y27293D2*
X5014Y27427D1*
X4612Y27799D2*
Y27550D1*
X5014D1*
Y27799D1*
X4804Y27550D2*
Y27703D1*
X4612Y28426D2*
X4631Y28388D1*
X4670Y28350D1*
X4708Y28330D1*
X4765Y28311D1*
X4861D1*
X4918Y28330D1*
X4957Y28350D1*
X4995Y28388D1*
X5014Y28426D1*
Y28503D1*
X4995Y28541D1*
X4957Y28579D1*
X4918Y28598D1*
X4861Y28617D1*
X4765D1*
X4708Y28598D1*
X4670Y28579D1*
X4631Y28541D1*
X4612Y28503D1*
Y28426D1*
Y28741D2*
X4899D1*
X4957Y28760D1*
X4995Y28798D1*
X5014Y28856D1*
Y28894D1*
X4995Y28951D1*
X4957Y28990D1*
X4899Y29009D1*
X4612D1*
Y29266D2*
X5014D1*
X4612Y29132D2*
Y29400D1*
X4804Y44097D2*
Y44269D1*
X4784Y44327D1*
X4765Y44346D1*
X4727Y44365D1*
X4689D1*
X4651Y44346D1*
X4631Y44327D1*
X4612Y44269D1*
Y44097D1*
X5014D1*
X4804Y44231D2*
X5014Y44365D1*
X4612Y44737D2*
Y44489D1*
X5014D1*
Y44737D1*
X4804Y44489D2*
Y44642D1*
X4612Y44861D2*
X5014Y45014D1*
X4612Y45167D1*
Y45679D2*
X5014D1*
X4612Y46070D2*
X5014D1*
X4612Y45802D1*
X5014D1*
X20497Y33608D2*
X20458Y33646D1*
X20401Y33665D1*
X20325D1*
X20267Y33646D1*
X20229Y33608D1*
Y33570D1*
X20248Y33531D1*
X20267Y33512D1*
X20305Y33493D1*
X20420Y33455D1*
X20458Y33436D1*
X20477Y33416D1*
X20497Y33378D1*
Y33321D1*
X20458Y33283D1*
X20401Y33263D1*
X20325D1*
X20267Y33283D1*
X20229Y33321D1*
X20869Y33665D2*
X20620D1*
Y33263D1*
X20869D1*
X20620Y33474D2*
X20773D1*
X21260Y33665D2*
Y33263D1*
X20992Y33665D1*
Y33263D1*
X21383Y33665D2*
Y33263D1*
X21517D1*
X21575Y33283D1*
X21613Y33321D1*
X21632Y33359D1*
X21651Y33416D1*
Y33512D1*
X21632Y33570D1*
X21613Y33608D1*
X21575Y33646D1*
X21517Y33665D1*
X21383D1*
X19837Y27224D2*
X20009D1*
X20067Y27243D1*
X20086Y27262D1*
X20105Y27300D1*
Y27339D1*
X20086Y27377D1*
X20067Y27396D1*
X20009Y27415D1*
X19837D1*
Y27013D1*
X19971Y27224D2*
X20105Y27013D1*
X20477Y27415D2*
X20229D1*
Y27013D1*
X20477D1*
X20229Y27224D2*
X20382D1*
X20735Y27415D2*
Y27013D1*
X20601Y27415D2*
X20869D1*
X20992D2*
Y27128D1*
X21011Y27071D1*
X21050Y27033D1*
X21107Y27013D1*
X21145D1*
X21202Y27033D1*
X21241Y27071D1*
X21260Y27128D1*
Y27415D1*
X21383Y27224D2*
X21555D1*
X21613Y27243D1*
X21632Y27262D1*
X21651Y27300D1*
Y27339D1*
X21632Y27377D1*
X21613Y27396D1*
X21555Y27415D1*
X21383D1*
Y27013D1*
X21517Y27224D2*
X21651Y27013D1*
X22043Y27415D2*
Y27013D1*
X21775Y27415D1*
Y27013D1*
X4965Y9906D2*
Y9657D1*
X5367D1*
X5156D2*
Y9810D1*
X4965Y10030D2*
X5367D1*
Y10202D1*
X5347Y10260D1*
X5328Y10279D1*
X5290Y10298D1*
X5233D1*
X5194Y10279D1*
X5175Y10260D1*
X5156Y10202D1*
X5137Y10260D1*
X5118Y10279D1*
X5080Y10298D1*
X5041D1*
X5003Y10279D1*
X4984Y10260D1*
X4965Y10202D1*
Y10030D1*
X5156D2*
Y10202D1*
X22465Y9906D2*
Y9657D1*
X22867D1*
X22656D2*
Y9810D1*
X22465Y10030D2*
X22867D1*
Y10202D1*
X22847Y10260D1*
X22828Y10279D1*
X22790Y10298D1*
X22733D1*
X22694Y10279D1*
X22675Y10260D1*
X22656Y10202D1*
X22637Y10260D1*
X22618Y10279D1*
X22580Y10298D1*
X22541D1*
X22503Y10279D1*
X22484Y10260D1*
X22465Y10202D1*
Y10030D1*
X22656D2*
Y10202D1*
X13197Y7765D2*
X13370D1*
X13427Y7784D1*
X13446Y7804D1*
X13465Y7842D1*
Y7899D1*
X13446Y7937D1*
X13427Y7957D1*
X13370Y7976D1*
X13197D1*
Y7574D1*
X13589Y7976D2*
X13684Y7574D1*
X13780Y7976D1*
X13876Y7574D1*
X13971Y7976D1*
X14095Y7784D2*
X14267D1*
X14324Y7804D1*
X14344Y7823D1*
X14363Y7861D1*
Y7899D1*
X14344Y7937D1*
X14324Y7957D1*
X14267Y7976D1*
X14095D1*
Y7574D1*
X14229Y7784D2*
X14363Y7574D1*
X23352Y38083D2*
X23314Y38064D1*
X23276Y38026D1*
X23257Y37988D1*
Y37911D1*
X23276Y37873D1*
X23314Y37835D1*
X23352Y37816D1*
X23410Y37797D1*
X23506D1*
X23563Y37816D1*
X23601Y37835D1*
X23639Y37873D1*
X23659Y37911D1*
Y37988D1*
X23639Y38026D1*
X23601Y38064D1*
X23563Y38083D1*
X23506D1*
Y37988D1*
X23257Y36814D2*
Y36566D1*
X23659D1*
X23448D2*
Y36719D1*
Y35306D2*
Y35478D1*
X23429Y35536D1*
X23410Y35555D1*
X23372Y35574D1*
X23333D1*
X23295Y35555D1*
X23276Y35536D1*
X23257Y35478D1*
Y35306D1*
X23659D1*
X23448Y35440D2*
X23659Y35574D1*
X13607Y39743D2*
Y39762D1*
X13626Y39800D1*
X13645Y39819D1*
X13683Y39838D1*
X13760D1*
X13798Y39819D1*
X13817Y39800D1*
X13836Y39762D1*
Y39724D1*
X13817Y39685D1*
X13779Y39628D1*
X13587Y39437D1*
X13855D1*
X14247Y39839D2*
Y39437D1*
X13979Y39839D1*
Y39437D1*
X14408Y39838D2*
X14619D1*
X14504Y39685D1*
X14561D1*
X14600Y39666D1*
X14619Y39647D1*
X14638Y39590D1*
Y39552D1*
X14619Y39494D1*
X14580Y39456D1*
X14523Y39437D1*
X14466D1*
X14408Y39456D1*
X14389Y39475D1*
X14370Y39513D1*
X14991Y39838D2*
X14800D1*
X14781Y39666D1*
X14800Y39685D1*
X14857Y39705D1*
X14914D1*
X14972Y39685D1*
X15010Y39647D1*
X15029Y39590D1*
Y39552D1*
X15010Y39494D1*
X14972Y39456D1*
X14914Y39437D1*
X14857D1*
X14800Y39456D1*
X14781Y39475D1*
X14761Y39513D1*
X15382Y39781D2*
X15363Y39819D1*
X15306Y39838D1*
X15268D1*
X15210Y39819D1*
X15172Y39762D1*
X15153Y39666D1*
Y39571D1*
X15172Y39494D1*
X15210Y39456D1*
X15268Y39437D1*
X15287D1*
X15344Y39456D1*
X15382Y39494D1*
X15401Y39552D1*
Y39571D1*
X15382Y39628D1*
X15344Y39666D1*
X15287Y39685D1*
X15268D1*
X15210Y39666D1*
X15172Y39628D1*
X15153Y39571D1*
X15754Y39838D2*
X15563D1*
X15544Y39666D1*
X15563Y39685D1*
X15621Y39705D1*
X15678D1*
X15735Y39685D1*
X15774Y39647D1*
X15793Y39590D1*
Y39552D1*
X15774Y39494D1*
X15735Y39456D1*
X15678Y39437D1*
X15621D1*
X15563Y39456D1*
X15544Y39475D1*
X15525Y39513D1*
X14078Y16243D2*
Y16262D1*
X14097Y16300D1*
X14116Y16319D1*
X14155Y16338D1*
X14231D1*
X14269Y16319D1*
X14288Y16300D1*
X14308Y16262D1*
Y16224D1*
X14288Y16185D1*
X14250Y16128D1*
X14059Y15937D1*
X14327D1*
X14718Y16339D2*
Y15937D1*
X14450Y16339D1*
Y15937D1*
X15033D2*
Y16338D1*
X14842Y16071D1*
X15128D1*
X15271Y16243D2*
Y16262D1*
X15290Y16300D1*
X15309Y16319D1*
X15348Y16338D1*
X15424D1*
X15462Y16319D1*
X15481Y16300D1*
X15501Y16262D1*
Y16224D1*
X15481Y16185D1*
X15443Y16128D1*
X15252Y15937D1*
X15520D1*
X15835D2*
Y16338D1*
X15643Y16071D1*
X15930D1*
X16149Y16338D2*
X16092Y16319D1*
X16073Y16281D1*
Y16243D1*
X16092Y16205D1*
X16130Y16185D1*
X16207Y16166D1*
X16264Y16147D1*
X16302Y16109D1*
X16321Y16071D1*
Y16013D1*
X16302Y15975D1*
X16283Y15956D1*
X16226Y15937D1*
X16149D1*
X16092Y15956D1*
X16073Y15975D1*
X16054Y16013D1*
Y16071D1*
X16073Y16109D1*
X16111Y16147D1*
X16168Y16166D1*
X16245Y16185D1*
X16283Y16205D1*
X16302Y16243D1*
Y16281D1*
X16283Y16319D1*
X16226Y16338D1*
X16149D1*
X10578Y39743D2*
Y39762D1*
X10597Y39800D1*
X10616Y39819D1*
X10655Y39838D1*
X10731D1*
X10769Y39819D1*
X10788Y39800D1*
X10808Y39762D1*
Y39724D1*
X10788Y39685D1*
X10750Y39628D1*
X10559Y39437D1*
X10827D1*
X11218Y39839D2*
Y39437D1*
X10950Y39839D1*
Y39437D1*
X11533D2*
Y39838D1*
X11342Y39571D1*
X11628D1*
X11771Y39743D2*
Y39762D1*
X11790Y39800D1*
X11809Y39819D1*
X11848Y39838D1*
X11924D1*
X11962Y39819D1*
X11981Y39800D1*
X12001Y39762D1*
Y39724D1*
X11981Y39685D1*
X11943Y39628D1*
X11752Y39437D1*
X12020D1*
X12335D2*
Y39838D1*
X12143Y39571D1*
X12430D1*
X12649Y39838D2*
X12592Y39819D1*
X12573Y39781D1*
Y39743D1*
X12592Y39705D1*
X12630Y39685D1*
X12707Y39666D1*
X12764Y39647D1*
X12802Y39609D1*
X12821Y39571D1*
Y39513D1*
X12802Y39475D1*
X12783Y39456D1*
X12726Y39437D1*
X12649D1*
X12592Y39456D1*
X12573Y39475D1*
X12554Y39513D1*
Y39571D1*
X12573Y39609D1*
X12611Y39647D1*
X12668Y39666D1*
X12745Y39685D1*
X12783Y39705D1*
X12802Y39743D1*
Y39781D1*
X12783Y39819D1*
X12726Y39838D1*
X12649D1*
X17911Y44838D2*
X17950Y44858D1*
X18007Y44915D1*
Y44513D1*
X18246Y44915D2*
X18188Y44896D1*
X18150Y44838D1*
X18131Y44743D1*
Y44685D1*
X18150Y44590D1*
X18188Y44532D1*
X18246Y44513D1*
X18284D1*
X18341Y44532D1*
X18379Y44590D1*
X18399Y44685D1*
Y44743D1*
X18379Y44838D1*
X18341Y44896D1*
X18284Y44915D1*
X18246D1*
X18379Y44838D2*
X18150Y44590D1*
X18637Y44915D2*
X18580Y44896D1*
X18541Y44838D1*
X18522Y44743D1*
Y44685D1*
X18541Y44590D1*
X18580Y44532D1*
X18637Y44513D1*
X18675D1*
X18733Y44532D1*
X18771Y44590D1*
X18790Y44685D1*
Y44743D1*
X18771Y44838D1*
X18733Y44896D1*
X18675Y44915D1*
X18637D1*
X18771Y44838D2*
X18541Y44590D1*
X18914Y44915D2*
Y44513D1*
X19181Y44915D2*
X18914Y44647D1*
X19009Y44743D2*
X19181Y44513D1*
X18321Y43338D2*
X18359Y43358D1*
X18417Y43415D1*
Y43013D1*
X18846D2*
Y43415D1*
X18693Y43013D1*
X18540Y43415D1*
Y43013D1*
X17949Y41838D2*
X17987Y41858D1*
X18044Y41915D1*
Y41513D1*
X18283Y41915D2*
X18225Y41896D1*
X18187Y41838D1*
X18168Y41743D1*
Y41685D1*
X18187Y41590D1*
X18225Y41532D1*
X18283Y41513D1*
X18321D1*
X18378Y41532D1*
X18416Y41590D1*
X18436Y41685D1*
Y41743D1*
X18416Y41838D1*
X18378Y41896D1*
X18321Y41915D1*
X18283D1*
X18416Y41838D2*
X18187Y41590D1*
X18674Y41915D2*
X18617Y41896D1*
X18578Y41838D1*
X18559Y41743D1*
Y41685D1*
X18578Y41590D1*
X18617Y41532D1*
X18674Y41513D1*
X18712D1*
X18770Y41532D1*
X18808Y41590D1*
X18827Y41685D1*
Y41743D1*
X18808Y41838D1*
X18770Y41896D1*
X18712Y41915D1*
X18674D1*
X18808Y41838D2*
X18578Y41590D1*
X18951Y41915D2*
Y41513D1*
X19219Y41915D2*
X18951Y41647D1*
X19046Y41743D2*
X19219Y41513D1*
X8845Y41319D2*
Y41338D1*
X8864Y41377D1*
X8883Y41396D1*
X8921Y41415D1*
X8998D1*
X9036Y41396D1*
X9055Y41377D1*
X9074Y41338D1*
Y41300D1*
X9055Y41262D1*
X9017Y41205D1*
X8825Y41013D1*
X9093D1*
X9236Y41319D2*
Y41338D1*
X9255Y41377D1*
X9274Y41396D1*
X9313Y41415D1*
X9389D1*
X9427Y41396D1*
X9446Y41377D1*
X9466Y41338D1*
Y41300D1*
X9446Y41262D1*
X9408Y41205D1*
X9217Y41013D1*
X9485D1*
X9723Y41415D2*
X9666Y41396D1*
X9627Y41338D1*
X9608Y41243D1*
Y41185D1*
X9627Y41090D1*
X9666Y41032D1*
X9723Y41013D1*
X9761D1*
X9819Y41032D1*
X9857Y41090D1*
X9876Y41185D1*
Y41243D1*
X9857Y41338D1*
X9819Y41396D1*
X9761Y41415D1*
X9723D1*
X9857Y41338D2*
X9627Y41090D1*
X10000Y41224D2*
X10172D1*
X10229Y41243D1*
X10248Y41262D1*
X10267Y41300D1*
Y41339D1*
X10248Y41377D1*
X10229Y41396D1*
X10172Y41415D1*
X10000D1*
Y41013D1*
X10133Y41224D2*
X10267Y41013D1*
X15179Y32608D2*
X15160Y32646D1*
X15103Y32665D1*
X15065D1*
X15007Y32646D1*
X14969Y32588D1*
X14950Y32493D1*
Y32397D1*
X14969Y32321D1*
X15007Y32282D1*
X15065Y32263D1*
X15084D1*
X15141Y32282D1*
X15179Y32321D1*
X15198Y32378D1*
Y32397D1*
X15179Y32455D1*
X15141Y32493D1*
X15084Y32512D1*
X15065D1*
X15007Y32493D1*
X14969Y32455D1*
X14950Y32397D1*
X15341Y32302D2*
X15322Y32282D1*
X15341Y32263D1*
X15360Y32282D1*
X15341Y32302D1*
X15579Y32665D2*
X15522Y32646D1*
X15503Y32608D1*
Y32569D1*
X15522Y32531D1*
X15560Y32512D1*
X15637Y32493D1*
X15694Y32474D1*
X15732Y32435D1*
X15751Y32397D1*
Y32340D1*
X15732Y32302D1*
X15713Y32282D1*
X15656Y32263D1*
X15579D1*
X15522Y32282D1*
X15503Y32302D1*
X15484Y32340D1*
Y32397D1*
X15503Y32435D1*
X15541Y32474D1*
X15598Y32493D1*
X15675Y32512D1*
X15713Y32531D1*
X15732Y32569D1*
Y32608D1*
X15713Y32646D1*
X15656Y32665D1*
X15579D1*
X15875D2*
Y32263D1*
X16143Y32665D2*
X15875Y32397D1*
X15970Y32493D2*
X16143Y32263D1*
X22292Y18607D2*
X22272Y18645D1*
X22215Y18703D1*
X22617D1*
X22215Y18941D2*
X22234Y18884D1*
X22292Y18845D1*
X22387Y18826D1*
X22445D1*
X22540Y18845D1*
X22598Y18884D1*
X22617Y18941D1*
Y18979D1*
X22598Y19037D1*
X22540Y19075D1*
X22445Y19094D1*
X22387D1*
X22292Y19075D1*
X22234Y19037D1*
X22215Y18979D1*
Y18941D1*
X22292Y19075D2*
X22540Y18845D1*
X22215Y19218D2*
X22617D1*
X22215Y19486D2*
X22483Y19218D1*
X22387Y19313D2*
X22617Y19486D1*
X17949Y12338D2*
X17987Y12358D1*
X18044Y12415D1*
Y12013D1*
X18283Y12415D2*
X18225Y12396D1*
X18187Y12338D1*
X18168Y12243D1*
Y12185D1*
X18187Y12090D1*
X18225Y12032D1*
X18283Y12013D1*
X18321D1*
X18378Y12032D1*
X18416Y12090D1*
X18436Y12185D1*
Y12243D1*
X18416Y12338D1*
X18378Y12396D1*
X18321Y12415D1*
X18283D1*
X18416Y12338D2*
X18187Y12090D1*
X18674Y12415D2*
X18617Y12396D1*
X18578Y12338D1*
X18559Y12243D1*
Y12185D1*
X18578Y12090D1*
X18617Y12032D1*
X18674Y12013D1*
X18712D1*
X18770Y12032D1*
X18808Y12090D1*
X18827Y12185D1*
Y12243D1*
X18808Y12338D1*
X18770Y12396D1*
X18712Y12415D1*
X18674D1*
X18808Y12338D2*
X18578Y12090D1*
X18951Y12415D2*
Y12013D1*
X19219Y12415D2*
X18951Y12147D1*
X19046Y12243D2*
X19219Y12013D1*
X20542Y18411D2*
X20522Y18450D1*
X20465Y18507D1*
X20867D1*
X20465Y18746D2*
X20484Y18688D1*
X20542Y18650D1*
X20637Y18631D1*
X20695D1*
X20790Y18650D1*
X20848Y18688D1*
X20867Y18746D1*
Y18784D1*
X20848Y18841D1*
X20790Y18879D1*
X20695Y18899D1*
X20637D1*
X20542Y18879D1*
X20484Y18841D1*
X20465Y18784D1*
Y18746D1*
X20542Y18879D2*
X20790Y18650D1*
X20465Y19137D2*
X20484Y19080D1*
X20542Y19041D1*
X20637Y19022D1*
X20695D1*
X20790Y19041D1*
X20848Y19080D1*
X20867Y19137D1*
Y19175D1*
X20848Y19233D1*
X20790Y19271D1*
X20695Y19290D1*
X20637D1*
X20542Y19271D1*
X20484Y19233D1*
X20465Y19175D1*
Y19137D1*
X20542Y19271D2*
X20790Y19041D1*
X20465Y19414D2*
X20867D1*
X20465Y19681D2*
X20733Y19414D1*
X20637Y19509D2*
X20867Y19681D1*
X18715Y18364D2*
Y18574D1*
X18868Y18459D1*
Y18517D1*
X18887Y18555D1*
X18906Y18574D1*
X18964Y18593D1*
X19002D1*
X19059Y18574D1*
X19098Y18536D1*
X19117Y18478D1*
Y18421D1*
X19098Y18364D1*
X19078Y18345D1*
X19040Y18325D1*
X18715Y18755D2*
Y18965D1*
X18868Y18851D1*
Y18908D1*
X18887Y18946D1*
X18906Y18965D1*
X18964Y18985D1*
X19002D1*
X19059Y18965D1*
X19098Y18927D1*
X19117Y18870D1*
Y18812D1*
X19098Y18755D1*
X19078Y18736D1*
X19040Y18717D1*
X18715Y19223D2*
X18734Y19166D1*
X18792Y19127D1*
X18887Y19108D1*
X18945D1*
X19040Y19127D1*
X19098Y19166D1*
X19117Y19223D1*
Y19261D1*
X19098Y19319D1*
X19040Y19357D1*
X18945Y19376D1*
X18887D1*
X18792Y19357D1*
X18734Y19319D1*
X18715Y19261D1*
Y19223D1*
X18792Y19357D2*
X19040Y19127D1*
X18906Y19500D2*
Y19672D1*
X18887Y19729D1*
X18868Y19748D1*
X18830Y19767D1*
X18791D1*
X18753Y19748D1*
X18734Y19729D1*
X18715Y19672D1*
Y19500D1*
X19117D1*
X18906Y19633D2*
X19117Y19767D1*
X9059Y42915D2*
X9269D1*
X9155Y42762D1*
X9212D1*
X9250Y42743D1*
X9269Y42724D1*
X9289Y42666D1*
Y42628D1*
X9269Y42571D1*
X9231Y42532D1*
X9174Y42513D1*
X9116D1*
X9059Y42532D1*
X9040Y42552D1*
X9021Y42590D1*
X9451Y42915D2*
X9661D1*
X9546Y42762D1*
X9604D1*
X9642Y42743D1*
X9661Y42724D1*
X9680Y42666D1*
Y42628D1*
X9661Y42571D1*
X9623Y42532D1*
X9565Y42513D1*
X9508D1*
X9451Y42532D1*
X9432Y42552D1*
X9412Y42590D1*
X9804Y42915D2*
Y42513D1*
X10072Y42915D2*
X9804Y42647D1*
X9899Y42743D2*
X10072Y42513D1*
X8911Y45838D2*
X8950Y45858D1*
X9007Y45915D1*
Y45513D1*
X9246Y45915D2*
X9188Y45896D1*
X9150Y45838D1*
X9131Y45743D1*
Y45685D1*
X9150Y45590D1*
X9188Y45532D1*
X9246Y45513D1*
X9284D1*
X9341Y45532D1*
X9379Y45590D1*
X9399Y45685D1*
Y45743D1*
X9379Y45838D1*
X9341Y45896D1*
X9284Y45915D1*
X9246D1*
X9379Y45838D2*
X9150Y45590D1*
X9637Y45915D2*
X9580Y45896D1*
X9541Y45838D1*
X9522Y45743D1*
Y45685D1*
X9541Y45590D1*
X9580Y45532D1*
X9637Y45513D1*
X9675D1*
X9733Y45532D1*
X9771Y45590D1*
X9790Y45685D1*
Y45743D1*
X9771Y45838D1*
X9733Y45896D1*
X9675Y45915D1*
X9637D1*
X9771Y45838D2*
X9541Y45590D1*
X9914Y45915D2*
Y45513D1*
X10181Y45915D2*
X9914Y45647D1*
X10009Y45743D2*
X10181Y45513D1*
X17949Y40338D2*
X17987Y40358D1*
X18044Y40415D1*
Y40013D1*
X18283Y40415D2*
X18225Y40396D1*
X18187Y40338D1*
X18168Y40243D1*
Y40185D1*
X18187Y40090D1*
X18225Y40032D1*
X18283Y40013D1*
X18321D1*
X18378Y40032D1*
X18416Y40090D1*
X18436Y40185D1*
Y40243D1*
X18416Y40338D1*
X18378Y40396D1*
X18321Y40415D1*
X18283D1*
X18416Y40338D2*
X18187Y40090D1*
X18674Y40415D2*
X18617Y40396D1*
X18578Y40338D1*
X18559Y40243D1*
Y40185D1*
X18578Y40090D1*
X18617Y40032D1*
X18674Y40013D1*
X18712D1*
X18770Y40032D1*
X18808Y40090D1*
X18827Y40185D1*
Y40243D1*
X18808Y40338D1*
X18770Y40396D1*
X18712Y40415D1*
X18674D1*
X18808Y40338D2*
X18578Y40090D1*
X18951Y40415D2*
Y40013D1*
X19219Y40415D2*
X18951Y40147D1*
X19046Y40243D2*
X19219Y40013D1*
X8949Y44338D2*
X8987Y44358D1*
X9044Y44415D1*
Y44013D1*
X9283Y44415D2*
X9225Y44396D1*
X9187Y44338D1*
X9168Y44243D1*
Y44185D1*
X9187Y44090D1*
X9225Y44032D1*
X9283Y44013D1*
X9321D1*
X9378Y44032D1*
X9416Y44090D1*
X9436Y44185D1*
Y44243D1*
X9416Y44338D1*
X9378Y44396D1*
X9321Y44415D1*
X9283D1*
X9416Y44338D2*
X9187Y44090D1*
X9674Y44415D2*
X9617Y44396D1*
X9578Y44338D1*
X9559Y44243D1*
Y44185D1*
X9578Y44090D1*
X9617Y44032D1*
X9674Y44013D1*
X9712D1*
X9770Y44032D1*
X9808Y44090D1*
X9827Y44185D1*
Y44243D1*
X9808Y44338D1*
X9770Y44396D1*
X9712Y44415D1*
X9674D1*
X9808Y44338D2*
X9578Y44090D1*
X9951Y44415D2*
Y44013D1*
X10219Y44415D2*
X9951Y44147D1*
X10046Y44243D2*
X10219Y44013D1*
X15007Y33763D2*
Y34165D1*
X14816Y33897D1*
X15103D1*
X15303Y33763D2*
X15494Y34165D1*
X15226D1*
X15733D2*
X15675Y34146D1*
X15637Y34088D1*
X15618Y33993D1*
Y33935D1*
X15637Y33840D1*
X15675Y33782D1*
X15733Y33763D1*
X15771D1*
X15828Y33782D1*
X15866Y33840D1*
X15886Y33935D1*
Y33993D1*
X15866Y34088D1*
X15828Y34146D1*
X15771Y34165D1*
X15733D1*
X15866Y34088D2*
X15637Y33840D1*
X16009Y34165D2*
Y33763D1*
X16277Y34165D2*
X16009Y33897D1*
X16105Y33993D2*
X16277Y33763D1*
X13965Y24114D2*
Y24324D1*
X14118Y24209D1*
Y24267D1*
X14137Y24305D1*
X14156Y24324D1*
X14214Y24343D1*
X14252D1*
X14309Y24324D1*
X14348Y24286D1*
X14367Y24228D1*
Y24171D1*
X14348Y24114D1*
X14328Y24095D1*
X14290Y24075D1*
X13965Y24505D2*
Y24715D1*
X14118Y24601D1*
Y24658D1*
X14137Y24696D1*
X14156Y24715D1*
X14214Y24735D1*
X14252D1*
X14309Y24715D1*
X14348Y24677D1*
X14367Y24620D1*
Y24562D1*
X14348Y24505D1*
X14328Y24486D1*
X14290Y24467D1*
X13965Y24973D2*
X13984Y24916D1*
X14042Y24877D1*
X14137Y24858D1*
X14195D1*
X14290Y24877D1*
X14348Y24916D1*
X14367Y24973D1*
Y25011D1*
X14348Y25069D1*
X14290Y25107D1*
X14195Y25126D1*
X14137D1*
X14042Y25107D1*
X13984Y25069D1*
X13965Y25011D1*
Y24973D1*
X14042Y25107D2*
X14290Y24877D1*
X14156Y25250D2*
Y25422D1*
X14137Y25479D1*
X14118Y25498D1*
X14080Y25517D1*
X14041D1*
X14003Y25498D1*
X13984Y25479D1*
X13965Y25422D1*
Y25250D1*
X14367D1*
X14156Y25383D2*
X14367Y25517D1*
X15811Y24095D2*
X15792D1*
X15753Y24114D1*
X15734Y24133D1*
X15715Y24171D1*
Y24248D1*
X15734Y24286D1*
X15753Y24305D1*
X15792Y24324D1*
X15830D1*
X15868Y24305D1*
X15925Y24267D1*
X16117Y24075D1*
Y24343D1*
X15811Y24486D2*
X15792D1*
X15753Y24505D1*
X15734Y24524D1*
X15715Y24563D1*
Y24639D1*
X15734Y24677D1*
X15753Y24696D1*
X15792Y24716D1*
X15830D1*
X15868Y24696D1*
X15925Y24658D1*
X16117Y24467D1*
Y24735D1*
X15715Y24973D2*
X15734Y24916D1*
X15792Y24877D1*
X15887Y24858D1*
X15945D1*
X16040Y24877D1*
X16098Y24916D1*
X16117Y24973D1*
Y25011D1*
X16098Y25069D1*
X16040Y25107D1*
X15945Y25126D1*
X15887D1*
X15792Y25107D1*
X15734Y25069D1*
X15715Y25011D1*
Y24973D1*
X15792Y25107D2*
X16040Y24877D1*
X15715Y25250D2*
X16117D1*
X15715Y25517D2*
X15983Y25250D1*
X15887Y25345D2*
X16117Y25517D1*
X18059Y38915D2*
X18269D1*
X18155Y38762D1*
X18212D1*
X18250Y38743D1*
X18269Y38724D1*
X18289Y38666D1*
Y38628D1*
X18269Y38571D1*
X18231Y38532D1*
X18174Y38513D1*
X18116D1*
X18059Y38532D1*
X18040Y38552D1*
X18021Y38590D1*
X18451Y38915D2*
X18661D1*
X18546Y38762D1*
X18604D1*
X18642Y38743D1*
X18661Y38724D1*
X18680Y38666D1*
Y38628D1*
X18661Y38571D1*
X18623Y38532D1*
X18565Y38513D1*
X18508D1*
X18451Y38532D1*
X18432Y38552D1*
X18412Y38590D1*
X18804Y38915D2*
Y38513D1*
X19072Y38915D2*
X18804Y38647D1*
X18899Y38743D2*
X19072Y38513D1*
X9661Y32338D2*
X9700Y32358D1*
X9757Y32415D1*
Y32013D1*
X9996Y32415D2*
X9938Y32396D1*
X9900Y32338D1*
X9881Y32243D1*
Y32185D1*
X9900Y32090D1*
X9938Y32032D1*
X9996Y32013D1*
X10034D1*
X10091Y32032D1*
X10129Y32090D1*
X10149Y32185D1*
Y32243D1*
X10129Y32338D1*
X10091Y32396D1*
X10034Y32415D1*
X9996D1*
X10129Y32338D2*
X9900Y32090D1*
X10387Y32415D2*
X10330Y32396D1*
X10291Y32338D1*
X10272Y32243D1*
Y32185D1*
X10291Y32090D1*
X10330Y32032D1*
X10387Y32013D1*
X10425D1*
X10483Y32032D1*
X10521Y32090D1*
X10540Y32185D1*
Y32243D1*
X10521Y32338D1*
X10483Y32396D1*
X10425Y32415D1*
X10387D1*
X10521Y32338D2*
X10291Y32090D1*
X10664Y32415D2*
Y32013D1*
X10931Y32415D2*
X10664Y32147D1*
X10759Y32243D2*
X10931Y32013D1*
X9661Y35838D2*
X9700Y35858D1*
X9757Y35915D1*
Y35513D1*
X9996Y35915D2*
X9938Y35896D1*
X9900Y35838D1*
X9881Y35743D1*
Y35685D1*
X9900Y35590D1*
X9938Y35532D1*
X9996Y35513D1*
X10034D1*
X10091Y35532D1*
X10129Y35590D1*
X10149Y35685D1*
Y35743D1*
X10129Y35838D1*
X10091Y35896D1*
X10034Y35915D1*
X9996D1*
X10129Y35838D2*
X9900Y35590D1*
X10387Y35915D2*
X10330Y35896D1*
X10291Y35838D1*
X10272Y35743D1*
Y35685D1*
X10291Y35590D1*
X10330Y35532D1*
X10387Y35513D1*
X10425D1*
X10483Y35532D1*
X10521Y35590D1*
X10540Y35685D1*
Y35743D1*
X10521Y35838D1*
X10483Y35896D1*
X10425Y35915D1*
X10387D1*
X10521Y35838D2*
X10291Y35590D1*
X10664Y35915D2*
Y35513D1*
X10931Y35915D2*
X10664Y35647D1*
X10759Y35743D2*
X10931Y35513D1*
X9857Y34088D2*
X9895Y34108D1*
X9953Y34165D1*
Y33763D1*
X10191Y34165D2*
X10134Y34146D1*
X10095Y34088D1*
X10076Y33993D1*
Y33935D1*
X10095Y33840D1*
X10134Y33782D1*
X10191Y33763D1*
X10229D1*
X10287Y33782D1*
X10325Y33840D1*
X10344Y33935D1*
Y33993D1*
X10325Y34088D1*
X10287Y34146D1*
X10229Y34165D1*
X10191D1*
X10325Y34088D2*
X10095Y33840D1*
X10468Y34165D2*
Y33763D1*
X10736Y34165D2*
X10468Y33897D1*
X10563Y33993D2*
X10736Y33763D1*
X7792Y23449D2*
X7772Y23487D1*
X7715Y23544D1*
X8117D1*
X7715Y23897D2*
Y23706D1*
X7887Y23687D1*
X7868Y23706D1*
X7849Y23764D1*
Y23821D1*
X7868Y23878D1*
X7906Y23917D1*
X7964Y23936D1*
X8002D1*
X8059Y23917D1*
X8098Y23878D1*
X8117Y23821D1*
Y23764D1*
X8098Y23706D1*
X8078Y23687D1*
X8040Y23668D1*
X7715Y24174D2*
X7734Y24117D1*
X7792Y24078D1*
X7887Y24059D1*
X7945D1*
X8040Y24078D1*
X8098Y24117D1*
X8117Y24174D1*
Y24212D1*
X8098Y24270D1*
X8040Y24308D1*
X7945Y24327D1*
X7887D1*
X7792Y24308D1*
X7734Y24270D1*
X7715Y24212D1*
Y24174D1*
X7792Y24308D2*
X8040Y24078D1*
X7715Y24451D2*
X8117D1*
X7715Y24719D2*
X7983Y24451D1*
X7887Y24546D2*
X8117Y24719D1*
X5465Y18151D2*
Y18361D1*
X5618Y18247D1*
Y18304D1*
X5637Y18342D1*
X5656Y18361D1*
X5714Y18380D1*
X5752D1*
X5809Y18361D1*
X5848Y18323D1*
X5867Y18266D1*
Y18208D1*
X5848Y18151D1*
X5828Y18132D1*
X5790Y18113D1*
X5465Y18542D2*
Y18752D1*
X5618Y18638D1*
Y18695D1*
X5637Y18733D1*
X5656Y18752D1*
X5714Y18772D1*
X5752D1*
X5809Y18752D1*
X5848Y18714D1*
X5867Y18657D1*
Y18600D1*
X5848Y18542D1*
X5828Y18523D1*
X5790Y18504D1*
X5465Y19010D2*
X5484Y18953D1*
X5542Y18914D1*
X5637Y18895D1*
X5695D1*
X5790Y18914D1*
X5848Y18953D1*
X5867Y19010D1*
Y19048D1*
X5848Y19106D1*
X5790Y19144D1*
X5695Y19163D1*
X5637D1*
X5542Y19144D1*
X5484Y19106D1*
X5465Y19048D1*
Y19010D1*
X5542Y19144D2*
X5790Y18914D1*
X5656Y19287D2*
Y19459D1*
X5637Y19516D1*
X5618Y19536D1*
X5580Y19555D1*
X5541D1*
X5503Y19536D1*
X5484Y19516D1*
X5465Y19459D1*
Y19287D1*
X5867D1*
X5656Y19421D2*
X5867Y19555D1*
X6042Y23449D2*
X6022Y23487D1*
X5965Y23544D1*
X6367D1*
X5965Y23783D2*
X5984Y23725D1*
X6042Y23687D1*
X6137Y23668D1*
X6195D1*
X6290Y23687D1*
X6348Y23725D1*
X6367Y23783D1*
Y23821D1*
X6348Y23878D1*
X6290Y23916D1*
X6195Y23936D1*
X6137D1*
X6042Y23916D1*
X5984Y23878D1*
X5965Y23821D1*
Y23783D1*
X6042Y23916D2*
X6290Y23687D1*
X5965Y24174D2*
X5984Y24117D1*
X6042Y24078D1*
X6137Y24059D1*
X6195D1*
X6290Y24078D1*
X6348Y24117D1*
X6367Y24174D1*
Y24212D1*
X6348Y24270D1*
X6290Y24308D1*
X6195Y24327D1*
X6137D1*
X6042Y24308D1*
X5984Y24270D1*
X5965Y24212D1*
Y24174D1*
X6042Y24308D2*
X6290Y24078D1*
X5965Y24451D2*
X6367D1*
X5965Y24719D2*
X6233Y24451D1*
X6137Y24546D2*
X6367Y24719D1*
X11042Y19071D2*
X11022Y19109D1*
X10965Y19167D1*
X11367D1*
Y19596D2*
X10965D1*
X11367Y19443D1*
X10965Y19290D1*
X11367D1*
X8542Y13857D2*
X8522Y13895D1*
X8465Y13953D1*
X8867D1*
X8465Y14191D2*
X8484Y14134D1*
X8542Y14095D1*
X8637Y14076D1*
X8695D1*
X8790Y14095D1*
X8848Y14134D1*
X8867Y14191D1*
Y14229D1*
X8848Y14287D1*
X8790Y14325D1*
X8695Y14344D1*
X8637D1*
X8542Y14325D1*
X8484Y14287D1*
X8465Y14229D1*
Y14191D1*
X8542Y14325D2*
X8790Y14095D1*
X8465Y14468D2*
X8867D1*
X8465Y14736D2*
X8733Y14468D1*
X8637Y14563D2*
X8867Y14736D1*
X6542Y13661D2*
X6522Y13700D1*
X6465Y13757D1*
X6867D1*
X6465Y13996D2*
X6484Y13938D1*
X6542Y13900D1*
X6637Y13881D1*
X6695D1*
X6790Y13900D1*
X6848Y13938D1*
X6867Y13996D1*
Y14034D1*
X6848Y14091D1*
X6790Y14129D1*
X6695Y14149D1*
X6637D1*
X6542Y14129D1*
X6484Y14091D1*
X6465Y14034D1*
Y13996D1*
X6542Y14129D2*
X6790Y13900D1*
X6465Y14387D2*
X6484Y14330D1*
X6542Y14291D1*
X6637Y14272D1*
X6695D1*
X6790Y14291D1*
X6848Y14330D1*
X6867Y14387D1*
Y14425D1*
X6848Y14483D1*
X6790Y14521D1*
X6695Y14540D1*
X6637D1*
X6542Y14521D1*
X6484Y14483D1*
X6465Y14425D1*
Y14387D1*
X6542Y14521D2*
X6790Y14291D1*
X6465Y14664D2*
X6867D1*
X6465Y14931D2*
X6733Y14664D1*
X6637Y14759D2*
X6867Y14931D1*
X12965Y18651D2*
Y18861D1*
X13118Y18747D1*
Y18804D1*
X13137Y18842D1*
X13156Y18861D1*
X13214Y18880D1*
X13252D1*
X13309Y18861D1*
X13348Y18823D1*
X13367Y18766D1*
Y18708D1*
X13348Y18651D1*
X13328Y18632D1*
X13290Y18613D1*
X12965Y19042D2*
Y19252D1*
X13118Y19138D1*
Y19195D1*
X13137Y19233D1*
X13156Y19252D1*
X13214Y19272D1*
X13252D1*
X13309Y19252D1*
X13348Y19214D1*
X13367Y19157D1*
Y19100D1*
X13348Y19042D1*
X13328Y19023D1*
X13290Y19004D1*
X12965Y19510D2*
X12984Y19453D1*
X13042Y19414D1*
X13137Y19395D1*
X13195D1*
X13290Y19414D1*
X13348Y19453D1*
X13367Y19510D1*
Y19548D1*
X13348Y19606D1*
X13290Y19644D1*
X13195Y19663D1*
X13137D1*
X13042Y19644D1*
X12984Y19606D1*
X12965Y19548D1*
Y19510D1*
X13042Y19644D2*
X13290Y19414D1*
X13156Y19787D2*
Y19959D1*
X13137Y20016D1*
X13118Y20036D1*
X13080Y20055D1*
X13041D1*
X13003Y20036D1*
X12984Y20016D1*
X12965Y19959D1*
Y19787D1*
X13367D1*
X13156Y19921D2*
X13367Y20055D1*
X9303Y47338D2*
X9341Y47358D1*
X9399Y47415D1*
Y47013D1*
X9522Y47415D2*
Y47013D1*
X9790Y47415D2*
X9522Y47147D1*
X9618Y47243D2*
X9790Y47013D1*
X13199Y50338D2*
X13237Y50358D1*
X13294Y50415D1*
Y50013D1*
X13533Y50415D2*
X13475Y50396D1*
X13437Y50338D1*
X13418Y50243D1*
Y50185D1*
X13437Y50090D1*
X13475Y50032D1*
X13533Y50013D1*
X13571D1*
X13628Y50032D1*
X13666Y50090D1*
X13686Y50185D1*
Y50243D1*
X13666Y50338D1*
X13628Y50396D1*
X13571Y50415D1*
X13533D1*
X13666Y50338D2*
X13437Y50090D1*
X13924Y50415D2*
X13867Y50396D1*
X13828Y50338D1*
X13809Y50243D1*
Y50185D1*
X13828Y50090D1*
X13867Y50032D1*
X13924Y50013D1*
X13962D1*
X14020Y50032D1*
X14058Y50090D1*
X14077Y50185D1*
Y50243D1*
X14058Y50338D1*
X14020Y50396D1*
X13962Y50415D1*
X13924D1*
X14058Y50338D2*
X13828Y50090D1*
X14201Y50415D2*
Y50013D1*
X14469Y50415D2*
X14201Y50147D1*
X14296Y50243D2*
X14469Y50013D1*
X9125Y48915D2*
X9335D1*
X9221Y48762D1*
X9278D1*
X9316Y48743D1*
X9335Y48724D1*
X9355Y48666D1*
Y48628D1*
X9335Y48571D1*
X9297Y48532D1*
X9240Y48513D1*
X9183D1*
X9125Y48532D1*
X9106Y48552D1*
X9087Y48590D1*
X9517Y48915D2*
X9727D1*
X9612Y48762D1*
X9670D1*
X9708Y48743D1*
X9727Y48724D1*
X9746Y48666D1*
Y48628D1*
X9727Y48571D1*
X9689Y48532D1*
X9631Y48513D1*
X9574D1*
X9517Y48532D1*
X9498Y48552D1*
X9478Y48590D1*
X9870Y48915D2*
Y48513D1*
X10061Y48781D2*
X9870Y48590D1*
X9946Y48666D2*
X10080Y48513D1*
X17367Y48372D2*
X16965D1*
X17233Y48180D1*
Y48467D1*
X17328Y48610D2*
X17348Y48591D1*
X17367Y48610D1*
X17348Y48629D1*
X17328Y48610D1*
X17367Y48829D2*
X16965Y49021D1*
Y48753D1*
Y49374D2*
Y49183D1*
X17137Y49164D1*
X17118Y49183D1*
X17099Y49240D1*
Y49297D1*
X17118Y49355D1*
X17156Y49393D1*
X17214Y49412D1*
X17252D1*
X17309Y49393D1*
X17348Y49355D1*
X17367Y49297D1*
Y49240D1*
X17348Y49183D1*
X17328Y49164D1*
X17290Y49144D1*
X19911Y50088D2*
X19950Y50108D1*
X20007Y50165D1*
Y49763D1*
X20246Y50165D2*
X20188Y50146D1*
X20150Y50088D1*
X20131Y49993D1*
Y49935D1*
X20150Y49840D1*
X20188Y49782D1*
X20246Y49763D1*
X20284D1*
X20341Y49782D1*
X20379Y49840D1*
X20399Y49935D1*
Y49993D1*
X20379Y50088D1*
X20341Y50146D1*
X20284Y50165D1*
X20246D1*
X20379Y50088D2*
X20150Y49840D1*
X20637Y50165D2*
X20580Y50146D1*
X20541Y50088D1*
X20522Y49993D1*
Y49935D1*
X20541Y49840D1*
X20580Y49782D1*
X20637Y49763D1*
X20675D1*
X20733Y49782D1*
X20771Y49840D1*
X20790Y49935D1*
Y49993D1*
X20771Y50088D1*
X20733Y50146D1*
X20675Y50165D1*
X20637D1*
X20771Y50088D2*
X20541Y49840D1*
X20914Y50165D2*
Y49763D1*
X21181Y50165D2*
X20914Y49897D1*
X21009Y49993D2*
X21181Y49763D1*
X20279Y48415D2*
X20088D1*
X20069Y48243D1*
X20088Y48262D1*
X20146Y48281D1*
X20203D1*
X20260Y48262D1*
X20299Y48224D1*
X20318Y48166D1*
Y48128D1*
X20299Y48071D1*
X20260Y48032D1*
X20203Y48013D1*
X20146D1*
X20088Y48032D1*
X20069Y48052D1*
X20050Y48090D1*
X20556Y48415D2*
X20499Y48396D1*
X20460Y48338D1*
X20441Y48243D1*
Y48185D1*
X20460Y48090D1*
X20499Y48032D1*
X20556Y48013D1*
X20594D1*
X20652Y48032D1*
X20690Y48090D1*
X20709Y48185D1*
Y48243D1*
X20690Y48338D1*
X20652Y48396D1*
X20594Y48415D1*
X20556D1*
X20690Y48338D2*
X20460Y48090D1*
X20833Y48415D2*
Y48013D1*
X21024Y48281D2*
X20833Y48090D1*
X20909Y48166D2*
X21043Y48013D1*
X19901Y46665D2*
X20111D1*
X19997Y46512D1*
X20054D1*
X20092Y46493D1*
X20111Y46474D1*
X20130Y46416D1*
Y46378D1*
X20111Y46321D1*
X20073Y46282D1*
X20016Y46263D1*
X19958D1*
X19901Y46282D1*
X19882Y46302D1*
X19863Y46340D1*
X20292Y46665D2*
X20502D1*
X20388Y46512D1*
X20445D1*
X20483Y46493D1*
X20502Y46474D1*
X20522Y46416D1*
Y46378D1*
X20502Y46321D1*
X20464Y46282D1*
X20407Y46263D1*
X20350D1*
X20292Y46282D1*
X20273Y46302D1*
X20254Y46340D1*
X20760Y46665D2*
X20703Y46646D1*
X20664Y46588D1*
X20645Y46493D1*
Y46435D1*
X20664Y46340D1*
X20703Y46282D1*
X20760Y46263D1*
X20798D1*
X20856Y46282D1*
X20894Y46340D1*
X20913Y46435D1*
Y46493D1*
X20894Y46588D1*
X20856Y46646D1*
X20798Y46665D1*
X20760D1*
X20894Y46588D2*
X20664Y46340D1*
X21037Y46474D2*
X21209D1*
X21266Y46493D1*
X21286Y46512D1*
X21305Y46550D1*
Y46589D1*
X21286Y46627D1*
X21266Y46646D1*
X21209Y46665D1*
X21037D1*
Y46263D1*
X21171Y46474D2*
X21305Y46263D1*
X13699Y11088D2*
X13737Y11108D1*
X13794Y11165D1*
Y10763D1*
X14033Y11165D2*
X13975Y11146D1*
X13937Y11088D1*
X13918Y10993D1*
Y10935D1*
X13937Y10840D1*
X13975Y10782D1*
X14033Y10763D1*
X14071D1*
X14128Y10782D1*
X14166Y10840D1*
X14186Y10935D1*
Y10993D1*
X14166Y11088D1*
X14128Y11146D1*
X14071Y11165D1*
X14033D1*
X14166Y11088D2*
X13937Y10840D1*
X14424Y11165D2*
X14367Y11146D1*
X14328Y11088D1*
X14309Y10993D1*
Y10935D1*
X14328Y10840D1*
X14367Y10782D1*
X14424Y10763D1*
X14462D1*
X14520Y10782D1*
X14558Y10840D1*
X14577Y10935D1*
Y10993D1*
X14558Y11088D1*
X14520Y11146D1*
X14462Y11165D1*
X14424D1*
X14558Y11088D2*
X14328Y10840D1*
X14701Y11165D2*
Y10763D1*
X14969Y11165D2*
X14701Y10897D1*
X14796Y10993D2*
X14969Y10763D1*
X13699Y9588D2*
X13737Y9608D1*
X13794Y9665D1*
Y9263D1*
X14033Y9665D2*
X13975Y9646D1*
X13937Y9588D1*
X13918Y9493D1*
Y9435D1*
X13937Y9340D1*
X13975Y9282D1*
X14033Y9263D1*
X14071D1*
X14128Y9282D1*
X14166Y9340D1*
X14186Y9435D1*
Y9493D1*
X14166Y9588D1*
X14128Y9646D1*
X14071Y9665D1*
X14033D1*
X14166Y9588D2*
X13937Y9340D1*
X14424Y9665D2*
X14367Y9646D1*
X14328Y9588D1*
X14309Y9493D1*
Y9435D1*
X14328Y9340D1*
X14367Y9282D1*
X14424Y9263D1*
X14462D1*
X14520Y9282D1*
X14558Y9340D1*
X14577Y9435D1*
Y9493D1*
X14558Y9588D1*
X14520Y9646D1*
X14462Y9665D1*
X14424D1*
X14558Y9588D2*
X14328Y9340D1*
X14701Y9665D2*
Y9263D1*
X14969Y9665D2*
X14701Y9397D1*
X14796Y9493D2*
X14969Y9263D1*
X10715Y25337D2*
X11117D1*
Y25567D1*
Y25996D2*
X10715D1*
X11117Y25843D1*
X10715Y25690D1*
X11117D1*
X10715Y26158D2*
Y26368D1*
X10868Y26254D1*
Y26311D1*
X10887Y26349D1*
X10906Y26368D1*
X10964Y26388D1*
X11002D1*
X11059Y26368D1*
X11098Y26330D1*
X11117Y26273D1*
Y26215D1*
X11098Y26158D1*
X11078Y26139D1*
X11040Y26120D1*
X10849Y26760D2*
X10906Y26741D1*
X10945Y26702D1*
X10964Y26645D1*
Y26626D1*
X10945Y26569D1*
X10906Y26530D1*
X10849Y26511D1*
X10830D1*
X10772Y26530D1*
X10734Y26569D1*
X10715Y26626D1*
Y26645D1*
X10734Y26702D1*
X10772Y26741D1*
X10849Y26760D1*
X10945D1*
X11040Y26741D1*
X11098Y26702D1*
X11117Y26645D1*
Y26607D1*
X11098Y26550D1*
X11059Y26530D1*
X10715Y26998D2*
X10734Y26941D1*
X10792Y26903D1*
X10887Y26883D1*
X10945D1*
X11040Y26903D1*
X11098Y26941D1*
X11117Y26998D1*
Y27036D1*
X11098Y27094D1*
X11040Y27132D1*
X10945Y27151D1*
X10887D1*
X10792Y27132D1*
X10734Y27094D1*
X10715Y27036D1*
Y26998D1*
X10792Y27132D2*
X11040Y26903D1*
X10715Y27390D2*
X10734Y27332D1*
X10792Y27294D1*
X10887Y27275D1*
X10945D1*
X11040Y27294D1*
X11098Y27332D1*
X11117Y27390D1*
Y27428D1*
X11098Y27485D1*
X11040Y27523D1*
X10945Y27543D1*
X10887D1*
X10792Y27523D1*
X10734Y27485D1*
X10715Y27428D1*
Y27390D1*
X10792Y27523D2*
X11040Y27294D1*
X11465Y13154D2*
X11867D1*
Y13384D1*
Y13813D2*
X11465D1*
X11867Y13660D1*
X11465Y13507D1*
X11867D1*
X11542Y13937D2*
X11522Y13975D1*
X11465Y14033D1*
X11867D1*
Y14348D2*
X11465D1*
X11733Y14156D1*
Y14443D1*
X11465Y14796D2*
Y14605D1*
X11637Y14586D1*
X11618Y14605D1*
X11599Y14663D1*
Y14720D1*
X11618Y14777D1*
X11656Y14816D1*
X11714Y14835D1*
X11752D1*
X11809Y14816D1*
X11848Y14777D1*
X11867Y14720D1*
Y14663D1*
X11848Y14605D1*
X11828Y14586D1*
X11790Y14567D1*
X11465Y15054D2*
X11484Y14997D1*
X11522Y14977D1*
X11561D1*
X11599Y14997D1*
X11618Y15035D1*
X11637Y15111D1*
X11656Y15169D1*
X11695Y15207D1*
X11733Y15226D1*
X11790D1*
X11828Y15207D1*
X11848Y15188D1*
X11867Y15130D1*
Y15054D1*
X11848Y14997D1*
X11828Y14977D1*
X11790Y14958D1*
X11733D1*
X11695Y14977D1*
X11656Y15016D1*
X11637Y15073D1*
X11618Y15149D1*
X11599Y15188D1*
X11561Y15207D1*
X11522D1*
X11484Y15188D1*
X11465Y15130D1*
Y15054D1*
X14215Y45785D2*
X14234Y45746D1*
X14272Y45708D1*
X14310Y45689D1*
X14368Y45670D1*
X14464D1*
X14521Y45689D1*
X14559Y45708D1*
X14597Y45746D1*
X14617Y45785D1*
Y45861D1*
X14597Y45899D1*
X14559Y45938D1*
X14521Y45957D1*
X14464Y45976D1*
X14368D1*
X14310Y45957D1*
X14272Y45938D1*
X14234Y45899D1*
X14215Y45861D1*
Y45785D1*
X14425Y46099D2*
Y46272D1*
X14406Y46329D1*
X14387Y46348D1*
X14349Y46367D1*
X14291D1*
X14253Y46348D1*
X14234Y46329D1*
X14215Y46272D1*
Y46099D1*
X14617D1*
Y46797D2*
X14215Y46644D1*
X14617Y46491D1*
X14483Y46548D2*
Y46740D1*
X14311Y46940D2*
X14292D1*
X14253Y46959D1*
X14234Y46978D1*
X14215Y47017D1*
Y47093D1*
X14234Y47131D1*
X14253Y47150D1*
X14292Y47170D1*
X14330D1*
X14368Y47150D1*
X14425Y47112D1*
X14617Y46921D1*
Y47189D1*
X14292Y47312D2*
X14272Y47351D1*
X14215Y47408D1*
X14617D1*
X14215Y47570D2*
Y47780D1*
X14368Y47666D1*
Y47723D1*
X14387Y47761D1*
X14406Y47780D1*
X14464Y47800D1*
X14502D1*
X14559Y47780D1*
X14598Y47742D1*
X14617Y47685D1*
Y47627D1*
X14598Y47570D1*
X14578Y47551D1*
X14540Y47532D1*
X14617Y48115D2*
X14215D1*
X14483Y47923D1*
Y48210D1*
X17955Y6766D2*
X18147Y7167D1*
X17879D1*
X18366D2*
X18308Y7148D1*
X18289Y7110D1*
Y7072D1*
X18308Y7034D1*
X18347Y7014D1*
X18423Y6995D1*
X18480Y6976D1*
X18519Y6938D1*
X18538Y6900D1*
Y6842D1*
X18519Y6804D1*
X18499Y6785D1*
X18442Y6766D1*
X18366D1*
X18308Y6785D1*
X18289Y6804D1*
X18270Y6842D1*
Y6900D1*
X18289Y6938D1*
X18328Y6976D1*
X18385Y6995D1*
X18461Y7014D1*
X18499Y7034D1*
X18519Y7072D1*
Y7110D1*
X18499Y7148D1*
X18442Y7167D1*
X18366D1*
X18661Y7168D2*
Y6766D1*
X18891D1*
X19014Y7091D2*
X19052Y7110D1*
X19110Y7167D1*
Y6766D1*
X19253Y7072D2*
Y7091D1*
X19272Y7129D1*
X19291Y7148D1*
X19329Y7167D1*
X19406D1*
X19444Y7148D1*
X19463Y7129D1*
X19482Y7091D1*
Y7053D1*
X19463Y7014D1*
X19425Y6957D1*
X19233Y6766D1*
X19501D1*
M02*
