<?xml version="1.0" encoding="UTF-8" standalone="no"?>
<!-- Created with sK1/UniConvertor (http://sk1project.org/) -->

<svg
   xmlns:dc="http://purl.org/dc/elements/1.1/"
   xmlns:cc="http://creativecommons.org/ns#"
   xmlns:rdf="http://www.w3.org/1999/02/22-rdf-syntax-ns#"
   xmlns:svg="http://www.w3.org/2000/svg"
   xmlns="http://www.w3.org/2000/svg"
   xmlns:sodipodi="http://sodipodi.sourceforge.net/DTD/sodipodi-0.dtd"
   xmlns:inkscape="http://www.inkscape.org/namespaces/inkscape"
   width="2349.655"
   height="1129.4288"
   viewBox="0 0 1879.7241 903.54304"
   id="svg3004"
   version="1.1"
   inkscape:version="0.48.5 r10040"
   sodipodi:docname="boogie_board_cut_d.plt"
   style="fill-rule:evenodd">
  <metadata
     id="metadata3046">
    <rdf:RDF>
      <cc:Work
         rdf:about="">
        <dc:format>image/svg+xml</dc:format>
        <dc:type
           rdf:resource="http://purl.org/dc/dcmitype/StillImage" />
        <dc:title></dc:title>
      </cc:Work>
    </rdf:RDF>
  </metadata>
  <defs
     id="defs3044" />
  <sodipodi:namedview
     pagecolor="#ffffff"
     bordercolor="#666666"
     borderopacity="1"
     objecttolerance="10"
     gridtolerance="10"
     guidetolerance="10"
     inkscape:pageopacity="0"
     inkscape:pageshadow="2"
     inkscape:window-width="1284"
     inkscape:window-height="737"
     id="namedview3042"
     showgrid="false"
     fit-margin-top="0"
     fit-margin-left="0"
     fit-margin-right="0"
     fit-margin-bottom="0"
     inkscape:zoom="0.51598187"
     inkscape:cx="958.99904"
     inkscape:cy="619.19257"
     inkscape:window-x="0"
     inkscape:window-y="908"
     inkscape:window-maximized="0"
     inkscape:current-layer="svg3004" />
  <g
     id="g3006"
     transform="translate(903.68506,-12.756057)">
    <path
       style="fill:none;stroke:#000000;stroke-width:0.99212599;stroke-linecap:round;stroke-linejoin:round"
       d="m -903.189,915.803 1878.732,0 0,-902.551 -1878.732,0 0,902.551 z"
       id="path3008"
       inkscape:connector-curvature="0" />
    <path
       style="fill:none;stroke:#3e3e3e;stroke-width:0.99212599;stroke-linecap:round;stroke-linejoin:round"
       d="m 705.118,543.189 2.551,-1.063 1.063,-2.551 -1.063,-2.551 -2.551,-1.063 -2.551,1.063 -1.063,2.551 1.063,2.551 2.551,1.063 z"
       id="path3010"
       inkscape:connector-curvature="0" />
    <path
       style="fill:none;stroke:#3e3e3e;stroke-width:0.99212599;stroke-linecap:round;stroke-linejoin:round"
       d="m 705.118,656.575 2.551,-1.063 1.063,-2.551 -1.063,-2.552 -2.551,-1.063 -2.551,1.063 -1.063,2.552 1.063,2.551 2.551,1.063 z"
       id="path3012"
       inkscape:connector-curvature="0" />
    <path
       style="fill:none;stroke:#3e3e3e;stroke-width:0.99212599;stroke-linecap:round;stroke-linejoin:round"
       d="m 435.827,543.189 2.551,-1.063 1.063,-2.551 -1.063,-2.551 -2.551,-1.063 -2.551,1.063 -1.063,2.551 1.063,2.551 2.551,1.063 z"
       id="path3014"
       inkscape:connector-curvature="0" />
    <path
       style="fill:none;stroke:#3e3e3e;stroke-width:0.99212599;stroke-linecap:round;stroke-linejoin:round"
       d="m 435.827,656.575 2.551,-1.063 1.063,-2.551 -1.063,-2.552 -2.551,-1.063 -2.551,1.063 -1.063,2.552 1.063,2.551 2.551,1.063 z"
       id="path3016"
       inkscape:connector-curvature="0" />
    <path
       style="fill:none;stroke:#3e3e3e;stroke-width:0.99212599;stroke-linecap:round;stroke-linejoin:round"
       d="m 166.535,543.189 2.552,-1.063 1.063,-2.551 -1.063,-2.551 -2.552,-1.063 -2.551,1.063 -1.063,2.551 1.063,2.551 2.551,1.063 z"
       id="path3018"
       inkscape:connector-curvature="0" />
    <path
       style="fill:none;stroke:#3e3e3e;stroke-width:0.99212599;stroke-linecap:round;stroke-linejoin:round"
       d="m 166.535,656.575 2.552,-1.063 1.063,-2.551 -1.063,-2.552 -2.552,-1.063 -2.551,1.063 -1.063,2.552 1.063,2.551 2.551,1.063 z"
       id="path3020"
       inkscape:connector-curvature="0" />
    <path
       style="fill:none;stroke:#3e3e3e;stroke-width:0.99212599;stroke-linecap:round;stroke-linejoin:round"
       d="m -37.5591,652.961 1.9134,0.425 1.63,1.063 1.0629,1.63 0.4252,1.913 -0.4252,1.984 -1.0629,1.63 -1.63,1.063 -1.9134,0.355 -13.2519,0 -1.9843,-0.355 -1.559,-1.063 -1.063,-1.63 -0.4252,-1.984 0.4252,-1.913 1.063,-1.63 1.559,-1.063 1.9843,-0.425 13.2519,0 z"
       id="path3022"
       inkscape:connector-curvature="0" />
    <path
       style="fill:none;stroke:#3e3e3e;stroke-width:0.99212599;stroke-linecap:round;stroke-linejoin:round"
       d="m -415.559,652.961 1.984,0.425 1.559,1.063 1.063,1.63 0.425,1.913 -0.425,1.984 -1.063,1.63 -1.559,1.063 -1.984,0.355 -13.252,0 -1.913,-0.355 -1.63,-1.063 -1.063,-1.63 -0.426,-1.984 0.426,-1.913 1.063,-1.63 1.63,-1.063 1.913,-0.425 13.252,0 z"
       id="path3024"
       inkscape:connector-curvature="0" />
    <path
       style="fill:none;stroke:#3e3e3e;stroke-width:0.99212599;stroke-linecap:round;stroke-linejoin:round"
       d="m -36.7087,362.976 1.9134,0.355 1.6299,1.134 1.063,1.559 0.4252,1.984 -0.4252,1.984 -1.063,1.559 -1.6299,1.063 -1.9134,0.425 -13.9606,0 -1.9842,-0.425 -1.5591,-1.063 -1.1339,-1.559 -0.3543,-1.984 0.3543,-1.984 1.1339,-1.559 1.5591,-1.134 1.9842,-0.355 13.9606,0 z"
       id="path3026"
       inkscape:connector-curvature="0" />
    <path
       style="fill:none;stroke:#3e3e3e;stroke-width:0.99212599;stroke-linecap:round;stroke-linejoin:round"
       d="m -414.709,362.976 1.985,0.355 1.559,1.134 1.063,1.559 0.425,1.984 -0.425,1.984 -1.063,1.559 -1.559,1.063 -1.985,0.425 -13.96,0 -1.985,-0.425 -1.559,-1.063 -1.063,-1.559 -0.425,-1.984 0.425,-1.984 1.063,-1.559 1.559,-1.134 1.985,-0.355 13.96,0 z"
       id="path3028"
       inkscape:connector-curvature="0" />
    <path
       style="fill:none;stroke:#3e3e3e;stroke-width:0.99212599;stroke-linecap:round;stroke-linejoin:round"
       d="m -49.8898,220.819 3.1181,2.905 2.3386,3.544 1.5591,4.11 0.496,4.465 -0.3543,3.755 -1.1338,3.544 -1.7008,3.189 -2.2677,2.763 -2.7638,2.268 -3.189,1.701 -3.5433,1.134 -3.7559,0.354 -3.7559,-0.354 -3.5433,-1.134 -3.189,-1.701 -2.7638,-2.268 -2.2677,-2.763 -1.7008,-3.189 -1.1338,-3.544 -0.3544,-3.755 0.4961,-4.465 1.559,-4.11 2.3386,-3.544 3.1181,-2.905 22.3937,0 z"
       id="path3030"
       inkscape:connector-curvature="0" />
    <path
       style="fill:none;stroke:#3e3e3e;stroke-width:0.99212599;stroke-linecap:round;stroke-linejoin:round"
       d="m 40.8189,344.268 65.5511,0 0,-17.008 29.268,0 0,10.559 7.016,0 0,-10.559 29.692,0 0,17.008 49.961,0 0,-17.008 50.811,0 0,17.008 49.961,0 0,-17.008 50.811,0 0,17.008 49.96,0 0,-17.008 50.882,0 0,17.008 49.961,0 0,-17.008 50.811,0 0,17.008 49.961,0 0,-17.008 50.881,0 0,17.008 49.961,0 0,-17.008 50.811,0 0,17.008 49.961,0 0,-17.008 29.267,0 0,10.559 7.016,0 0,-10.559 29.693,0 0,17.008 65.551,0 0,53.291 -17.008,0 0,31.252 -10.7,0 0,-3.543 -4.252,0 0,3.543 -4.323,0 0,7.228 4.323,0 0,3.615 4.252,0 0,-3.615 10.7,0 0,30.898 17.008,0 0,50.811 -17.008,0 0,49.961 17.008,0 0,50.811 -17.008,0 0,49.96 17.008,0 0,50.882 -17.008,0 0,31.323 -10.7,0 0,-3.614 -4.252,0 0,3.614 -4.323,0 0,7.158 4.323,0 0,3.614 4.252,0 0,-3.614 10.7,0 0,30.897 17.008,0 0,53.221 -65.551,0 0,17.008 -29.693,0 0,-10.489 -7.086,0 0,10.489 -29.197,0 0,-17.008 -49.961,0 0,17.008 -50.811,0 0,-17.008 -49.961,0 0,17.008 -50.881,0 0,-17.008 -49.961,0 0,17.008 -50.811,0 0,-17.008 -49.961,0 0,17.008 -50.882,0 0,-17.008 -49.96,0 0,17.008 -50.811,0 0,-17.008 -49.961,0 0,17.008 -50.811,0 0,-17.008 -49.961,0 0,17.008 -29.763,0 0,-10.489 -7.016,0 0,10.489 -29.197,0 0,-17.008 -65.5511,0 0,-53.221 17.0079,0 0,-30.897 10.6299,0 0,3.614 4.3228,0 0,-3.614 4.3229,0 0,-7.158 -4.3229,0 0,-3.614 -4.3228,0 0,3.614 -10.6299,0 0,-31.323 -17.0079,0 0,-50.882 17.0079,0 0,-49.96 -17.0079,0 0,-50.811 17.0079,0 0,-49.961 -17.0079,0 0,-50.811 17.0079,0 0,-30.898 10.6299,0 0,3.615 4.3228,0 0,-3.615 4.3229,0 0,-7.228 -4.3229,0 0,-3.543 -4.3228,0 0,3.543 -10.6299,0 0,-31.252 -17.0079,0 0,-53.291 z"
       id="path3032"
       inkscape:connector-curvature="0" />
    <path
       style="fill:none;stroke:#3e3e3e;stroke-width:0.99212599;stroke-linecap:round;stroke-linejoin:round"
       d="m -499.039,617.315 531.7083,0 0,57.189 -17.0079,0 0,57.685 17.0079,0 0,24.591 -10.5591,0 0,7.086 10.5591,0 0,25.087 -17.0079,0 0,57.614 17.0079,0 0,40.181 -69.8032,0 0,17.008 -31.8189,0 0,-10.488 -7.0866,0 0,10.488 -31.3936,0 0,-17.008 -49.961,0 0,17.008 -50.811,0 0,-17.008 -49.96,0 0,17.008 -50.811,0 0,-17.008 -49.961,0 0,17.008 -31.819,0 0,-10.488 -7.087,0 0,10.488 -31.393,0 0,-17.008 -69.803,0 0,-40.181 17.008,0 0,-57.614 -17.008,0 0,-25.087 10.559,0 0,-7.086 -10.559,0 0,-24.591 17.008,0 0,-57.685 -17.008,0 0,-57.189 z"
       id="path3034"
       inkscape:connector-curvature="0" />
    <path
       style="fill:none;stroke:#3e3e3e;stroke-width:0.99212599;stroke-linecap:round;stroke-linejoin:round"
       d="m -499.039,327.26 531.7083,0.071 0,57.189 -17.0079,0 0,57.614 17.0079,0 0,24.59 -10.5591,0 0,7.158 10.5591,0 0,25.016 -17.0079,0 0,57.614 17.0079,0 0,40.252 -69.8032,0 0,16.937 -31.8189,0 0,-10.488 -7.0866,0 0,10.488 -31.3936,0 0,-16.937 -49.961,0 0,16.937 -50.811,0 0,-16.937 -49.96,0 0,16.937 -50.811,0 0,-16.937 -49.961,0 0,16.937 -31.819,0 0,-10.488 -7.087,0 0,10.488 -31.393,0 0,-16.937 -69.803,0 0,-40.252 17.008,0 0,-57.614 -17.008,0 0,-25.087 10.559,0 0,-7.016 -10.559,0 0,-24.661 17.008,0 0,-57.614 -17.008,0 0,-57.26 z"
       id="path3036"
       inkscape:connector-curvature="0" />
    <path
       style="fill:none;stroke:#3e3e3e;stroke-width:0.99212599;stroke-linecap:round;stroke-linejoin:round"
       d="m 57.8268,37.2756 883.7712,0 0,57.6142 17.008,0 0,56.7642 -17.008,0 0,25.44 -10.7,0 0,-3.614 -4.252,0 0,3.614 -4.323,0 0,7.229 4.323,0 0,3.614 4.252,0 0,-3.614 10.7,0 0,24.945 17.008,0 0,56.763 -17.008,0 0,57.686 -48.968,0 0,-17.008 -28.772,0 0,-10.63 3.614,0 0,-4.323 -3.614,0 0,-4.323 -7.157,0 0,4.323 -3.614,0 0,4.323 3.614,0 0,10.63 -29.197,0 0,17.008 -50.811,0 0,-17.008 -49.961,0 0,17.008 -50.882,0 0,-17.008 -49.96,0 0,17.008 -50.811,0 0,-17.008 -49.961,0 0,17.008 -50.811,0 0,-17.008 -49.961,0 0,17.008 -50.881,0 0,-17.008 -49.961,0 0,17.008 -50.811,0 0,-17.008 -49.961,0 0,17.008 -50.882,0 0,-17.008 -28.7,0 0,-10.63 3.614,0 0,-4.323 -3.614,0 0,-4.323 -7.229,0 0,4.323 -3.543,0 0,4.323 3.543,0 0,10.63 -29.126,0 0,17.008 -48.9682,0 0,-57.686 -17.0079,0 0,-56.763 17.0079,0 0,-24.945 10.6299,0 0,3.614 4.3228,0 0,-3.614 4.3229,0 0,-7.229 -4.3229,0 0,-3.614 -4.3228,0 0,3.614 -10.6299,0 0,-25.44 -17.0079,0 0,-56.7642 17.0079,0 0,-57.6142 z"
       id="path3038"
       inkscape:connector-curvature="0" />
    <path
       style="fill:none;stroke:#3e3e3e;stroke-width:0.99212599;stroke-linecap:round;stroke-linejoin:round"
       d="m -863.575,37.2756 883.7718,0 0,57.6142 17.0079,0 0,56.7642 -17.0079,0 0,25.44 -10.62987,0 0,-3.614 -4.32284,0 0,3.614 -4.32283,0 0,7.229 4.32283,0 0,3.614 4.32284,0 0,-3.614 10.62987,0 0,24.945 17.0079,0 0,56.763 -17.0079,0 0,57.686 -48.9685,0 0,-17.008 -28.7007,0 0,-10.63 3.6141,0 0,-4.323 -3.6141,0 0,-4.323 -7.2284,0 0,4.323 -3.6142,0 0,4.323 3.6142,0 0,10.63 -29.126,0 0,17.008 -50.8822,0 0,-17.008 -49.96,0 0,17.008 -50.811,0 0,-17.008 -49.961,0 0,17.008 -50.811,0 0,-17.008 -50.031,0 0,17.008 -50.811,0 0,-17.008 -49.961,0 0,17.008 -50.811,0 0,-17.008 -49.961,0 0,17.008 -50.882,0 0,-17.008 -49.96,0 0,17.008 -50.811,0 0,-17.008 -28.772,0 0,-10.63 3.614,0 0,-4.323 -3.614,0 0,-4.323 -7.157,0 0,4.323 -3.615,0 0,4.323 3.615,0 0,10.63 -29.197,0 0,17.008 -48.969,0 0,-57.686 -17.008,0 0,-56.763 17.008,0 0,-24.945 10.701,0 0,3.614 4.323,0 0,-3.614 4.252,0 0,-7.229 -4.252,0 0,-3.614 -4.323,0 0,3.614 -10.701,0 0,-25.44 -17.008,0 0,-56.7642 17.008,0 0,-57.6142 z"
       id="path3040"
       inkscape:connector-curvature="0" />
  </g>
</svg>
