<?xml version="1.0" encoding="UTF-8" standalone="no"?>
<svg
   xmlns:dc="http://purl.org/dc/elements/1.1/"
   xmlns:cc="http://creativecommons.org/ns#"
   xmlns:rdf="http://www.w3.org/1999/02/22-rdf-syntax-ns#"
   xmlns:svg="http://www.w3.org/2000/svg"
   xmlns="http://www.w3.org/2000/svg"
   style="fill-rule:evenodd"
   version="1.1"
   id="svg3004"
   viewBox="0 0 1879.7241 903.54304"
   height="12.54921in"
   width="26.107279in">
  <metadata
     id="metadata3046">
    <rdf:RDF>
      <cc:Work
         rdf:about="">
        <dc:format>image/svg+xml</dc:format>
        <dc:type
           rdf:resource="http://purl.org/dc/dcmitype/StillImage" />
        <dc:title></dc:title>
      </cc:Work>
    </rdf:RDF>
  </metadata>
  <defs
     id="defs3044">
    <marker
       style="overflow:visible"
       id="Arrow1Lstart"
       refX="0.0"
       refY="0.0"
       orient="auto">
      <path
         transform="scale(0.8) translate(12.5,0)"
         style="fill-rule:evenodd;stroke:#3e3e3e;stroke-width:1pt;stroke-opacity:1;fill:#3e3e3e;fill-opacity:1"
         d="M 0.0,0.0 L 5.0,-5.0 L -12.5,0.0 L 5.0,5.0 L 0.0,0.0 z "
         id="path4473" />
    </marker>
  </defs>
  <g
     style="display:inline;opacity:1"
     id="layer1">
    <path
       style="fill:none;fill-rule:evenodd;stroke:#000000;stroke-width:0.99212599;stroke-linecap:round;stroke-linejoin:round"
       d="m 0.49605,903.04694 1878.73205,0 0,-902.550997 -1878.73205,0 0,902.550997 z"
       id="path3008" />
    <path
       style="fill:none;fill-rule:evenodd;stroke:#3e3e3e;stroke-width:0.99212599;stroke-linecap:round;stroke-linejoin:round"
       d="m 866.12595,640.20494 1.9134,0.425 1.63,1.063 1.0629,1.63 0.4252,1.913 -0.4252,1.984 -1.0629,1.63 -1.63,1.063 -1.9134,0.355 -13.2519,0 -1.9843,-0.355 -1.559,-1.063 -1.063,-1.63 -0.4252,-1.984 0.4252,-1.913 1.063,-1.63 1.559,-1.063 1.9843,-0.425 13.2519,0 z"
       id="path3022" />
    <path
       style="fill:none;fill-rule:evenodd;stroke:#3e3e3e;stroke-width:0.99212599;stroke-linecap:round;stroke-linejoin:round"
       d="m 488.12605,640.20494 1.984,0.425 1.559,1.063 1.063,1.63 0.425,1.913 -0.425,1.984 -1.063,1.63 -1.559,1.063 -1.984,0.355 -13.252,0 -1.913,-0.355 -1.63,-1.063 -1.063,-1.63 -0.426,-1.984 0.426,-1.913 1.063,-1.63 1.63,-1.063 1.913,-0.425 13.252,0 z"
       id="path3024" />
    <path
       style="fill:none;fill-rule:evenodd;stroke:#3e3e3e;stroke-width:0.99212599;stroke-linecap:round;stroke-linejoin:round"
       d="m 866.97635,350.21994 1.9134,0.355 1.6299,1.134 1.063,1.559 0.4252,1.984 -0.4252,1.984 -1.063,1.559 -1.6299,1.063 -1.9134,0.425 -13.9606,0 -1.9842,-0.425 -1.5591,-1.063 -1.1339,-1.559 -0.3543,-1.984 0.3543,-1.984 1.1339,-1.559 1.5591,-1.134 1.9842,-0.355 13.9606,0 z"
       id="path3026" />
    <path
       style="fill:none;fill-rule:evenodd;stroke:#3e3e3e;stroke-width:0.99212599;stroke-linecap:round;stroke-linejoin:round"
       d="m 488.97605,350.21994 1.985,0.355 1.559,1.134 1.063,1.559 0.425,1.984 -0.425,1.984 -1.063,1.559 -1.559,1.063 -1.985,0.425 -13.96,0 -1.985,-0.425 -1.559,-1.063 -1.063,-1.559 -0.425,-1.984 0.425,-1.984 1.063,-1.559 1.559,-1.134 1.985,-0.355 13.96,0 z"
       id="path3028" />
    <path
       id="path3032"
       transform="matrix(0.80000008,0,0,0.80000008,0,-4.882813e-5)"
       d="m 1262.5684,393.13086 0,21.25976 -81.9395,0 0,66.61329 21.2617,0 0,39.06445 13.2871,0 0,-4.42774 5.4024,0 0,4.42774 5.4043,0 0,9.03516 -5.4043,0 0,4.51953 -5.4024,0 0,-4.51953 -13.2871,0 0,38.62304 -21.2617,0 0,63.51367 21.2617,0 0,62.45118 -21.2617,0 0,63.51367 21.2617,0 0,62.44922 -21.2617,0 0,63.60351 21.2617,0 0,39.1543 13.2871,0 0,-4.51758 5.4024,0 0,4.51758 5.4043,0 0,8.94727 -5.4043,0 0,4.51757 -5.4024,0 0,-4.51757 -13.2871,0 0,38.62109 -21.2617,0 0,66.52543 81.9395,0 0,21.2597 36.4961,0 0,-13.1113 8.7695,0 0,13.1113 37.2051,0 0,-21.2597 62.4511,0 0,21.2597 63.5137,0 0,-21.2597 62.4512,0 0,21.2597 63.5137,0 0,-21.2597 62.4492,0 0,21.2597 63.6035,0 0,-21.2597 62.4512,0 0,21.2597 63.5136,0 0,-21.2597 62.4512,0 0,21.2597 63.6016,0 0,-21.2597 62.4511,0 0,21.2597 63.5137,0 0,-21.2597 62.4512,0 0,21.2597 36.4961,0 0,-13.1113 8.8574,0 0,13.1113 37.1172,0 0,-21.2597 81.9375,0 0,-66.52543 -21.2598,0 0,-38.62109 -13.375,0 0,4.51757 -5.3144,0 0,-4.51757 -5.4043,0 0,-8.94727 5.4043,0 0,-4.51758 5.3144,0 0,4.51758 13.375,0 0,-39.1543 21.2598,0 0,-63.60351 -21.2598,0 0,-62.44922 21.2598,0 0,-63.51367 -21.2598,0 0,-62.45118 21.2598,0 0,-63.51367 -21.2598,0 0,-38.62304 -13.375,0 0,4.51953 -5.3144,0 0,-4.51953 -5.4043,0 0,-9.03516 5.4043,0 0,-4.42774 5.3144,0 0,4.42774 13.375,0 0,-39.06445 21.2598,0 0,-66.61329 -81.9375,0 0,-21.25976 -37.1172,0 0,13.19726 -8.7695,0 0,-13.19726 -36.584,0 0,21.25976 -62.4512,0 0,-21.25976 -63.5137,0 0,21.25976 -62.4511,0 0,-21.25976 -63.6016,0 0,21.25976 -62.4512,0 0,-21.25976 -63.5136,0 0,21.25976 -62.4512,0 0,-21.25976 -63.6035,0 0,21.25976 -62.4492,0 0,-21.25976 -63.5137,0 0,21.25976 -62.4512,0 0,-21.25976 -63.5137,0 0,21.25976 -62.4511,0 0,-21.25976 -37.1153,0 0,13.19726 -8.7695,0 0,-13.19726 -36.5859,0 z m -3.0059,124.08203 a 4.7228424,4.7228424 0 0 1 4.7227,4.72266 4.7228424,4.7228424 0 0 1 -4.7227,4.72265 4.7228424,4.7228424 0 0 1 -4.7227,-4.72265 4.7228424,4.7228424 0 0 1 4.7227,-4.72266 z m 336.6152,0 a 4.7228424,4.7228424 0 0 1 4.7227,4.72266 4.7228424,4.7228424 0 0 1 -4.7227,4.72265 4.7228424,4.7228424 0 0 1 -4.7246,-4.72265 4.7228424,4.7228424 0 0 1 4.7246,-4.72266 z m 336.6133,0 a 4.7228424,4.7228424 0 0 1 4.7227,4.72266 4.7228424,4.7228424 0 0 1 -4.7227,4.72265 4.7228424,4.7228424 0 0 1 -4.7226,-4.72265 4.7228424,4.7228424 0 0 1 4.7226,-4.72266 z m 193.8379,60.10547 a 4.7047071,4.7047074 0 0 1 4.7031,4.70508 4.7047071,4.7047074 0 0 1 -4.7031,4.70508 4.7047071,4.7047074 0 0 1 -4.7051,-4.70508 4.7047071,4.7047074 0 0 1 4.7051,-4.70508 z m 152.0254,0 a 4.7047071,4.7047074 0 0 1 4.7031,4.70508 4.7047071,4.7047074 0 0 1 -4.7031,4.70508 4.7047071,4.7047074 0 0 1 -4.7051,-4.70508 4.7047071,4.7047074 0 0 1 4.7051,-4.70508 z m -1019.0918,81.62695 a 4.7228424,4.7228424 0 0 1 4.7227,4.72266 4.7228424,4.7228424 0 0 1 -4.7227,4.72265 4.7228424,4.7228424 0 0 1 -4.7227,-4.72265 4.7228424,4.7228424 0 0 1 4.7227,-4.72266 z m 336.6152,0 a 4.7228424,4.7228424 0 0 1 4.7227,4.72266 4.7228424,4.7228424 0 0 1 -4.7227,4.72265 4.7228424,4.7228424 0 0 1 -4.7246,-4.72265 4.7228424,4.7228424 0 0 1 4.7246,-4.72266 z m 336.6133,0 a 4.7228424,4.7228424 0 0 1 4.7227,4.72266 4.7228424,4.7228424 0 0 1 -4.7227,4.72265 4.7228424,4.7228424 0 0 1 -4.7226,-4.72265 4.7228424,4.7228424 0 0 1 4.7226,-4.72266 z m -662.4746,83.89258 c 2.9549,0 5.3516,2.39674 5.3516,5.35156 0,2.95793 -2.3967,5.35157 -5.3516,5.35157 -2.9549,0 -5.3516,-2.39364 -5.3516,-5.35157 0,-2.95482 2.3967,-5.35156 5.3516,-5.35156 z m 776.25,0 c 2.9549,0 5.3516,2.39674 5.3516,5.35156 0,2.95793 -2.3967,5.35157 -5.3516,5.35157 -2.9549,0 -5.3516,-2.39364 -5.3516,-5.35157 0,-2.95482 2.3967,-5.35156 5.3516,-5.35156 z m 80.0625,256.50586 a 4.7047071,4.7047074 0 0 1 4.7031,4.70505 4.7047071,4.7047074 0 0 1 -4.7031,4.7051 4.7047071,4.7047074 0 0 1 -4.7051,-4.7051 4.7047071,4.7047074 0 0 1 4.7051,-4.70505 z m 152.0254,0 a 4.7047071,4.7047074 0 0 1 4.7031,4.70505 4.7047071,4.7047074 0 0 1 -4.7031,4.7051 4.7047071,4.7047074 0 0 1 -4.7051,-4.7051 4.7047071,4.7047074 0 0 1 4.7051,-4.70505 z m -1008.3379,2.24415 c 2.9549,0 5.3516,2.3936 5.3516,5.3516 0,2.9579 -2.3967,5.3515 -5.3516,5.3515 -2.9549,0 -5.3516,-2.3936 -5.3516,-5.3515 0,-2.958 2.3967,-5.3516 5.3516,-5.3516 z m 776.25,0 c 2.9549,0 5.3516,2.3936 5.3516,5.3516 0,2.9579 -2.3967,5.3515 -5.3516,5.3515 -2.9549,0 -5.3516,-2.3936 -5.3516,-5.3515 0,-2.958 2.3967,-5.3516 5.3516,-5.3516 z"
       style="fill:none;fill-opacity:1;fill-rule:evenodd;stroke:#3e3e3e;stroke-width:1.24015737;stroke-linecap:round;stroke-linejoin:round" />
    <path
       style="fill:none;fill-rule:evenodd;stroke:#3e3e3e;stroke-width:0.99212599;stroke-linecap:round;stroke-linejoin:round"
       d="m 404.64605,604.55894 531.7083,0 0,57.189 -17.0079,0 0,57.685 17.0079,0 0,24.591 -10.5591,0 0,7.086 10.5591,0 0,25.087 -17.0079,0 0,57.614 17.0079,0 0,40.181 -69.8032,0 0,17.008 -31.8189,0 0,-10.488 -7.0866,0 0,10.488 -31.3936,0 0,-17.008 -49.961,0 0,17.008 -50.811,0 0,-17.008 -49.96,0 0,17.008 -50.811,0 0,-17.008 -49.961,0 0,17.008 -31.819,0 0,-10.488 -7.087,0 0,10.488 -31.393,0 0,-17.008 -69.803,0 0,-40.181 17.008,0 0,-57.614 -17.008,0 0,-25.087 10.559,0 0,-7.086 -10.559,0 0,-24.591 17.008,0 0,-57.685 -17.008,0 0,-57.189 z"
       id="path3034" />
    <path
       style="fill:none;fill-rule:evenodd;stroke:#3e3e3e;stroke-width:0.99212599;stroke-linecap:round;stroke-linejoin:round"
       d="m 404.64605,314.50394 531.7083,0.071 0,57.189 -17.0079,0 0,57.614 17.0079,0 0,24.59 -10.5591,0 0,7.158 10.5591,0 0,25.016 -17.0079,0 0,57.614 17.0079,0 0,40.252 -69.8032,0 0,16.937 -31.8189,0 0,-10.488 -7.0866,0 0,10.488 -31.3936,0 0,-16.937 -49.961,0 0,16.937 -50.811,0 0,-16.937 -49.96,0 0,16.937 -50.811,0 0,-16.937 -49.961,0 0,16.937 -31.819,0 0,-10.488 -7.087,0 0,10.488 -31.393,0 0,-16.937 -69.803,0 0,-40.252 17.008,0 0,-57.614 -17.008,0 0,-25.087 10.559,0 0,-7.016 -10.559,0 0,-24.661 17.008,0 0,-57.614 -17.008,0 0,-57.26 z"
       id="path3036" />
    <path
       style="fill:none;fill-rule:evenodd;stroke:#3e3e3e;stroke-width:0.99212599;stroke-linecap:round;stroke-linejoin:round"
       d="m 961.51185,24.519543 883.77125,0 0,57.6142 17.008,0 0,56.764197 -17.008,0 0,25.44 -10.7,0 0,-3.614 -4.252,0 0,3.614 -4.323,0 0,7.229 4.323,0 0,3.614 4.252,0 0,-3.614 10.7,0 0,24.945 17.008,0 0,56.763 -17.008,0 0,57.686 -48.968,0 0,-17.008 -28.772,0 0,-10.63 3.614,0 0,-4.323 -3.614,0 0,-4.323 -7.157,0 0,4.323 -3.614,0 0,4.323 3.614,0 0,10.63 -29.197,0 0,17.008 -50.811,0 0,-17.008 -49.961,0 0,17.008 -50.882,0 0,-17.008 -49.96,0 0,17.008 -50.811,0 0,-17.008 -49.961,0 0,17.008 -50.811,0 0,-17.008 -49.961,0 0,17.008 -50.881,0 0,-17.008 -49.961,0 0,17.008 -50.811,0 0,-17.008 -49.961,0 0,17.008 -50.882,0 0,-17.008 -28.7,0 0,-10.63 3.614,0 0,-4.323 -3.614,0 0,-4.323 -7.2291,0 0,4.323 -3.5429,0 0,4.323 3.5429,0 0,10.63 -29.126,0 0,17.008 -48.96815,0 0,-57.686 -17.0079,0 0,-56.763 17.0079,0 0,-24.945 10.6299,0 0,3.614 4.3228,0 0,-3.614 4.3229,0 0,-7.229 -4.3229,0 0,-3.614 -4.3228,0 0,3.614 -10.6299,0 0,-25.44 -17.0079,0 0,-56.764197 17.0079,0 0,-57.6142 z"
       id="path3038" />
    <path
       id="path3040"
       transform="matrix(0.80000008,0,0,0.80000008,0,-4.882813e-5)"
       d="m 50.136719,30.650391 0,72.017579 -21.259766,0 0,70.95508 21.259766,0 0,31.79883 13.376953,0 0,-4.51758 5.404297,0 0,4.51758 5.314453,0 0,9.0371 -5.314453,0 0,4.51758 -5.404297,0 0,-4.51758 -13.376953,0 0,31.18164 -21.259766,0 0,70.95313 21.259766,0 0,72.10742 61.212891,0 0,-21.25976 36.49609,0 0,-13.28711 -4.51953,0 0,-5.4043 4.51953,0 0,-5.4043 8.94532,0 0,5.4043 4.51757,0 0,5.4043 -4.51757,0 0,13.28711 35.96484,0 0,21.25976 63.51367,0 0,-21.25976 62.45117,0 0,21.25976 63.60157,0 0,-21.25976 62.45117,0 0,21.25976 63.51367,0 0,-21.25976 62.45117,0 0,21.25976 63.51367,0 0,-21.25976 62.53907,0 0,21.25976 63.51367,0 0,-21.25976 62.45117,0 0,21.25976 63.51367,0 0,-21.25976 62.45117,0 0,21.25976 63.6016,0 0,-21.25976 36.4082,0 0,-13.28711 -4.5176,0 0,-5.4043 4.5176,0 0,-5.4043 9.0351,0 0,5.4043 4.5176,0 0,5.4043 -4.5176,0 0,13.28711 35.875,0 0,21.25976 61.211,0 0,-72.10742 21.2597,0 0,-70.95313 -21.2597,0 0,-31.18164 -13.2871,0 0,4.51758 -5.4024,0 0,-4.51758 -5.4043,0 0,-9.0371 5.4043,0 0,-4.51758 5.4024,0 0,4.51758 13.2871,0 0,-31.79883 21.2597,0 0,-70.95508 -21.2597,0 0,-72.017579 -1104.714881,0 z M 1039.252,260.07812 l 27.9921,0 3.8965,3.63086 2.9239,4.43164 1.9492,5.13672 0.6191,5.58204 -0.4414,4.69335 -1.418,4.42969 -2.125,3.98633 -2.8359,3.45313 -3.4551,2.83593 -3.9863,2.125 -4.4277,1.41797 -4.6954,0.44336 -4.6953,-0.44336 -4.4297,-1.41797 -3.9843,-2.125 -3.4551,-2.83593 -2.8359,-3.45313 -2.125,-3.98633 -1.418,-4.42969 -0.4434,-4.69335 0.6211,-5.58204 1.9492,-5.13672 2.9219,-4.43164 3.8985,-3.63086 z m -527.07427,1.83399 a 16.946492,16.946493 0 0 1 16.94727,16.94727 16.946492,16.946493 0 0 1 -16.94727,16.94531 16.946492,16.946493 0 0 1 -16.94726,-16.94531 16.946492,16.946493 0 0 1 16.94726,-16.94727 z m 90,0 a 16.946492,16.946493 0 0 1 16.94727,16.94727 16.946492,16.946493 0 0 1 -16.94727,16.94531 16.946492,16.946493 0 0 1 -16.94726,-16.94531 16.946492,16.946493 0 0 1 16.94726,-16.94727 z m 90,0 a 16.946492,16.946493 0 0 1 16.94727,16.94727 16.946492,16.946493 0 0 1 -16.94727,16.94531 16.946492,16.946493 0 0 1 -16.94726,-16.94531 16.946492,16.946493 0 0 1 16.94726,-16.94727 z m 90,2.69336 a 14.252435,14.252436 0 0 1 14.25196,14.25391 14.252435,14.252436 0 0 1 -14.25196,14.25195 14.252435,14.252436 0 0 1 -14.25195,-14.25195 14.252435,14.252436 0 0 1 14.25195,-14.25391 z m -630,1.42187 a 12.830476,12.830476 0 0 1 12.83008,12.83204 12.830476,12.830476 0 0 1 -12.83008,12.83007 12.830476,12.830476 0 0 1 -12.83007,-12.83007 12.830476,12.830476 0 0 1 12.83007,-12.83204 z m 90,0 a 12.830476,12.830476 0 0 1 12.83008,12.83204 12.830476,12.830476 0 0 1 -12.83008,12.83007 12.830476,12.830476 0 0 1 -12.83007,-12.83007 12.830476,12.830476 0 0 1 12.83007,-12.83204 z m 90,0 a 12.830476,12.830476 0 0 1 12.83008,12.83204 12.830476,12.830476 0 0 1 -12.83008,12.83007 12.830476,12.830476 0 0 1 -12.83007,-12.83007 12.830476,12.830476 0 0 1 12.83007,-12.83204 z m 90,0 a 12.830476,12.830476 0 0 1 12.83008,12.83204 12.830476,12.830476 0 0 1 -12.83008,12.83007 12.830476,12.830476 0 0 1 -12.83007,-12.83007 12.830476,12.830476 0 0 1 12.83007,-12.83204 z"
       style="fill:none;fill-opacity:1;fill-rule:evenodd;stroke:#3e3e3e;stroke-width:1.24015737;stroke-linecap:round;stroke-linejoin:round" />
  </g>
</svg>
