<?xml version="1.0" encoding="UTF-8" standalone="no"?>
<!-- Created with sK1/UniConvertor (http://sk1project.org/) -->

<svg
   xmlns:dc="http://purl.org/dc/elements/1.1/"
   xmlns:cc="http://creativecommons.org/ns#"
   xmlns:rdf="http://www.w3.org/1999/02/22-rdf-syntax-ns#"
   xmlns:svg="http://www.w3.org/2000/svg"
   xmlns="http://www.w3.org/2000/svg"
   xmlns:sodipodi="http://sodipodi.sourceforge.net/DTD/sodipodi-0.dtd"
   xmlns:inkscape="http://www.inkscape.org/namespaces/inkscape"
   width="26.107279in"
   height="12.54921in"
   viewBox="0 0 1879.7241 903.54304"
   id="svg3004"
   version="1.1"
   inkscape:version="0.91 r13725"
   sodipodi:docname="boogie_board_cut_d_custom.svg"
   style="fill-rule:evenodd"
   enable-background="new">
  <metadata
     id="metadata3046">
    <rdf:RDF>
      <cc:Work
         rdf:about="">
        <dc:format>image/svg+xml</dc:format>
        <dc:type
           rdf:resource="http://purl.org/dc/dcmitype/StillImage" />
        <dc:title></dc:title>
      </cc:Work>
    </rdf:RDF>
  </metadata>
  <defs
     id="defs3044">
    <marker
       inkscape:stockid="Arrow1Lstart"
       orient="auto"
       refY="0.0"
       refX="0.0"
       id="Arrow1Lstart"
       style="overflow:visible"
       inkscape:isstock="true">
      <path
         id="path4473"
         d="M 0.0,0.0 L 5.0,-5.0 L -12.5,0.0 L 5.0,5.0 L 0.0,0.0 z "
         style="fill-rule:evenodd;stroke:#3e3e3e;stroke-width:1pt;stroke-opacity:1;fill:#3e3e3e;fill-opacity:1"
         transform="scale(0.8) translate(12.5,0)" />
    </marker>
  </defs>
  <sodipodi:namedview
     pagecolor="#ffffff"
     bordercolor="#666666"
     borderopacity="1"
     objecttolerance="10"
     gridtolerance="10"
     guidetolerance="10"
     inkscape:pageopacity="0"
     inkscape:pageshadow="2"
     inkscape:window-width="1280"
     inkscape:window-height="725"
     id="namedview3042"
     showgrid="false"
     fit-margin-top="0"
     fit-margin-left="0"
     fit-margin-right="0"
     fit-margin-bottom="0"
     inkscape:zoom="1"
     inkscape:cx="198.04156"
     inkscape:cy="984.50456"
     inkscape:window-x="0"
     inkscape:window-y="908"
     inkscape:window-maximized="1"
     inkscape:current-layer="layer1"
     inkscape:snap-bbox="true"
     inkscape:bbox-nodes="false"
     inkscape:snap-intersection-paths="true"
     inkscape:object-nodes="true"
     inkscape:snap-midpoints="false"
     units="in"
     inkscape:snap-bbox-edge-midpoints="false"
     inkscape:snap-bbox-midpoints="true"
     showguides="false"
     inkscape:document-units="in"
     inkscape:snap-object-midpoints="true">
    <sodipodi:guide
       position="23.102049,764.64507"
       orientation="72.017506,0"
       id="guide3641" />
    <sodipodi:guide
       position="40.110048,592.58209"
       orientation="0,142.61874"
       id="guide3645" />
    <sodipodi:guide
       position="940.88972,650.26808"
       orientation="-70.953731,0"
       id="guide3649" />
    <sodipodi:guide
       position="823.88971,680.45608"
       orientation="0,46.771608"
       id="guide3653" />
    <sodipodi:guide
       position="842.59843,661.74808"
       orientation="-42.164996,-9.999999e-05"
       id="guide3657" />
    <sodipodi:guide
       position="121.74205,680.45608"
       orientation="79.709705,0"
       id="guide3661" />
    <sodipodi:guide
       position="193.74206,680.45608"
       orientation="-73.086293,0"
       id="guide4823" />
    <sodipodi:guide
       position="265.74208,680.45608"
       orientation="-70.345481,0"
       id="guide4827" />
    <sodipodi:guide
       position="876.77503,708.93962"
       orientation="0,23.577885"
       id="guide4860" />
    <sodipodi:guide
       position="337.74209,749.34024"
       orientation="-60.983244,0"
       id="guide4892" />
    <sodipodi:guide
       position="409.7421,716.99855"
       orientation="-71.946531,0"
       id="guide4896" />
    <sodipodi:guide
       position="481.7421,768.52598"
       orientation="-56.186812,0"
       id="guide4912" />
    <sodipodi:guide
       position="75.098479,717.25511"
       orientation="0.0019547675,0.99999809"
       id="guide4922"
       inkscape:label="PCB depth"
       inkscape:color="rgb(28,233,0)" />
    <sodipodi:guide
       position="553.74211,845.76613"
       orientation="83.336265,0"
       id="guide4926" />
    <sodipodi:guide
       position="1339.512,520.72409"
       orientation="0,336.61359"
       id="guide7505" />
    <sodipodi:guide
       position="1339.512,407.33814"
       orientation="-0.00059999994,336.61372"
       id="guide7509" />
    <sodipodi:guide
       position="1403.4961,207.75923"
       orientation="1,0"
       id="guide8393"
       inkscape:label="Bottom horiz center"
       inkscape:color="rgb(193,0,255)" />
    <sodipodi:guide
       position="1770.6049,322.99199"
       orientation="0,1"
       id="guide8400"
       inkscape:label="Bottom vert center"
       inkscape:color="rgb(215,0,255)" />
    <sodipodi:guide
       position="1729.5182,500.03999"
       orientation="0,1"
       id="guide8404"
       inkscape:label="Rear jack clearance"
       inkscape:color="rgb(255,20,0)" />
    <inkscape:grid
       type="xygrid"
       id="grid8454" />
    <sodipodi:guide
       position="625.74212,792.62334"
       orientation="-89.999988,0"
       id="guide4277" />
    <sodipodi:guide
       position="1353.6844,485.99469"
       orientation="0,336.61359"
       id="guide4297" />
    <sodipodi:guide
       position="1353.6844,372.60871"
       orientation="-0.00061249994,336.61384"
       id="guide4301" />
    <sodipodi:guide
       position="1656.0037,478.97469"
       orientation="0,45.908621"
       id="guide4305" />
    <sodipodi:guide
       position="1655.4555,379.66525"
       orientation="-6.2499994e-05,32.204622"
       id="guide4309" />
    <sodipodi:guide
       position="1664.5934,509.92409"
       orientation="0,19.138373"
       id="guide4315" />
    <sodipodi:guide
       position="1701.3026,520.72409"
       orientation="52.186758,0"
       id="guide4319" />
    <sodipodi:guide
       position="1701.3026,100.30365"
       orientation="-9.9999991e-05,165.52548"
       id="guide4325" />
    <sodipodi:guide
       position="1822.923,89.503727"
       orientation="-13.499999,0"
       id="guide4329" />
  </sodipodi:namedview>
  <g
     inkscape:groupmode="layer"
     id="layer1"
     inkscape:label="Laser cut"
     style="display:inline;opacity:1;">
    <path
       inkscape:connector-curvature="0"
       id="path3008"
       d="m 0.49605,903.04694 1878.73205,0 0,-902.550997 -1878.73205,0 0,902.550997 z"
       style="fill:none;fill-rule:evenodd;stroke:#000000;stroke-width:0.99212599;stroke-linecap:round;stroke-linejoin:round" />
    <path
       inkscape:connector-curvature="0"
       id="path3022"
       d="m 866.12595,640.20494 1.9134,0.425 1.63,1.063 1.0629,1.63 0.4252,1.913 -0.4252,1.984 -1.0629,1.63 -1.63,1.063 -1.9134,0.355 -13.2519,0 -1.9843,-0.355 -1.559,-1.063 -1.063,-1.63 -0.4252,-1.984 0.4252,-1.913 1.063,-1.63 1.559,-1.063 1.9843,-0.425 13.2519,0 z"
       style="fill:none;fill-rule:evenodd;stroke:#3e3e3e;stroke-width:0.99212599;stroke-linecap:round;stroke-linejoin:round" />
    <path
       inkscape:connector-curvature="0"
       id="path3024"
       d="m 488.12605,640.20494 1.984,0.425 1.559,1.063 1.063,1.63 0.425,1.913 -0.425,1.984 -1.063,1.63 -1.559,1.063 -1.984,0.355 -13.252,0 -1.913,-0.355 -1.63,-1.063 -1.063,-1.63 -0.426,-1.984 0.426,-1.913 1.063,-1.63 1.63,-1.063 1.913,-0.425 13.252,0 z"
       style="fill:none;fill-rule:evenodd;stroke:#3e3e3e;stroke-width:0.99212599;stroke-linecap:round;stroke-linejoin:round" />
    <path
       inkscape:connector-curvature="0"
       id="path3026"
       d="m 866.97635,350.21994 1.9134,0.355 1.6299,1.134 1.063,1.559 0.4252,1.984 -0.4252,1.984 -1.063,1.559 -1.6299,1.063 -1.9134,0.425 -13.9606,0 -1.9842,-0.425 -1.5591,-1.063 -1.1339,-1.559 -0.3543,-1.984 0.3543,-1.984 1.1339,-1.559 1.5591,-1.134 1.9842,-0.355 13.9606,0 z"
       style="fill:none;fill-rule:evenodd;stroke:#3e3e3e;stroke-width:0.99212599;stroke-linecap:round;stroke-linejoin:round" />
    <path
       inkscape:connector-curvature="0"
       id="path3028"
       d="m 488.97605,350.21994 1.985,0.355 1.559,1.134 1.063,1.559 0.425,1.984 -0.425,1.984 -1.063,1.559 -1.559,1.063 -1.985,0.425 -13.96,0 -1.985,-0.425 -1.559,-1.063 -1.063,-1.559 -0.425,-1.984 0.425,-1.984 1.063,-1.559 1.559,-1.134 1.985,-0.355 13.96,0 z"
       style="fill:none;fill-rule:evenodd;stroke:#3e3e3e;stroke-width:0.99212599;stroke-linecap:round;stroke-linejoin:round" />
    <path
       style="fill:none;fill-opacity:1;fill-rule:evenodd;stroke:#3e3e3e;stroke-width:1.24015737;stroke-linecap:round;stroke-linejoin:round"
       d="m 1262.5684,393.13086 0,21.25976 -81.9395,0 0,66.61329 21.2617,0 0,39.06445 13.2871,0 0,-4.42774 5.4024,0 0,4.42774 5.4043,0 0,9.03516 -5.4043,0 0,4.51953 -5.4024,0 0,-4.51953 -13.2871,0 0,38.62304 -21.2617,0 0,63.51367 21.2617,0 0,62.45118 -21.2617,0 0,63.51367 21.2617,0 0,62.44922 -21.2617,0 0,63.60351 21.2617,0 0,39.1543 13.2871,0 0,-4.51758 5.4024,0 0,4.51758 5.4043,0 0,8.94727 -5.4043,0 0,4.51757 -5.4024,0 0,-4.51757 -13.2871,0 0,38.62109 -21.2617,0 0,66.52543 81.9395,0 0,21.2597 36.4961,0 0,-13.1113 8.7695,0 0,13.1113 37.2051,0 0,-21.2597 62.4511,0 0,21.2597 63.5137,0 0,-21.2597 62.4512,0 0,21.2597 63.5137,0 0,-21.2597 62.4492,0 0,21.2597 63.6035,0 0,-21.2597 62.4512,0 0,21.2597 63.5136,0 0,-21.2597 62.4512,0 0,21.2597 63.6016,0 0,-21.2597 62.4511,0 0,21.2597 63.5137,0 0,-21.2597 62.4512,0 0,21.2597 36.4961,0 0,-13.1113 8.8574,0 0,13.1113 37.1172,0 0,-21.2597 81.9375,0 0,-66.52543 -21.2598,0 0,-38.62109 -13.375,0 0,4.51757 -5.3144,0 0,-4.51757 -5.4043,0 0,-8.94727 5.4043,0 0,-4.51758 5.3144,0 0,4.51758 13.375,0 0,-39.1543 21.2598,0 0,-63.60351 -21.2598,0 0,-62.44922 21.2598,0 0,-63.51367 -21.2598,0 0,-62.45118 21.2598,0 0,-63.51367 -21.2598,0 0,-38.62304 -13.375,0 0,4.51953 -5.3144,0 0,-4.51953 -5.4043,0 0,-9.03516 5.4043,0 0,-4.42774 5.3144,0 0,4.42774 13.375,0 0,-39.06445 21.2598,0 0,-66.61329 -81.9375,0 0,-21.25976 -37.1172,0 0,13.19726 -8.7695,0 0,-13.19726 -36.584,0 0,21.25976 -62.4512,0 0,-21.25976 -63.5137,0 0,21.25976 -62.4511,0 0,-21.25976 -63.6016,0 0,21.25976 -62.4512,0 0,-21.25976 -63.5136,0 0,21.25976 -62.4512,0 0,-21.25976 -63.6035,0 0,21.25976 -62.4492,0 0,-21.25976 -63.5137,0 0,21.25976 -62.4512,0 0,-21.25976 -63.5137,0 0,21.25976 -62.4511,0 0,-21.25976 -37.1153,0 0,13.19726 -8.7695,0 0,-13.19726 -36.5859,0 z m -3.0059,124.08203 a 4.7228424,4.7228424 0 0 1 4.7227,4.72266 4.7228424,4.7228424 0 0 1 -4.7227,4.72265 4.7228424,4.7228424 0 0 1 -4.7227,-4.72265 4.7228424,4.7228424 0 0 1 4.7227,-4.72266 z m 336.6152,0 a 4.7228424,4.7228424 0 0 1 4.7227,4.72266 4.7228424,4.7228424 0 0 1 -4.7227,4.72265 4.7228424,4.7228424 0 0 1 -4.7246,-4.72265 4.7228424,4.7228424 0 0 1 4.7246,-4.72266 z m 336.6133,0 a 4.7228424,4.7228424 0 0 1 4.7227,4.72266 4.7228424,4.7228424 0 0 1 -4.7227,4.72265 4.7228424,4.7228424 0 0 1 -4.7226,-4.72265 4.7228424,4.7228424 0 0 1 4.7226,-4.72266 z m 193.8379,60.10547 a 4.7047071,4.7047074 0 0 1 4.7031,4.70508 4.7047071,4.7047074 0 0 1 -4.7031,4.70508 4.7047071,4.7047074 0 0 1 -4.7051,-4.70508 4.7047071,4.7047074 0 0 1 4.7051,-4.70508 z m 152.0254,0 a 4.7047071,4.7047074 0 0 1 4.7031,4.70508 4.7047071,4.7047074 0 0 1 -4.7031,4.70508 4.7047071,4.7047074 0 0 1 -4.7051,-4.70508 4.7047071,4.7047074 0 0 1 4.7051,-4.70508 z m -1019.0918,81.62695 a 4.7228424,4.7228424 0 0 1 4.7227,4.72266 4.7228424,4.7228424 0 0 1 -4.7227,4.72265 4.7228424,4.7228424 0 0 1 -4.7227,-4.72265 4.7228424,4.7228424 0 0 1 4.7227,-4.72266 z m 336.6152,0 a 4.7228424,4.7228424 0 0 1 4.7227,4.72266 4.7228424,4.7228424 0 0 1 -4.7227,4.72265 4.7228424,4.7228424 0 0 1 -4.7246,-4.72265 4.7228424,4.7228424 0 0 1 4.7246,-4.72266 z m 336.6133,0 a 4.7228424,4.7228424 0 0 1 4.7227,4.72266 4.7228424,4.7228424 0 0 1 -4.7227,4.72265 4.7228424,4.7228424 0 0 1 -4.7226,-4.72265 4.7228424,4.7228424 0 0 1 4.7226,-4.72266 z m -662.4746,83.89258 c 2.9549,0 5.3516,2.39674 5.3516,5.35156 0,2.95793 -2.3967,5.35157 -5.3516,5.35157 -2.9549,0 -5.3516,-2.39364 -5.3516,-5.35157 0,-2.95482 2.3967,-5.35156 5.3516,-5.35156 z m 776.25,0 c 2.9549,0 5.3516,2.39674 5.3516,5.35156 0,2.95793 -2.3967,5.35157 -5.3516,5.35157 -2.9549,0 -5.3516,-2.39364 -5.3516,-5.35157 0,-2.95482 2.3967,-5.35156 5.3516,-5.35156 z m 80.0625,256.50586 a 4.7047071,4.7047074 0 0 1 4.7031,4.70505 4.7047071,4.7047074 0 0 1 -4.7031,4.7051 4.7047071,4.7047074 0 0 1 -4.7051,-4.7051 4.7047071,4.7047074 0 0 1 4.7051,-4.70505 z m 152.0254,0 a 4.7047071,4.7047074 0 0 1 4.7031,4.70505 4.7047071,4.7047074 0 0 1 -4.7031,4.7051 4.7047071,4.7047074 0 0 1 -4.7051,-4.7051 4.7047071,4.7047074 0 0 1 4.7051,-4.70505 z m -1008.3379,2.24415 c 2.9549,0 5.3516,2.3936 5.3516,5.3516 0,2.9579 -2.3967,5.3515 -5.3516,5.3515 -2.9549,0 -5.3516,-2.3936 -5.3516,-5.3515 0,-2.958 2.3967,-5.3516 5.3516,-5.3516 z m 776.25,0 c 2.9549,0 5.3516,2.3936 5.3516,5.3516 0,2.9579 -2.3967,5.3515 -5.3516,5.3515 -2.9549,0 -5.3516,-2.3936 -5.3516,-5.3515 0,-2.958 2.3967,-5.3516 5.3516,-5.3516 z"
       transform="matrix(0.80000008,0,0,0.80000008,0,-4.882813e-5)"
       id="path3032"
       inkscape:connector-curvature="0" />
    <path
       inkscape:connector-curvature="0"
       id="path3034"
       d="m 404.64605,604.55894 531.7083,0 0,57.189 -17.0079,0 0,57.685 17.0079,0 0,24.591 -10.5591,0 0,7.086 10.5591,0 0,25.087 -17.0079,0 0,57.614 17.0079,0 0,40.181 -69.8032,0 0,17.008 -31.8189,0 0,-10.488 -7.0866,0 0,10.488 -31.3936,0 0,-17.008 -49.961,0 0,17.008 -50.811,0 0,-17.008 -49.96,0 0,17.008 -50.811,0 0,-17.008 -49.961,0 0,17.008 -31.819,0 0,-10.488 -7.087,0 0,10.488 -31.393,0 0,-17.008 -69.803,0 0,-40.181 17.008,0 0,-57.614 -17.008,0 0,-25.087 10.559,0 0,-7.086 -10.559,0 0,-24.591 17.008,0 0,-57.685 -17.008,0 0,-57.189 z"
       style="fill:none;fill-rule:evenodd;stroke:#3e3e3e;stroke-width:0.99212599;stroke-linecap:round;stroke-linejoin:round" />
    <path
       inkscape:connector-curvature="0"
       id="path3036"
       d="m 404.64605,314.50394 531.7083,0.071 0,57.189 -17.0079,0 0,57.614 17.0079,0 0,24.59 -10.5591,0 0,7.158 10.5591,0 0,25.016 -17.0079,0 0,57.614 17.0079,0 0,40.252 -69.8032,0 0,16.937 -31.8189,0 0,-10.488 -7.0866,0 0,10.488 -31.3936,0 0,-16.937 -49.961,0 0,16.937 -50.811,0 0,-16.937 -49.96,0 0,16.937 -50.811,0 0,-16.937 -49.961,0 0,16.937 -31.819,0 0,-10.488 -7.087,0 0,10.488 -31.393,0 0,-16.937 -69.803,0 0,-40.252 17.008,0 0,-57.614 -17.008,0 0,-25.087 10.559,0 0,-7.016 -10.559,0 0,-24.661 17.008,0 0,-57.614 -17.008,0 0,-57.26 z"
       style="fill:none;fill-rule:evenodd;stroke:#3e3e3e;stroke-width:0.99212599;stroke-linecap:round;stroke-linejoin:round" />
    <path
       inkscape:connector-curvature="0"
       id="path3038"
       d="m 961.51185,24.519543 883.77125,0 0,57.6142 17.008,0 0,56.764197 -17.008,0 0,25.44 -10.7,0 0,-3.614 -4.252,0 0,3.614 -4.323,0 0,7.229 4.323,0 0,3.614 4.252,0 0,-3.614 10.7,0 0,24.945 17.008,0 0,56.763 -17.008,0 0,57.686 -48.968,0 0,-17.008 -28.772,0 0,-10.63 3.614,0 0,-4.323 -3.614,0 0,-4.323 -7.157,0 0,4.323 -3.614,0 0,4.323 3.614,0 0,10.63 -29.197,0 0,17.008 -50.811,0 0,-17.008 -49.961,0 0,17.008 -50.882,0 0,-17.008 -49.96,0 0,17.008 -50.811,0 0,-17.008 -49.961,0 0,17.008 -50.811,0 0,-17.008 -49.961,0 0,17.008 -50.881,0 0,-17.008 -49.961,0 0,17.008 -50.811,0 0,-17.008 -49.961,0 0,17.008 -50.882,0 0,-17.008 -28.7,0 0,-10.63 3.614,0 0,-4.323 -3.614,0 0,-4.323 -7.2291,0 0,4.323 -3.5429,0 0,4.323 3.5429,0 0,10.63 -29.126,0 0,17.008 -48.96815,0 0,-57.686 -17.0079,0 0,-56.763 17.0079,0 0,-24.945 10.6299,0 0,3.614 4.3228,0 0,-3.614 4.3229,0 0,-7.229 -4.3229,0 0,-3.614 -4.3228,0 0,3.614 -10.6299,0 0,-25.44 -17.0079,0 0,-56.764197 17.0079,0 0,-57.6142 z"
       style="fill:none;fill-rule:evenodd;stroke:#3e3e3e;stroke-width:0.99212599;stroke-linecap:round;stroke-linejoin:round" />
    <path
       style="fill:#ffffff;fill-opacity:1;fill-rule:evenodd;stroke:#3e3e3e;stroke-width:1.55019653;stroke-linecap:round;stroke-linejoin:round"
       d="M 50.136719 30.650391 L 50.136719 102.66797 L 28.876953 102.66797 L 28.876953 173.62305 L 50.136719 173.62305 L 50.136719 205.42188 L 63.513672 205.42188 L 63.513672 200.9043 L 68.917969 200.9043 L 68.917969 205.42188 L 74.232422 205.42188 L 74.232422 214.45898 L 68.917969 214.45898 L 68.917969 218.97656 L 63.513672 218.97656 L 63.513672 214.45898 L 50.136719 214.45898 L 50.136719 245.64062 L 28.876953 245.64062 L 28.876953 316.59375 L 50.136719 316.59375 L 50.136719 388.70117 L 111.34961 388.70117 L 111.34961 367.44141 L 147.8457 367.44141 L 147.8457 354.1543 L 143.32617 354.1543 L 143.32617 348.75 L 147.8457 348.75 L 147.8457 343.3457 L 156.79102 343.3457 L 156.79102 348.75 L 161.30859 348.75 L 161.30859 354.1543 L 156.79102 354.1543 L 156.79102 367.44141 L 192.75586 367.44141 L 192.75586 388.70117 L 256.26953 388.70117 L 256.26953 367.44141 L 318.7207 367.44141 L 318.7207 388.70117 L 382.32227 388.70117 L 382.32227 367.44141 L 444.77344 367.44141 L 444.77344 388.70117 L 508.28711 388.70117 L 508.28711 367.44141 L 570.73828 367.44141 L 570.73828 388.70117 L 634.25195 388.70117 L 634.25195 367.44141 L 696.79102 367.44141 L 696.79102 388.70117 L 760.30469 388.70117 L 760.30469 367.44141 L 822.75586 367.44141 L 822.75586 388.70117 L 886.26953 388.70117 L 886.26953 367.44141 L 948.7207 367.44141 L 948.7207 388.70117 L 1012.3223 388.70117 L 1012.3223 367.44141 L 1048.7305 367.44141 L 1048.7305 354.1543 L 1044.2129 354.1543 L 1044.2129 348.75 L 1048.7305 348.75 L 1048.7305 343.3457 L 1057.7656 343.3457 L 1057.7656 348.75 L 1062.2832 348.75 L 1062.2832 354.1543 L 1057.7656 354.1543 L 1057.7656 367.44141 L 1093.6406 367.44141 L 1093.6406 388.70117 L 1154.8516 388.70117 L 1154.8516 316.59375 L 1176.1113 316.59375 L 1176.1113 245.64062 L 1154.8516 245.64062 L 1154.8516 214.45898 L 1141.5645 214.45898 L 1141.5645 218.97656 L 1136.1621 218.97656 L 1136.1621 214.45898 L 1130.7578 214.45898 L 1130.7578 205.42188 L 1136.1621 205.42188 L 1136.1621 200.9043 L 1141.5645 200.9043 L 1141.5645 205.42188 L 1154.8516 205.42188 L 1154.8516 173.62305 L 1176.1113 173.62305 L 1176.1113 102.66797 L 1154.8516 102.66797 L 1154.8516 30.650391 L 50.136719 30.650391 z M 1039.252 260.07812 L 1067.2441 260.07812 L 1071.1406 263.70898 L 1074.0645 268.14062 L 1076.0137 273.27734 L 1076.6328 278.85938 L 1076.1914 283.55273 L 1074.7734 287.98242 L 1072.6484 291.96875 L 1069.8125 295.42188 L 1066.3574 298.25781 L 1062.3711 300.38281 L 1057.9434 301.80078 L 1053.248 302.24414 L 1048.5527 301.80078 L 1044.123 300.38281 L 1040.1387 298.25781 L 1036.6836 295.42188 L 1033.8477 291.96875 L 1031.7227 287.98242 L 1030.3047 283.55273 L 1029.8613 278.85938 L 1030.4824 273.27734 L 1032.4316 268.14062 L 1035.3535 263.70898 L 1039.252 260.07812 z M 152.17773 262.47852 A 16.380965 16.379721 0 0 1 168.55859 278.85938 A 16.380965 16.379721 0 0 1 152.17773 295.23828 A 16.380965 16.379721 0 0 1 135.79688 278.85938 A 16.380965 16.379721 0 0 1 152.17773 262.47852 z M 242.17773 262.47852 A 16.380965 16.379721 0 0 1 258.55859 278.85938 A 16.380965 16.379721 0 0 1 242.17773 295.23828 A 16.380965 16.379721 0 0 1 225.79688 278.85938 A 16.380965 16.379721 0 0 1 242.17773 262.47852 z M 332.17773 262.47852 A 16.380965 16.379721 0 0 1 348.55859 278.85938 A 16.380965 16.379721 0 0 1 332.17773 295.23828 A 16.380965 16.379721 0 0 1 315.79688 278.85938 A 16.380965 16.379721 0 0 1 332.17773 262.47852 z M 422.17773 262.47852 A 16.380965 16.379721 0 0 1 438.55859 278.85938 A 16.380965 16.379721 0 0 1 422.17773 295.23828 A 16.380965 16.379721 0 0 1 405.79688 278.85938 A 16.380965 16.379721 0 0 1 422.17773 262.47852 z M 512.17773 262.47852 A 16.380965 16.379721 0 0 1 528.55859 278.85938 A 16.380965 16.379721 0 0 1 512.17773 295.23828 A 16.380965 16.379721 0 0 1 495.79688 278.85938 A 16.380965 16.379721 0 0 1 512.17773 262.47852 z M 602.17773 262.47852 A 16.380965 16.379721 0 0 1 618.55859 278.85938 A 16.380965 16.379721 0 0 1 602.17773 295.23828 A 16.380965 16.379721 0 0 1 585.79688 278.85938 A 16.380965 16.379721 0 0 1 602.17773 262.47852 z M 692.17773 262.47852 A 16.380965 16.379721 0 0 1 708.55859 278.85938 A 16.380965 16.379721 0 0 1 692.17773 295.23828 A 16.380965 16.379721 0 0 1 675.79688 278.85938 A 16.380965 16.379721 0 0 1 692.17773 262.47852 z M 782.17773 264.60547 A 14.252435 14.252436 0 0 1 796.42969 278.85938 A 14.252435 14.252436 0 0 1 782.17773 293.11133 A 14.252435 14.252436 0 0 1 767.92578 278.85938 A 14.252435 14.252436 0 0 1 782.17773 264.60547 z "
       transform="matrix(0.80000008,0,0,0.80000008,0,-4.882813e-5)"
       id="path4237" />
  </g>
</svg>
